<?xml version="1.0" encoding="utf-8"?>
<!-- Generator: Adobe Illustrator 21.0.2, SVG Export Plug-In . SVG Version: 6.00 Build 0)  -->
<svg version="1.1" xmlns="http://www.w3.org/2000/svg" xmlns:xlink="http://www.w3.org/1999/xlink" x="0px" y="0px"
	 viewBox="0 0 1758 663.4" style="enable-background:new 0 0 1758 663.4;" xml:space="preserve">
<style type="text/css">
	.st0{clip-path:url(#XMLID_22_);fill:#9C9C9C;}
	.st1{fill:#FABE96;}
	.st2{fill:#D9A582;}
	.st3{clip-path:url(#XMLID_23_);fill:#8F6A4A;}
	.st4{fill:#8F6A4A;}
	.st5{clip-path:url(#XMLID_24_);fill:#0C6BC9;}
	.st6{fill:#333333;}
	.st7{fill:#100A0A;}
	.st8{clip-path:url(#XMLID_25_);fill:#CFA245;}
	.st9{fill:#CFA245;}
	.st10{opacity:0.35;fill:#031D36;}
	.st11{opacity:0.35;fill:#053666;}
	.st12{clip-path:url(#XMLID_26_);fill:#828282;}
	.st13{clip-path:url(#SVGID_2_);}
	.st14{fill:#7D7D7D;}
	.st15{clip-path:url(#SVGID_4_);}
	.st16{fill:#5C5C5C;}
	.st17{clip-path:url(#XMLID_27_);fill:#7D7D7D;}
	.st18{clip-path:url(#XMLID_27_);fill:#D9D9D9;fill-opacity:0.26;}
	.st19{fill:none;stroke:#120C0C;stroke-width:2;stroke-linecap:round;stroke-linejoin:round;stroke-miterlimit:10;}
	.st20{fill:#120C0C;}
	.st21{fill:none;}
	.st22{clip-path:url(#XMLID_28_);fill:#333333;}
	.st23{clip-path:url(#XMLID_29_);fill:#333333;stroke:#100A0A;stroke-miterlimit:10;}
	.st24{fill:#100A0A;stroke:#100A0A;stroke-miterlimit:10;}
	.st25{fill:#333333;stroke:#100A0A;stroke-miterlimit:10;}
	.st26{fill:#BFC7D4;}
	.st27{clip-path:url(#SVGID_6_);fill:none;stroke:#120C0C;stroke-miterlimit:10;}
	.st28{fill:#FFFFFF;stroke:#100A0A;stroke-miterlimit:10;}
	.st29{fill:#F2F2F2;fill-opacity:0.32;stroke:#100A0A;stroke-miterlimit:10;}
	.st30{clip-path:url(#SVGID_8_);fill:#3D3D3D;stroke:#100A0A;stroke-miterlimit:10;}
	.st31{clip-path:url(#SVGID_8_);fill:#333333;stroke:#100A0A;stroke-miterlimit:10;}
	.st32{fill:#FFFFFF;stroke:#FFFFFF;stroke-miterlimit:10;}
	.st33{fill:none;stroke:#100A0A;stroke-miterlimit:10;}
	.st34{opacity:0.25;fill:#100A0A;stroke:#100A0A;stroke-miterlimit:10;}
	.st35{fill:#FFFFFF;stroke:#100A0A;stroke-linecap:round;stroke-linejoin:round;stroke-miterlimit:10;}
	.st36{display:none;}
	.st37{fill:none;stroke:#000000;stroke-miterlimit:10;}
	.st38{opacity:0.47;fill:none;stroke:#100A0A;stroke-width:0.25;stroke-miterlimit:10;}
	.st39{opacity:0.47;fill:none;stroke:#100A0A;stroke-miterlimit:10;}
	.st40{fill:none;stroke:#100A0A;stroke-width:0.25;stroke-miterlimit:10;}
	.st41{fill:#3B2E14;}
</style>
<g id="Слой_14">
	<g>
		<defs>
			<path id="XMLID_1_" d="M1162,196.9l-5-22.4c1.7,0.1,208.4,14.7,226.3,19.3c48.7,12.7,41,83.7,41,90.5
				c0,40.7-18.4,156.6-18.4,156.6l-9.1,38.1l-294.9-5.8L1162,196.9"/>
		</defs>
		<use xlink:href="#XMLID_1_"  style="overflow:visible;fill:#5C5C5C;"/>
		<clipPath id="XMLID_22_">
			<use xlink:href="#XMLID_1_"  style="overflow:visible;"/>
		</clipPath>
		<path class="st0" d="M1358.9,206.9c39.2,8.4,44.4,36.7,49.8,68.7c4.2,24.9-6.3,108.6,4.9,127.4c39.6-50.9,74.2-130.7,48.3-194.8
			c-24.6-61-85.4-75.1-145.3-65.5c-20.2,3.2-40.2,6.8-60.4,9.5c-12.9,1.7-30.4,1.2-42.4,7.1c-10.7,5.2,64.3,14,58.9,20.4
			c-2.6,3.1-78.9-2.3-82,1.1C1196.1,182.3,1328,200.3,1358.9,206.9z"/>
		<use xlink:href="#XMLID_1_"  style="overflow:visible;fill:none;stroke:#000000;stroke-width:2;stroke-miterlimit:10;"/>
	</g>
</g>
<g id="Слой_3">
	<g id="XMLID_12_">
		<path class="st1" d="M1033.2,107.7c0.5,9.4-0.1-7.8,3.5-17.3c3.8-10,23.2-22.9,32-28.7c28.3-18.4,59.4-14.1,81.7,13.1
			c7,8.5,7.3,17.1,11.4,26.3c2.1,4.7,5.7,8.1,7,13c1.1,4.2,0.7,8.9,2,13c-2.2,1.7-2.3,12.9-2.6,16.6c-0.6,6.6,4.8,10.1,4.5,16.4
			c-0.2,4,2.5,11.2,4.8,16.2c2.3,4.7,18.9,21.2,24.3,27.5c10.4,4.2,20-3.3,18.8,10c-0.7,8.2-6.6,16.5-10,23.8
			c-3.4,7.3-5.9,15.6-11.4,21.5c-9.9,10.8-29.7,19.1-43.8,20.8c-16.9,2.1-33.9-5.3-47.5-15.5c-12.3-9.2-7.5-23.2,1.7-44.8
			c-8,0.4-24.6-0.5-29.4-7.8c-4-6.2-7.1-12.9-11.3-19.1c-4.6-6.8-12.7-9.4-17-16.3c-3.3-5.3-4.2-12.5-5.3-19
			c-2.2-12.6-5.4-19-11.3-21c-1-1.7-0.8-3.9-0.9-5.9C1034.3,128.4,1032.4,113.3,1033.2,107.7z"/>
		<path d="M1033.2,107.7l0.1,1.7c0,0.3,0,0.6,0.1,0.8c0,0.1,0,0.2,0,0.2l0-0.2l0-0.4l0.2-3.4c0.2-2.2,0.4-4.5,0.7-6.7
			c0.3-2.2,0.7-4.4,1.3-6.6c0.6-2.2,1.4-4.3,2.6-6.2c2.5-3.8,5.7-7,9.1-9.9c3.4-3,6.9-5.7,10.5-8.4c3.6-2.6,7.3-5.2,11.1-7.6
			c3.8-2.4,7.8-4.6,11.9-6.3c4.2-1.7,8.5-3.1,13-3.8c4.4-0.8,9-1.1,13.5-0.8c4.5,0.3,9,1.2,13.3,2.6c4.3,1.4,8.4,3.3,12.3,5.7
			c3.9,2.4,7.4,5.2,10.7,8.3c1.7,1.5,3.2,3.2,4.7,4.8c1.5,1.7,3,3.4,4.3,5.3c2.6,3.8,4.3,8.1,5.7,12.4c1.4,4.3,2.6,8.6,4.5,12.5
			c1,1.9,2.3,3.7,3.5,5.6c1.2,1.9,2.4,4,3,6.3c1.2,4.6,0.7,9.2,2.1,13.2l0.2,0.6l-0.5,0.4c-0.1,0.1-0.3,0.4-0.5,0.8
			c-0.2,0.4-0.3,0.8-0.4,1.2c-0.2,0.8-0.4,1.7-0.5,2.6c-0.2,1.8-0.4,3.6-0.5,5.4l-0.3,5.5l-0.1,0.7c0,0.2,0,0.5,0,0.7
			c0,0.4,0,0.8,0.1,1.2c0.1,0.8,0.3,1.7,0.6,2.5c0.6,1.6,1.4,3.2,2.2,4.9c0.8,1.7,1.5,3.6,1.7,5.5c0,0.5,0,1,0,1.4l0,0.7l0,0.6
			c0.1,0.8,0.2,1.7,0.4,2.6c0.4,1.7,0.9,3.5,1.5,5.2c0.6,1.7,1.3,3.4,2,5c0.4,0.8,0.7,1.7,1.2,2.3c0.5,0.7,1,1.4,1.5,2.1
			c2.2,2.8,4.7,5.5,7.2,8.2c2.5,2.7,5,5.3,7.5,8c2.5,2.7,5.1,5.3,7.5,8.1l-0.4-0.3c2.1,0.8,4.3,1.2,6.6,1.3c2.3,0.2,4.6,0,7.1,0.2
			c1.2,0.1,2.6,0.4,3.8,1.3c1.2,0.9,1.7,2.4,1.9,3.6c0.4,2.6,0.1,4.9-0.4,7.4c-1,4.8-3.3,9.1-5.4,13.2c-1.1,2.1-2.2,4.1-3.3,6.2
			c-1,2.1-2,4.2-2.9,6.3c-1.8,4.3-3.6,8.7-6.2,12.8c-2.5,4.1-6.2,7.4-10,10.3c-3.8,2.8-8,5.2-12.2,7.3c-4.3,2.1-8.7,3.8-13.2,5.2
			c-4.5,1.4-9.2,2.5-13.9,2.9c-4.8,0.4-9.6,0.1-14.3-0.8c-4.7-0.9-9.2-2.3-13.6-4.2c-4.4-1.8-8.6-4.1-12.5-6.6c-2-1.3-3.9-2.6-5.8-4
			l-0.4-0.3l-0.4-0.3l-0.7-0.5c-0.5-0.4-0.9-0.8-1.4-1.3c-0.9-0.9-1.6-1.8-2.3-2.8c-0.7-1-1.2-2.1-1.7-3.3c-0.4-1.2-0.7-2.3-0.9-3.6
			c-0.4-2.4-0.3-4.9,0-7.2c0.6-4.8,2.1-9.3,3.7-13.7c1.6-4.4,3.5-8.8,5.3-13.1l0.7,1c-5.1,0.2-10.3-0.1-15.4-0.9
			c-2.5-0.4-5.1-1.1-7.5-2c-2.4-1-4.8-2.3-6.5-4.4c-1.6-2.2-2.8-4.4-4-6.6l-3.7-6.7c-1.2-2.2-2.6-4.4-4-6.5c-0.3-0.5-0.7-1-1.1-1.5
			c-0.4-0.5-0.8-0.9-1.2-1.4c-0.8-0.9-1.8-1.7-2.8-2.5c-1.9-1.6-4-3.1-6-4.7c-2-1.6-3.9-3.4-5.4-5.6c-1.5-2.1-2.5-4.6-3.2-7
			c-0.7-2.5-1.2-5-1.7-7.5c-0.4-2.5-0.8-5-1.3-7.5c-0.5-2.5-1-5-1.8-7.4c-0.8-2.4-1.7-4.8-3.1-6.9c-1.4-2.1-3.4-3.8-5.8-4.6l-0.1,0
			l0-0.1c-0.6-1.1-0.8-2.4-0.8-3.6l0-1.8c0-0.6-0.1-1.2-0.1-1.8l-0.7-7.2c-0.2-2.4-0.4-4.8-0.5-7.2c0-1.2-0.1-2.4-0.1-3.6
			C1033,110.1,1033,108.8,1033.2,107.7z M1033.2,107.7c-0.1,1.2-0.2,2.4-0.2,3.6c0,1.2,0.1,2.4,0.1,3.6c0.1,2.4,0.3,4.8,0.6,7.2
			l0.8,7.2c0.1,0.6,0.1,1.2,0.1,1.8l0.1,1.8c0,1.2,0.2,2.4,0.8,3.4l-0.1-0.1c2.5,0.8,4.6,2.5,6,4.6c1.5,2.1,2.5,4.5,3.3,7
			c1.6,4.9,2.4,10,3.3,14.9c0.5,2.5,1,5,1.8,7.4c0.8,2.4,1.7,4.7,3.2,6.8c1.4,2.1,3.3,3.7,5.3,5.3c2,1.6,4.1,3,6.1,4.6
			c1,0.8,2,1.7,2.9,2.6c0.5,0.4,0.9,1,1.3,1.5c0.4,0.5,0.8,1,1.2,1.5c1.4,2.1,2.8,4.3,4.1,6.5l3.8,6.6c1.3,2.2,2.6,4.4,4,6.4
			c1.5,1.8,3.7,3.1,6,4c2.3,0.9,4.8,1.5,7.2,1.9c5,0.8,10,1.1,15.1,0.8l1.1,0l-0.4,1c-1.8,4.3-3.6,8.6-5.2,13
			c-1.6,4.4-3,8.9-3.5,13.4c-0.3,2.3-0.3,4.6,0,6.8c0.2,1.1,0.5,2.2,0.9,3.2c0.4,1,0.9,2,1.5,2.9c0.6,0.9,1.3,1.8,2.2,2.6
			c0.4,0.4,0.8,0.7,1.2,1.1l0.7,0.5l0.3,0.3l0.4,0.3c1.9,1.4,3.8,2.7,5.7,3.9c3.9,2.5,8,4.7,12.3,6.5c4.3,1.8,8.7,3.2,13.3,4
			c4.5,0.8,9.2,1.1,13.7,0.7c4.6-0.4,9.1-1.5,13.6-2.9c4.4-1.4,8.8-3.1,12.9-5.1c4.2-2,8.2-4.4,11.9-7.1c3.7-2.8,7.1-5.9,9.5-9.8
			c2.5-3.9,4.2-8.2,6-12.5c0.9-2.2,1.8-4.3,2.9-6.5c1.1-2.1,2.2-4.2,3.3-6.2c2.2-4.1,4.3-8.3,5.3-12.7c0.4-2.2,0.7-4.5,0.4-6.6
			c-0.2-1-0.6-1.9-1.2-2.5c-0.7-0.6-1.7-0.8-2.8-0.9c-2.2-0.2-4.6,0-7-0.2c-2.4-0.1-4.9-0.6-7.2-1.5l-0.2-0.1l-0.2-0.2
			c-2.4-2.7-4.9-5.4-7.4-8c-2.5-2.7-5-5.3-7.5-8c-2.5-2.7-5-5.4-7.3-8.3c-0.6-0.7-1.1-1.5-1.7-2.3c-0.6-0.9-0.9-1.7-1.3-2.6
			c-0.8-1.7-1.4-3.4-2.1-5.2c-0.6-1.8-1.2-3.5-1.6-5.4c-0.2-0.9-0.4-1.9-0.5-2.8l-0.1-0.8l0-0.7c0-0.5,0-0.9,0-1.3
			c-0.1-1.7-0.7-3.3-1.5-4.9c-0.8-1.6-1.7-3.3-2.3-5.1c-0.3-0.9-0.6-1.9-0.7-2.9c0-0.5-0.1-1-0.1-1.5c0-0.3,0-0.5,0-0.7l0.1-0.7
			l0.3-5.5c0.1-1.8,0.3-3.7,0.5-5.5c0.1-0.9,0.3-1.9,0.5-2.8c0.1-0.5,0.3-0.9,0.5-1.4c0.2-0.5,0.5-1,1-1.5l-0.3,1
			c-1.5-4.5-0.9-9.2-2.1-13.3c-1.1-4.1-4.3-7.5-6.4-11.6c-2-4.1-3.2-8.5-4.5-12.8c-1.3-4.2-2.9-8.4-5.4-12c-1.2-1.8-2.7-3.5-4.1-5.2
			c-1.5-1.7-3-3.3-4.6-4.8c-3.2-3-6.7-5.8-10.5-8.2c-3.7-2.4-7.8-4.3-12-5.7c-4.2-1.4-8.6-2.3-13-2.6c-4.4-0.3-8.9-0.1-13.3,0.7
			c-4.4,0.7-8.7,2-12.8,3.7c-4.1,1.7-8.1,3.7-11.9,6.1c-3.8,2.4-7.5,4.9-11.2,7.5c-3.6,2.6-7.2,5.3-10.6,8.2
			c-3.4,2.9-6.6,6.1-9.1,9.8c-1.3,1.8-2.1,3.9-2.7,6.1c-0.6,2.2-1,4.4-1.3,6.6c-0.3,2.2-0.6,4.4-0.8,6.7l-0.3,3.3l0,0.4
			c0,0.1,0,0.1-0.1,0.2c-0.1-0.1,0-0.1-0.1-0.2c0-0.3,0-0.6-0.1-0.8L1033.2,107.7z"/>
	</g>
	<g>
		<path class="st2" d="M1109.7,115.8c-3.5,0.9-9,4.8-12.3,6.1c-2.6,1-5.3,2-7.5,3.7c-1.8,1.3-3.2,3.1-4.5,4.9
			c-3.8,5.8-5.5,12.9-5.5,19.8c0,4.5,0.6,8.9,1.2,13.4c0.5,3.8,1,7.6,1.5,11.4c2.9-1.1,5.6-2.8,7.9-4.9c0.3-0.3,0.7-0.7,0.7-1.2
			c0-0.6-0.6-1-1.1-1.3c-2.6-1.9-2.9-5.6-2.9-8.8c0-3.2,0-6.4,0.8-9.4c0.9-3,2.8-5.9,5.7-7.2c-1.7-0.6-2.6-2.6-2.5-4.4
			c0.1-1.8,1.1-3.5,2.3-4.8c4.3-4.9,7.5-6.4,14-7.3c1.7-0.3,14.5,4.6,16.3,4.4c-0.5-0.6-8.6-6.9-9.2-7.5
			C1112,120,1113.3,114.9,1109.7,115.8z"/>
		<path class="st2" d="M1205.2,209.6c-2.3-6-2.9-0.3-3.4-6c-0.1-0.2-6.7-0.3-3.4-3.7c-3.3-1.2-32.2-29.6-26.8-47.1
			c-2.9-6.3-4.7-9.4-3.7-15.9c-0.4-1.5-0.8-3-1.2-4.5c-2.2-9-3.2-18.2-4.4-27.4c-0.2-1.8-0.5-5.3-0.2-1.5c-0.2-2.3-0.7-4.7-1.2-7
			c-0.8-3.9-1.8-7.7-3.1-11.4c-9.5-3.2-21.6-5.4-27.6-6.8c-15.8-3.8-24.8-2.7-36.3,9c2.4-0.7,4.7-1.5,7.1-2.3l-4,1.7
			c-1.4,0.6,4.7,17.7,5.5,19.6c2,4.3,4.7,8.2,7.7,11.8l4.1,4.6c-1.1,0,2.6,1.7,1.6,1.8c9.2,11.7,3.4,27.7,13.8,36.9
			c-1.7,0.7-1.7,1.9-3.5,2.7c10,0.3,7.4,11.7,6.9,20c7.6,1.4,14.6,9.3,3.3,19.1c-9.1,7.9,6.8,14.2-24.7,16.3
			c17.1,32.6,52.6-40.4,55.4-17.4c3.8,31.2,26.1,24.8,25.7,43.5c2.6-2.9,4.9-5.7,6.8-8.5c1.8-4.7,3.4-9.4,4.4-14.4
			c0.4-1.8,1-3.5,1.9-5c0.2-0.7,0.4-1.5,0.6-2.2C1206.4,213.3,1205.9,211.5,1205.2,209.6z"/>
	</g>
</g>
<g id="Слой_6">
	<g>
		<defs>
			<polygon id="XMLID_13_" points="0,473 1758,473 1758,665.6 3.3,661.1 			"/>
		</defs>
		<use xlink:href="#XMLID_13_"  style="overflow:visible;fill:#A97E57;"/>
		<clipPath id="XMLID_23_">
			<use xlink:href="#XMLID_13_"  style="overflow:visible;"/>
		</clipPath>
		<path class="st3" d="M1491,447.1c-1.4-12.1-10.3-21.2-23.8-18.4c-9.1,1.9-18.3,3.4-27.6,4.6c-0.7,0.1-5.3,0.6-5.5,0.7
			c-2,0.2-4,0.4-6,0.6c-4.5,0.4-9,0.8-13.5,1.2c-19.1,1.4-38.2,1.5-57.3,2.2c-2.7,0.1-5.4,0.3-8.1,0.5c-2.9-5.3-7.8-9.2-14.6-8.6
			c-19.2,1.7-38.5,2.7-57.6,4.9c-2.8-2.4-6.5-4.1-11-4.4c-22-1.5-45.4-1.6-65.4,7c-14.4,1-28.8,2.2-43.1,4.4
			c-12.9,2-25.7,4.5-38.6,6.6c-2.4-6.8-7.7-12.3-16.4-12.4c-16.8-0.3-33.2,2.3-49.2,6.4c-3-4.7-7.8-8.1-14.5-8.5
			c-13.3-0.7-26.5,0.2-39.4,2.3c-2.9-4.4-7.6-7.5-14.3-8.3c-2.3-0.2-4.6-0.4-6.9-0.4c-40.3-1.5-80.3,9-119.3,17.2
			c-42.8,9.1-21,83.6-15.8,83.1c22-2,42.8-7.5,63.3-14.2c2.9,5.5,8.2,9.7,15.3,9.8c31.4,0.8,61.3-8.9,90.4-18.9
			c8.5-2.9,16.9-5.8,25.4-8.5c2.8,2.4,6.5,4.2,11.4,4.8c36.9,4.9,73.9-4.8,110.1-10.5c3.4-0.5,6.8-1,10.3-1.5c0.2,0,4.7-0.5,5.4-0.6
			c1.9-0.2,3.8-0.3,5.7-0.5c2-0.2,4.1-0.3,6.1-0.4c0.6,0.3,1.1,0.5,1.7,0.7c17.9,6.4,38,3.7,56.8,0.4c2,3,4.8,5.5,8.5,6.6
			c17.2,5.1,35,2.8,52.4-0.3c8.4-1.5,16.8-3.2,25.2-4.8c4-0.7,8-1.4,12-2c0,0,0.1,0,0.1,0c0.4,0,0.8-0.1,1.3-0.1
			c1.6-0.1,3.1-0.2,4.7-0.3c40.8-1.5,81.3-2.5,121.4-10.7C1483.5,474.4,1492.4,458.8,1491,447.1z M1087.8,486.1
			c0.5-0.1,1.8-0.1,2.4-0.3c0,0,0.1,0,0.1,0C1089,486.7,1087.4,486.4,1087.8,486.1z"/>
		<use xlink:href="#XMLID_13_"  style="overflow:visible;fill:none;stroke:#000000;stroke-width:2;stroke-miterlimit:10;"/>
	</g>
	<path class="st4" d="M1180.3,561.8c3.4,1,7.3,1.6,10.4-0.2c2.9-1.6,12.6-9,14.9-11.3c28.1-28.4,38.4-25.3,49.5-49.5
		c-31.1-9.9-29.8,10-43,19.7c-13.3,9.8-25.8,24.6-42.3,24.5c-6.5,0-18.8,0.3-11.6,4.5C1171,557,1174.9,560.3,1180.3,561.8z"/>
	<path class="st4" d="M955,589.4c12.1,2.1,35.4,8.7,35.4,8.7s57.6-37.5,79.7-63c-5.9-3-14.5-18.2-20.2-14.7
		c-5.7,3.5-8.7,24.1-13.7,28.5c-21.4,19.2-51.6,25.9-80.3,24.5c-28.7-1.4-56.5-10-84-18.2c-20.6-6.1-41.5-12.1-62.9-14.7
		c-8-0.9-22.9-4.3-30.3,0.1c-5.2,3.1-2.9,12.4,12.3,16.8c25,7.3,72.8,13,94,17.8C908.2,580.6,931.6,585.3,955,589.4z"/>
	<path class="st4" d="M1240.2,554.2c19.2-2.9,34.2-17.5,47.9-31.4c6.7-6.8,13.3-13.5,20-20.3c1.6-1.6,3.2-3.3,3.8-5.5
		c0.8-2.8-0.5-5.1-3.1-5.9c-3.7,12.1-19.6,23-29.1,31.5C1267,533.7,1253.9,544.3,1240.2,554.2z"/>
	<path class="st4" d="M1471.1,587.6c5.2-47.1,19.5-70.6,7-113.7c-8,0-10.1,0.1-53.7-2.9c-35.8-2.5-27.9,17.3-40.5,33.4
		c-13.3,17-28.1,32.7-44.1,47.1c-7.2,6.4-42.8,29.9-18,30.1C1370.9,582.1,1420,581.5,1471.1,587.6z"/>
</g>
<g id="Слой_10">
	<g>
		<defs>
			<path id="XMLID_11_" d="M1370.8,379.4c-2.7-6.8-3.4-41.5-6.8-48c-8.7-16.9-15.3-18.5-18.5-28.7c-5.5-17.6-1.5-38.1-14.5-51.3
				s-54.1-15.8-69.8-25.6c-5.8-3.6-12.3-7.4-19.1-6.4c-4.8,0.7-8.9,3.8-12.9,6.6c-23.8,16.7-64.9,43.5-94.7,32.6
				c-14.2-5.2-27.6-18.7-42-23.3c-17.7-5.7-36.4,0.8-52.1,9.1c-24.9,13.3-50.1,29.5-47.2,64.5c0.7,8.6,4,28.7-0.7,35.9
				c-20.5,31.4-12,48.6-12.9,64.9c-0.9,16.4-38.2,4.7-54.2,17.8c-31.8,26.1-3.4,34.6-10.3,43.7c1.1,0.1-3.9-0.9,0,0
				c1.8,0.4-1.8,9.2,0,9.6c6.2,0.2,24.2,13.4,30.4,13.4c20.5,0,46.5,1.3,82.6-21.6c3.2-4,8.4-21.5,11.9-25.3c3.8-4.1,0,0,4.4,3.6
				c3.2,6.6,0.1,14-2.7,21.1c1.7-0.5,3.5-0.7,5.3-0.7c4.4,0.1,54.9,2,78.4-0.4c56.3,2.8,44.8,1,101.8,1.1c18.9,0,86-1,87.7-1l56-1
				c0,0-9.8-20.5-2.2-30.7C1381.1,422.8,1375.8,391.8,1370.8,379.4z"/>
		</defs>
		<use xlink:href="#XMLID_11_"  style="overflow:visible;fill:#0F84F7;"/>
		<clipPath id="XMLID_24_">
			<use xlink:href="#XMLID_11_"  style="overflow:visible;"/>
		</clipPath>
		<path class="st5" d="M1384.6,384c-0.9-25.2,1.6-51.5-5.7-75.9c-3.7-12.6-9.4-24.1-15.9-35.4c-17-29.9-65.8-53.3-101.1-45.9
			c-13.1,2.7-86.1,16.3-84.4,30.8c5.4,1.7,43.3-3.9,80.6-5.2c27.9-15.6,61.1-3.7,63,18.5c0.8,9.5,11.2,31.8-1.4,51.3
			c-5.3,8.2,29,2.2,17.1,70.1c22.8,15.7-5.4,55.8-27,52.8c-0.3-22.4-17.2-21.1-33.2-28.8c14.1-19.2,21.8-19.1,19-22.7
			c-27.7-35.5-3-59.9-3-59.9s-29.6,0.4-28.5-42.3c-21.2,34.4,14.4,94.6-30.3,103c-18.7,3.5-46-9.9-63.1-16.9
			c-17.2-7.1-13-10.9-32.1-1.8c-13.1,6.2-17.4,14.5-33.3,10.8c-10-2.3-20.2-13.3-25.8-21.6c-6.7-10-10.1-19.6-12-29.7
			c0.2-9.2,1.3-19.5,2.9-29.6c-1.1,0.6-2.2,1.3-3.2,2c-0.4,0.2-0.6,0.4-0.9,0.6c-0.1,0.1-0.1,0.1-0.2,0.1c-0.3,0.2-0.6,0.5-0.9,0.8
			l1.4,19.3c-0.8-6.1-1.1-12.4-1.5-19.2c-1.9,1.7-4.5,4.1-4.7,4.4c-0.9,0.9-1.7,1.8-2.6,2.8c0,0-0.1,0.1-0.1,0.1c-0.3,1-1,1.6-1,1.4
			c-0.6,0.8-1.3,1.6-1.5,2c-0.8,1.2-1.6,2.5-2.3,3.7c-2.7,4.6-6.9,7.7-11.5,9.2c10.4,42.5,2.7,56.2-9,63.4
			c-6.8,4.2-9.6,12.7-21.8,15.9c-2.4,0.6,7.7,5,7.4,8.8c-0.6,7.3-8,14.1-13.3,19.5c-16.3,16.7-85.5,70.6-22.9,72.4
			c35,1,112.6-26.2,86.3-50.4c-3.2-2.9-0.7-10.4,0.9-17c3.7,16.4,16.5,34.1,35.4,29.6c-0.1,0.7-1.7,1.2-1.7,1.7
			c12.1,0.2,10.1,39.4,14.9,19.1c4.2-17.5-45.1-98.1,40.5-109.5c12.1-1.6,26,3.7,38.3,4c19.7,0.5,34-12.1,52.8-17.5
			c2.9,16.4-20.2,40.1-33.4,47.2c2,0.5-3.4,17.6-0.6,18.3c-3.8,22.3,15.6,12.7,36.8,30.4c9.2,7.6,17.2,7.5,27.2,14.3
			c0.5-5.8,2.3-10.6,5.1-14.7c23.2,18,95.7-5.4,103-35.8C1390.2,419.5,1385,396,1384.6,384z"/>
		<use xlink:href="#XMLID_11_"  style="overflow:visible;fill:none;stroke:#000000;stroke-width:2;stroke-miterlimit:10;"/>
	</g>
	<g>
		<path class="st6" d="M1241.8,552.4l13.2-18.7l52.3-44.6c0,0,3.9-1.7,3.9,3.7c0,5.4-51,48.8-51,48.8L1241.8,552.4z"/>
		<path class="st7" d="M1241.8,552.4l13.1-18.9l0,0l0,0l26-22.4l26.1-22.3l0.1-0.1l0.1,0c0.9-0.3,1.8-0.4,2.8,0
			c0.9,0.5,1.4,1.4,1.6,2.3c0.1,0.4,0.2,0.9,0.2,1.3c0,0.2,0,0.4,0,0.7c0,0.2-0.1,0.5-0.2,0.7c-0.4,0.8-0.9,1.5-1.3,2.2
			c-1,1.3-2.1,2.5-3.2,3.7c-1.1,1.2-2.2,2.4-3.4,3.5c-4.6,4.6-9.3,9-14.1,13.3c-4.8,4.4-9.6,8.6-14.5,12.9
			c-4.9,4.2-9.8,8.5-14.7,12.6l0,0l0,0L1241.8,552.4z M1241.8,552.4l18.3-11l0,0c4.9-4.2,9.7-8.5,14.5-12.8c4.8-4.3,9.6-8.6,14.4-13
			c4.7-4.4,9.5-8.8,14-13.4c1.1-1.1,2.2-2.3,3.3-3.5c1.1-1.2,2.2-2.4,3.1-3.7c0.5-0.6,0.9-1.3,1.2-1.9c0-0.1,0.1-0.2,0.1-0.5l0-0.5
			c0-0.4-0.1-0.7-0.1-1.1c-0.2-0.7-0.5-1.3-1.1-1.6c-0.5-0.3-1.3-0.2-1.9,0l0.1-0.1l-26.2,22.2l-26.3,22.1l0,0L1241.8,552.4z"/>
	</g>
	<g>
		<defs>
			<path id="XMLID_6_" d="M1082.9,320.4l25-17.4c0,0,8.7,5.3,47.6,6.1c38.9,0.7,68.7-7.4,68.7-7.4l30,18.3c0,0,11.4,54.5-9.3,85.1
				c-9.5,14-87.7,64.9-92.7,61.1c-20.1-15.2-42.8-36.3-64-69.4C1076.3,378.4,1082.9,320.4,1082.9,320.4z"/>
		</defs>
		<use xlink:href="#XMLID_6_"  style="overflow:visible;fill:#DFAF4A;"/>
		<clipPath id="XMLID_25_">
			<use xlink:href="#XMLID_6_"  style="overflow:visible;"/>
		</clipPath>
		<path class="st8" d="M1146.9,409.7c4.6-1.1,9-3,12.9-5.8c2.9-2.1,3-2.9,2.4-3.9c-1.6-2.9-5.3-3.9-8.3-2.5
			c-11.4,5.3-19.1,5.7-33.8,7.2c-17.1,1.8-35.3-2.3-48-13.9c8.7,8,14.4,18.9,26.6,22.8C1113,418.1,1134.6,412.6,1146.9,409.7z"/>
		<use xlink:href="#XMLID_6_"  style="overflow:visible;fill:none;stroke:#000000;stroke-width:2;stroke-miterlimit:10;"/>
	</g>
	<g>
		<path d="M1064.3,421.3c0,0-0.1-1.1-0.1-3.1c-0.1-2-0.2-4.8-0.3-8.2c-0.2-6.8-0.5-15.8-0.8-24.9c-0.1-2.3-0.1-4.5-0.1-6.8
			c-0.1-2.2-0.1-4.4-0.1-6.6c0-2.1,0-4.2,0.1-6.1c0.1-2,0.1-3.8,0.3-5.5c0.1-0.9,0.1-1.7,0.2-2.4c0.1-0.8,0.2-1.5,0.3-2.2
			c0.1-1.4,0.4-2.6,0.6-3.5c0.2-1,0.4-1.7,0.5-2.2c0.1-0.5,0.2-0.8,0.2-0.8s-0.1,1.1-0.3,3.1c-0.1,1-0.2,2.2-0.2,3.6
			c0,1.4-0.1,2.9-0.1,4.6c0,1.7,0,3.5,0.1,5.5c0.1,1.9,0.1,4,0.2,6.1c0.1,4.2,0.3,8.8,0.4,13.3c0,2.3,0.1,4.5,0.1,6.8
			c0,2.2,0,4.4,0.1,6.5c0,4.2-0.1,8.2-0.2,11.6c-0.1,3.4-0.3,6.2-0.5,8.2C1064.4,420.2,1064.3,421.3,1064.3,421.3z"/>
	</g>
	<g>
		<path class="st7" d="M1123.1,224.6c0,0,0,0.2,0,0.7c0,0.2,0,0.5,0.1,0.8c0,0.3,0.1,0.6,0.2,1c0.1,0.3,0.2,0.7,0.3,1.1
			c0.1,0.4,0.3,0.8,0.5,1.2c0.2,0.4,0.4,0.8,0.7,1.2c0.2,0.4,0.5,0.8,0.8,1.1c0.3,0.3,0.6,0.7,1,1c0.3,0.3,0.7,0.6,1,0.9
			c0.4,0.2,0.7,0.5,1.1,0.7c0.4,0.2,0.7,0.4,1,0.5c0.3,0.2,0.6,0.3,0.9,0.4c0.3,0.1,0.5,0.2,0.7,0.2c0.4,0.1,0.7,0.2,0.7,0.2
			s-0.2,0-0.7,0c-0.2,0-0.5,0-0.8,0c-0.3,0-0.7-0.1-1-0.2c-0.4-0.1-0.8-0.2-1.2-0.4c-0.4-0.2-0.8-0.4-1.2-0.6
			c-0.4-0.3-0.8-0.5-1.2-0.9c-0.4-0.3-0.7-0.7-1.1-1.1c-0.3-0.4-0.6-0.8-0.9-1.3c-0.3-0.4-0.5-0.9-0.7-1.3c-0.2-0.5-0.3-0.9-0.4-1.3
			c-0.1-0.4-0.2-0.8-0.2-1.2c0-0.4,0-0.7,0-1c0-0.3,0-0.6,0.1-0.8C1123.1,224.8,1123.1,224.6,1123.1,224.6z"/>
	</g>
	<g>
		<path class="st7" d="M1153.3,186.6c0,0,0,0.3,0.1,0.7c0,0.5,0.1,1.2,0.2,2.1c0.1,1.8,0.3,4.4,0.5,7.5c0.1,3.1,0.3,6.8,0.4,10.7
			c0.1,3.9,0.1,8.1,0.2,12.2c0,4.2,0,8.3-0.1,12.2c0,3.9-0.2,7.5-0.3,10.7c-0.1,1.6-0.2,3-0.3,4.3c-0.1,1.3-0.2,2.4-0.3,3.3
			c-0.1,0.9-0.2,1.6-0.3,2.1c-0.1,0.5-0.1,0.7-0.1,0.7s0-0.3,0.1-0.7c0-0.5,0.1-1.2,0.2-2.1c0-0.9,0.1-2,0.1-3.3
			c0-1.3,0-2.7,0.1-4.3c0.1-3.1,0-6.8,0-10.6c0-3.9,0-8.1-0.1-12.2c0-4.2-0.1-8.3-0.1-12.2c0-3.9-0.1-7.5-0.1-10.7
			c0-3.1-0.1-5.7-0.1-7.5C1153.3,187.7,1153.3,186.6,1153.3,186.6z"/>
	</g>
	<g>
		<path class="st7" d="M1077,407.1c0,0-0.1,0.5-0.2,1.5c-0.1,0.5-0.1,1-0.2,1.7c-0.1,0.7-0.1,1.4-0.2,2.2c-0.1,0.8-0.1,1.7,0,2.6
			c0,0.9,0.1,1.9,0.1,2.9c0.1,1,0.2,2,0.4,3.1c0.1,1,0.4,2.1,0.6,3.1c0.3,1,0.5,2.1,0.9,3.1c0.3,1,0.7,2,1,2.9
			c0.4,0.9,0.7,1.8,1.2,2.7c0.4,0.8,0.8,1.6,1.2,2.3c0.4,0.7,0.8,1.3,1.1,1.9c0.3,0.6,0.7,1,0.9,1.4c0.5,0.8,0.8,1.2,0.8,1.2
			s-0.4-0.4-1-1.1c-0.3-0.4-0.7-0.8-1.1-1.3c-0.2-0.3-0.4-0.5-0.7-0.8c-0.2-0.3-0.4-0.6-0.7-1c-0.5-0.7-0.9-1.4-1.4-2.3
			c-0.5-0.8-0.9-1.7-1.3-2.6c-0.4-1-0.8-1.9-1.1-3c-0.4-1-0.6-2.1-0.9-3.1c-0.2-1.1-0.5-2.1-0.6-3.2c-0.2-1.1-0.2-2.1-0.3-3.2
			c0-1-0.1-2,0-3c0-0.9,0.1-1.8,0.2-2.6c0.1-0.4,0.1-0.8,0.1-1.2c0.1-0.4,0.1-0.7,0.2-1c0.1-0.7,0.2-1.2,0.4-1.7
			C1076.8,407.6,1077,407.1,1077,407.1z"/>
	</g>
	<path class="st9" d="M1160.2,394.1c34.8,11.5,53,19,84,5.9c1.1,10.4-15.3,14-33.1,13.8s-35-6-51.7-12.3c0.2-2.8,0.3-5.7,0.5-8.5"/>
	<path class="st10" d="M1077,459.8c1.4,3,5.6,11.2,5.6,11.2s12.9,0,20.8-0.7c-3.9-12.1-10.7-20.8-18.7-30.7
		c-4.1-5-8.3-20.7-8.7-27.2c-1.5-21.4-13.2-57.4-11-63.5c-1.2,3.1-6.6,37.9-9,65.6c-2,23.1-22.4,47.6-21.6,52.1
		C1036.4,477.4,1072.4,449.9,1077,459.8z"/>
	<path class="st9" d="M1141.2,445.7c-4,0-7.4-3.7-10.3-6c8.3-2.4,24.1-8.4,32.5-7.2C1161.8,438.5,1147.3,445.8,1141.2,445.7z"/>
	<path class="st10" d="M1275.3,390.8c-0.9,9.6-1.7,19.3-2.6,28.9c7.8-9.7,3.9-3.4,17.6-21.5c1.2-1.5,3.2-2.5,3.6-4.4
		c0.4-2.3,2,1.4,0,0c-13.8-9.7-14.5-32.4-10.6-57.6c0,1.7-3.2,29.7-3.8,31c-1.1,2.2-1.7,4.5-2.2,7.1
		C1276.3,379.7,1275.8,385.2,1275.3,390.8z"/>
	<path class="st10" d="M1129.3,447.9c-2.9,1,1.1,10.5-1.8,9.7c-2.9-0.9-16.4-13.3-13.7-14.6c11.6-5.3,20.3-1.5,20.9,3.7
		C1132,447.2,1132,447,1129.3,447.9z"/>
	<g>
		<path d="M1372,356.8c0,0-0.1,0.6-0.3,1.6c-0.2,1-0.4,2.5-0.7,4.3c-0.3,1.8-0.7,3.9-1.2,6.1c-0.2,1.1-0.5,2.3-0.8,3.4
			c-0.3,1.2-0.6,2.3-0.9,3.5c-0.3,1.2-0.6,2.3-1,3.5c-0.3,1.1-0.7,2.3-1,3.3c-0.7,2.2-1.4,4.2-2.2,5.8c-0.4,0.8-0.7,1.6-1.1,2.3
			c-0.4,0.7-0.7,1.2-1,1.7c-0.3,0.4-0.6,0.8-0.8,0.9c-0.2,0.2-0.4,0.3-0.4,0.3s0.1-0.1,0.3-0.3c0.2-0.2,0.3-0.6,0.6-1.1
			c0.4-1,0.9-2.4,1.4-4.1c0.5-1.7,1-3.8,1.6-5.9c0.6-2.2,1.2-4.5,1.8-6.8c0.3-1.2,0.6-2.3,0.9-3.5c0.3-1.1,0.6-2.3,0.9-3.4
			c0.6-2.2,1.2-4.2,1.8-5.9c0.6-1.7,1.1-3.2,1.5-4.1C1371.7,357.3,1372,356.8,1372,356.8z"/>
	</g>
	<g>
		<path d="M1350,297.7c0,0,0.1,0.3,0.2,0.9c0,0.3,0.1,0.6,0.1,1c0,0.4,0.1,0.8,0,1.3c0,1-0.1,2.1-0.4,3.3c-0.2,0.6-0.3,1.2-0.5,1.8
			c-0.2,0.6-0.4,1.2-0.7,1.8c-0.3,0.6-0.6,1.2-0.9,1.7c-0.3,0.6-0.7,1.1-1,1.6c-0.7,1-1.5,1.9-2.2,2.5c-0.3,0.3-0.7,0.6-1,0.9
			c-0.3,0.3-0.6,0.5-0.8,0.6c-0.5,0.3-0.8,0.5-0.8,0.5s0.2-0.3,0.5-0.8c0.3-0.5,0.7-1.1,1.2-1.9c0.2-0.4,0.5-0.8,0.8-1.3
			c0.3-0.5,0.5-1,0.8-1.4c0.5-1,1.1-2.1,1.6-3.2c0.5-1.1,0.9-2.2,1.3-3.3c0.2-0.5,0.4-1.1,0.5-1.6c0.2-0.5,0.3-1,0.4-1.4
			c0.3-0.9,0.5-1.6,0.6-2.2C1349.9,298,1350,297.7,1350,297.7z"/>
	</g>
	<path class="st11" d="M1029.5,272.7c16.8-11.7,35.9-20.3,55.8-25.1c7.1-1.7,14.4-2.9,21.7-2c6.1,0.7,14.8,3.5,17.8,9.2
		c-14.9,2.8-31,1.7-46.2,4.4C1061.8,262.2,1045.4,266.7,1029.5,272.7z"/>
</g>
<g id="Слой_11">
	<g>
		<defs>
			<path id="XMLID_14_" d="M1057.7,504l-11.1,8c10.4,2.8,16.1,4.2,20,5.2c10.3,2.7,20.6,5.4,30.9,8.1c13.9,3.6,27.8,7.3,41.7,10.9
				l48.5,19.4c0,0,62.3-48.7,62.3-55.5c0-3.5,0.8-4.9-5.3-5.9c-15.8-2.5-62.5-4.7-88.5-8.9c-8.5-1.4-14.4,4.7-22.6,8.9
				c-8.6,4.4-30.8,18.5-30.8,18.5s-22.4-1.3-46.8-8l-9.2,7.3c0,0,0.4,0.1,1.2,0.3"/>
		</defs>
		<use xlink:href="#XMLID_14_"  style="overflow:visible;fill:#9C9C9C;"/>
		<clipPath id="XMLID_26_">
			<use xlink:href="#XMLID_14_"  style="overflow:visible;"/>
		</clipPath>
		<path class="st12" d="M1280.5,495.7c-2.2-3.3-6.5-3-9.1-0.4c-2,2-4.1,3.9-6.2,5.7c0.5-2.4,0.2-4.9-1.6-7c-2.2-2.6-4.6-3-7.6-1.6
			c-2.1,1-3.6,2.8-4.8,4.8c-0.4,0.8-0.7,1.5-1.1,2.3c-0.1,0.2-0.1,0.3-0.2,0.4c-0.2,0.1-0.3,0.3-0.5,0.4c-3.9,3.4-7.6,7-11.5,10.5
			c-7.4,6.8-16.2,11.5-24.6,16.9c-1.2,0.7-2.1,1.8-2.7,3c-0.5,0.5-1,1-1.4,1.5c-1.4,0.9-2.8,1.8-4.4,2.6c-4.2,2-7.8,4.4-11.5,7.2
			c-1.8,1.3-3.6,2.2-5.5,3.2c-1.4,0.7-2.9,2.3-4,2.8c-7.4,3.5-4.8,18.1,4.3,13.8c1.5-0.7,2.6-2,4-2.8c1.7-1,3.4-1.7,5-2.8
			c1.8,0.8,4,0.6,6.5-1.5c6.1-5.1,12.8-8.5,19.4-12.8c3.2-2,6.4-4,9.5-6.2c0.2-0.1,0.4-0.2,0.5-0.2c4.1-1.7,8-2.6,11.8-5
			c3.7-2.3,7.8-3.6,11.5-6.1c8.1-5.4,15.3-10.9,22.2-17.8C1281.4,504,1282.7,499.1,1280.5,495.7z"/>
		<use xlink:href="#XMLID_14_"  style="overflow:visible;fill:none;stroke:#000000;stroke-miterlimit:10;"/>
	</g>
	<g>
		<defs>
			<polygon id="SVGID_1_" points="988.1,590.4 1066.3,536.6 1067.4,522.7 904.6,485.8 964.9,584.6 			"/>
		</defs>
		<use xlink:href="#SVGID_1_"  style="overflow:visible;fill:#5C5C5C;"/>
		<clipPath id="SVGID_2_">
			<use xlink:href="#SVGID_1_"  style="overflow:visible;"/>
		</clipPath>
		<g class="st13">
			<polyline class="st14" points="1067.4,522.7 989.1,573.6 820,536.1 818,503.6 1037.7,542 989.1,573.6 			"/>
			<polygon points="1067.4,522.7 989.3,573.8 989.2,573.9 989.1,573.8 819.9,536.6 819.5,536.5 819.5,536.1 817.5,503.6 817.5,503 
				818.1,503.1 1037.8,541.8 1038.2,541.9 1037.8,542.1 989.1,573.6 1037.6,541.8 1037.7,542.2 817.9,504.1 818.5,503.6 
				820.5,536.1 820.1,535.7 989.2,573.3 989,573.3 			"/>
		</g>
		<use xlink:href="#SVGID_1_"  style="overflow:visible;fill:none;stroke:#000000;stroke-miterlimit:10;"/>
	</g>
	<g>
		<defs>
			<path id="SVGID_3_" d="M1094.8,511l-39-6.3l90.2,24.7l40.2,8.2c0,0,65.4-43.4,60.1-43.4c-5.3,0-26.7-4.8-32.9-5.8
				c-15.8-2.5-24.5-5.7-50.6-9.9c-8.5-1.4-16.6,5.8-24.7,10C1123.6,496.1,1109.2,503.6,1094.8,511z"/>
		</defs>
		<use xlink:href="#SVGID_3_"  style="overflow:visible;fill:#5C5C5C;"/>
		<clipPath id="SVGID_4_">
			<use xlink:href="#SVGID_3_"  style="overflow:visible;"/>
		</clipPath>
		<g class="st15">
			
				<rect x="1144.3" y="429.1" transform="matrix(0.2297 -0.9733 0.9733 0.2297 387.417 1514.7512)" class="st16" width="12.7" height="167.1"/>
			<path d="M1230.5,538l-40.7-9.4l-40.7-9.5l-81.3-19l-0.5-0.1l0.1-0.5l2.9-12.4l0.1-0.5l0.5,0.1l81.3,19.3l40.6,9.7l40.6,9.8l0.1,0
				l0,0.1L1230.5,538z M1230.5,538l2.9-12.4l0.1,0.1l-40.7-9.4l-40.7-9.5l-81.3-19l0.6-0.4l-2.9,12.4l-0.4-0.6l81.3,19.3l40.6,9.7
				L1230.5,538z"/>
		</g>
		<g class="st15">
			
				<rect x="1158.6" y="409.2" transform="matrix(0.2297 -0.9733 0.9733 0.2297 417.8264 1513.4312)" class="st16" width="12.7" height="167.1"/>
			<path d="M1244.9,518.1l-40.7-9.4l-40.7-9.5l-81.3-19l-0.5-0.1l0.1-0.5l2.9-12.4l0.1-0.5l0.5,0.1l81.3,19.3l40.6,9.7l40.6,9.8
				l0.1,0l0,0.1L1244.9,518.1z M1244.9,518.1l2.9-12.4l0.1,0.1l-40.7-9.4l-40.7-9.5l-81.3-19l0.6-0.4l-2.9,12.4l-0.4-0.6l81.3,19.3
				l40.6,9.7L1244.9,518.1z"/>
		</g>
		<g class="st15">
			<path d="M1121,512c0,0,0.7-0.6,2.1-1.6c1.3-1,3.2-2.4,5.5-4c2.3-1.6,5-3.6,7.9-5.6c2.9-2,6-4.1,9.2-6.2c3.2-2,6.3-4.1,9.3-5.9
				c3-1.8,5.9-3.5,8.4-4.8c2.5-1.3,4.7-2.3,6.2-2.8c0.8-0.3,1.4-0.4,1.9-0.4c0.5,0,0.6,0.3,0.6,0.3c0,0-0.2-0.2-0.6-0.2
				c-0.4,0-1.1,0.2-1.8,0.5c-1.5,0.6-3.6,1.7-6,3.1c-2.4,1.4-5.2,3.2-8.2,5c-3,1.9-6.1,3.9-9.3,6c-3.2,2-6.3,4.1-9.2,6.1
				c-2.9,1.9-5.7,3.8-8,5.3C1124.1,509.9,1121,512,1121,512z"/>
		</g>
		<g class="st15">
			<path d="M1154,518c0,0,0.6-0.6,1.7-1.7c1.1-1,2.7-2.6,4.8-4.2c2.1-1.6,4.5-3.5,7.3-5.3c2.7-1.8,5.7-3.7,8.7-5.6
				c0.7-0.5,1.5-0.9,2.2-1.4c0.7-0.5,1.4-1,2.1-1.5c1.4-1,2.7-2.1,4-3.1c2.6-2,5.1-3.9,7.2-5.4c2.2-1.5,4.1-2.6,5.5-3.2
				c0.3-0.2,0.7-0.3,1-0.4c0.3-0.1,0.5-0.2,0.7-0.2c0.4-0.1,0.6-0.1,0.6-0.1s-0.2,0.1-0.6,0.1c-0.2,0-0.4,0.1-0.7,0.2
				c-0.3,0.1-0.6,0.2-0.9,0.4c-1.4,0.7-3.2,1.9-5.3,3.5c-2.1,1.6-4.4,3.6-7,5.6c-1.3,1-2.6,2.1-4,3.1c-1.4,1.1-2.9,2-4.4,3
				c-3,1.9-6,3.7-8.8,5.4c-1.4,0.9-2.7,1.8-4,2.6c-1.2,0.9-2.4,1.7-3.5,2.5c-1,0.8-2,1.5-2.9,2.2c-0.8,0.7-1.6,1.2-2.2,1.7
				C1154.7,517.4,1154,518,1154,518z"/>
		</g>
		<g class="st15">
			<path d="M1181,524c0,0,0.5-0.7,1.5-1.9c1-1.1,2.4-2.8,4.2-4.6c1.8-1.8,4-3.9,6.3-6.1c2.4-2.2,5-4.4,7.6-6.6
				c2.7-2.2,5.4-4.3,8-6.1c2.6-1.9,5.2-3.5,7.4-4.8c1.1-0.6,2.2-1.2,3.1-1.6c1-0.4,1.8-0.8,2.5-1c0.4-0.1,0.7-0.2,1-0.2
				c0.3-0.1,0.5-0.1,0.7-0.1c0.4,0,0.6,0,0.6,0s-0.2,0-0.6,0.1c-0.4,0.1-1,0.2-1.7,0.5c-0.7,0.2-1.5,0.6-2.4,1.1
				c-0.9,0.5-1.9,1.1-3,1.8c-1.1,0.7-2.2,1.4-3.4,2.3c-1.2,0.8-2.4,1.8-3.7,2.7c-2.6,1.9-5.2,4-7.9,6.2c-2.7,2.1-5.3,4.3-7.7,6.5
				c-2.4,2.1-4.7,4.1-6.5,5.8c-1.9,1.8-3.4,3.2-4.5,4.3C1181.6,523.4,1181,524,1181,524z"/>
		</g>
		<use xlink:href="#SVGID_3_"  style="overflow:visible;fill:none;stroke:#000000;stroke-miterlimit:10;"/>
	</g>
	<g>
		<defs>
			<path id="XMLID_8_" d="M753,375.7l213.3,31.5c0,0,25.6,151.6,24.1,158c-1.6,6.4-2.2,25.2-2.2,25.2l-208.3-42.9l3.8-21L753,375.7z
				"/>
		</defs>
		<use xlink:href="#XMLID_8_"  style="overflow:visible;fill:#9C9C9C;"/>
		<clipPath id="XMLID_27_">
			<use xlink:href="#XMLID_8_"  style="overflow:visible;"/>
		</clipPath>
		
			<ellipse transform="matrix(0.926 -0.3776 0.3776 0.926 -115.6434 363.7137)" class="st17" cx="869.7" cy="476.8" rx="13.3" ry="17.2"/>
		<path class="st18" d="M725,538c0.1-8.2-5.5,7.2-1.9,0.1c7.2-13.8,56.9-11.5,71.9-37.9c25.9-45.4,29.9-104.4,104-104.4
			c27,0,71,1.6,81.6-2.3c31.6-11.6-55.8-13.1-64.7-17.3c-45.6-21.5-91.6-33.3-140.1-46.2c-16.6-4.4-32.3-11-48.8-15.5
			c-13.1-3.6-19.3-3-24,11.2c-6.3,19-5.3,42.7-2.8,62.4c3.1,24.7,5.4,49.4,9.4,74c2.4,14.8-6.4,74.6,11.4,83.7
			c0.3-2.6,2.1-4.8,2.1-7.6C724.9,538.4,725.2,537.5,725,538z"/>
		<use xlink:href="#XMLID_8_"  style="overflow:visible;fill:none;stroke:#000000;stroke-miterlimit:10;"/>
	</g>
	<path class="st19" d="M1330,554.7"/>
	<g>
		<path class="st20" d="M1311.3,569.3c0,0,0.9-0.5,2.4-1c0.7-0.2,1.6-0.5,2.5-0.7c0.9-0.2,1.9-0.4,2.9-0.5c1-0.1,2-0.2,2.9-0.2
			c0.9,0,1.8,0,2.6,0.1c1.5,0.1,2.5,0.4,2.5,0.4s-1,0.4-2.4,0.8c-0.7,0.2-1.6,0.4-2.5,0.6c-0.9,0.2-1.9,0.3-2.9,0.5
			c-1,0.1-2,0.2-2.9,0.3c-0.9,0.1-1.8,0.1-2.6,0.1C1312.3,569.5,1311.3,569.3,1311.3,569.3z"/>
	</g>
	<g>
		<path class="st20" d="M1310.3,574.7c0,0,0.5-0.5,1.3-0.9c0.8-0.5,1.9-0.9,3.1-1.2c1.2-0.3,2.4-0.4,3.3-0.4c0.9,0,1.6,0.2,1.6,0.2
			s-0.5,0.5-1.3,0.9c-0.8,0.5-1.9,0.9-3.1,1.2c-1.2,0.3-2.4,0.4-3.3,0.4C1311,574.9,1310.3,574.7,1310.3,574.7z"/>
	</g>
	<g>
		<path class="st20" d="M1305.5,555.7c0,0,0.6-0.4,1.4-0.8c0.9-0.4,2.1-0.7,3.3-0.7c1.2-0.1,2.5,0,3.4,0.2c0.9,0.2,1.5,0.5,1.5,0.5
			s-0.6,0.3-1.5,0.6c-0.9,0.3-2.1,0.5-3.3,0.6c-1.2,0.1-2.4,0-3.3-0.1C1306.1,555.9,1305.5,555.7,1305.5,555.7z"/>
	</g>
</g>
<g id="Слой_9">
	<path class="st21" d="M1195.9,263.1c-0.5-0.5-1-1-1.5-1.5"/>
	<g>
		<defs>
			<path id="XMLID_2_" d="M1409.2,419.7c-1.5-19-20.4-51.6-21.2-70.7c-1.9-45.7-7.8-63.3-27.3-107.7c-8-18.3-41.5-37.3-77.1-28.4
				c-4.4-9.4-18.2-12.6-26.4-6.2c-1.9-6.2-11.4-8.2-15.6-3.3c-4.4-6-11.9-9.7-19.3-9.4c1.2,1.4,2.4,2.7,3.6,4.1
				c-6.5-6.1-16-8.8-24.8-7.2c-1.7-1.5-3.6-2.4-6.6-3c-2.3-0.5-4,1.9-2.9,3.9c2.5,4.6,2.7,11.3,3.5,17.1c1.1,8.9-1.2,17.9-3.7,26.5
				c-3.2,11.1-18.8,21.6-18.8,21.6c27,2.7,58.2-15.3,84.8-19c44.3-6.2,86.3,38.9,95.4,98c8,52.5,32.9,43.5,22.1,89.6
				c-1,4.2-10.9,20.9-14,23.8c-23.4,21.5-59.2,21.3-57.2,21.3c23.9-0.1,72.3-1.9,97.5-2.5c0.2-9,23.5-7.2,23.8-16.3
				C1425.1,440.8,1410.1,430.9,1409.2,419.7z"/>
		</defs>
		<use xlink:href="#XMLID_2_"  style="overflow:visible;fill:#100A0A;"/>
		<clipPath id="XMLID_28_">
			<use xlink:href="#XMLID_2_"  style="overflow:visible;"/>
		</clipPath>
		<path class="st22" d="M1184,253c-2.6,2.2,4.2-0.2,5.6-1.6c3.3-3.3,5-8.8,6.5-12.8c2.9-7.9,3.8-15.9,4.1-24.5
			c8.5,4.2,8.1,17.4,4.9,24.5c6.1-8.4,11.7-16.6,15.1-26.3c4.4,8.7,1.4,18.4-3.2,26.4c8.2-6.3,11.7-17.8,13.9-24.9
			c2.1,11.8-1,15.5-6.2,25.2c9-6.4,18.4-17.1,22.4-27.7c8.1,7.7-5,22.6-9.1,29.7c14.3-11.1,21.1-23.3,38.5-27.2
			c-4.5,3-8.1,7.1-9.6,12.1c13.1-1.3,20.4-11.3,34.9-9.7c0,0.8,60.4,22,44.1,74.1c-5.5-15.9-10.1-49.2-35.3-55
			c-41.2-9.4-67.9,10.9-84.2,13.2c-12.4,1.7-32.5,8.5-42.4,5C1184.1,252.6,1184.4,251.8,1184,253z"/>
		<use xlink:href="#XMLID_2_"  style="overflow:visible;fill:none;stroke:#100A0A;stroke-miterlimit:10;"/>
	</g>
	<g>
		<defs>
			<path id="XMLID_3_" d="M1109.7,222c0,0-12.4,3.4-27.4,5.2c-3.5,0.4-7.2-0.6-10.6,0.3c-3.5,0.9-5.8,6.2-2.6,7.7
				c-7.4-4.1-17.9-0.6-21.5,7c-37,1.4-47.2,36.5-47.2,36.5s4.9-17.8,39.6-22.4c22.7-3,24.7,1,34,1.2c7.7,0.2,23.4-7.2,48.8-4.9
				C1125.4,252.9,1111.5,222.7,1109.7,222z"/>
		</defs>
		<use xlink:href="#XMLID_3_"  style="overflow:visible;fill:#100A0A;"/>
		<clipPath id="XMLID_29_">
			<use xlink:href="#XMLID_3_"  style="overflow:visible;"/>
		</clipPath>
		<path class="st23" d="M1113.8,247.8c-6.7-3.4-10.1-16.2-16.5-22.4c-1.1-1.1-3-0.5-3.3,1c-0.5,2.8,1,5.3,2.2,8
			c0.9,1.9-1.2,3.9-3,2.8c-4.3-2.4-8.5-5.4-12.8-7.1c-2-0.8-3.8,1.6-2.5,3.4c1.5,1.8,3.5,3.5,5.3,5.2c1.7,1.6,0.1,4.3-2.1,3.6
			c-7.7-2.5-15.6-4-23.6-4.4c-2.4-0.1-3.2,3.1-1,4.1c1.7,0.8,3.4,1.6,4.9,2.7c1.9,1.3,0.7,4.3-1.5,3.9c-11.9-1.8-25.5-2.8-36,2.4
			c-13.3,4.7-13.3,2.7-23.5,23.7c-14.2,29.2-19.4,59.6-15.1,71.6c10.3-16.7,1.4-26.4,7.3-60.6c2.2-12.6,35.3-25.7,47.4-29.3
			c11.9-3.6,31.6,0.1,43.3-2c8.2-1.5,19.4-5.6,26.4-4.9c1.8,0.2,3.1-1.9,2-3.4C1110.9,245,1111.1,244.9,1113.8,247.8z"/>
		<use xlink:href="#XMLID_3_"  style="overflow:visible;fill:none;stroke:#100A0A;stroke-miterlimit:10;"/>
	</g>
	<path class="st24" d="M1028.3,472.7c16,0.2,39.6,2.2,55.5,0.6c-1.8-10.8-23.1-48.3-19-64.3c0,0,0,22.7-21.4,32.4
		C1041.2,442.4,1028.3,472.7,1028.3,472.7z"/>
	<path class="st24" d="M1307.2,434.5c3.2,6.2,3.8,13.4,3.4,20.4c-0.2,4.6-0.8,9.7-4.2,12.9c-2.3,2.2-5.5,3-8.5,3.7
		c-12.8,3.1-25.9,5.4-39,6.9c-5.3,0.6-10.6,1.1-15.8,0c-5.2-1-6.4-6.8-9.2-11.3c11.2-4.4,22-1.6,27.8-16.7c0,0-5.4-7-15-10.4
		C1221.7,431.2,1291,403,1307.2,434.5z"/>
	<path class="st25" d="M1252.7,431c3.1-1,12.2,6.5,14.7,9.5c3.6,4.3,4.9,9.6,4.8,15.1c2.9-4.4,2.4-15.3-2.7-18.4
		c2,6.1,13,9.9,17.3,15.6c-0.4-4.4-3.5-9.5-5.3-13.6c5.1,3.1,8.6,8.1,13.3,11.6c-0.7-3.8-3.1-8-4.6-11.7c4.8-1.1,10.2,3,12.5,7
		c0.1-22.2-33.5-22.4-47.7-18.4c-0.6,0.6-1.6,1.9-2.2,2.6C1254,431.1,1256.6,431.8,1252.7,431z"/>
	<g>
		<path d="M1269.6,422.4c0,0,0.3-0.2,0.9-0.7c0.6-0.4,1.4-1.1,2.4-2c0.5-0.5,1-1,1.6-1.6c0.5-0.6,1.1-1.3,1.7-2
			c1.2-1.5,2.3-3.3,3.6-5.2c1.3-2,2.6-4.1,4.1-6.4c1.5-2.2,3.3-4.5,5.5-6.6c2.2-2.1,4.8-3.8,7.8-5.1c2.9-1.3,6-2.1,9.1-2.7
			c1.6-0.3,3.1-0.5,4.7-0.7c1.5-0.2,3.1-0.3,4.7-0.4c3.1-0.2,6.2-0.1,9.1,0.1c3,0.2,5.8,0.7,8.4,1.3c2.6,0.7,5.1,1.4,7.2,2.4
			c0.5,0.2,1.1,0.5,1.6,0.7c0.5,0.3,1,0.5,1.5,0.8c1,0.5,1.8,1.1,2.6,1.6c0.8,0.5,1.5,1.1,2.1,1.6c0.7,0.5,1.2,1,1.7,1.5
			c1,0.9,1.7,1.8,2.2,2.3c0.5,0.6,0.7,0.9,0.7,0.9s-0.3-0.3-0.8-0.8c-0.5-0.5-1.3-1.3-2.3-2.1c-0.5-0.4-1.1-0.9-1.8-1.4
			c-0.7-0.4-1.4-1-2.2-1.4c-0.8-0.4-1.7-1-2.6-1.4c-0.5-0.2-1-0.4-1.5-0.7c-0.5-0.2-1-0.4-1.6-0.6c-2.1-0.8-4.6-1.5-7.1-2
			c-2.6-0.5-5.4-0.8-8.2-1c-2.9-0.1-5.9-0.1-8.9,0.1c-1.5,0.1-3,0.3-4.6,0.5c-1.5,0.2-3,0.4-4.5,0.7c-3,0.6-6,1.3-8.7,2.5
			c-2.7,1.2-5.2,2.7-7.3,4.6c-2.1,1.9-3.9,4.1-5.4,6.2c-1.6,2.1-3,4.2-4.4,6.1c-1.4,1.9-2.7,3.6-4,5c-0.6,0.7-1.3,1.3-1.9,1.9
			c-0.6,0.6-1.2,1.1-1.7,1.5c-1.1,0.8-2,1.5-2.6,1.8C1269.9,422.2,1269.6,422.4,1269.6,422.4z"/>
	</g>
	<g>
		<path d="M1295.5,393.5c0,0-0.4-0.2-1.2-0.7c-0.8-0.5-1.9-1.1-3.2-2.1c-1.3-1-2.9-2.3-4.5-4c-1.6-1.7-3.2-3.8-4.4-6.4
			c-1.3-2.6-2.3-5.6-2.9-8.8c-0.6-3.2-0.8-6.7-0.7-10.3c0.1-3.6,0.4-7.2,0.7-10.9c0.3-3.7,0.7-7.4,0.3-11c-0.1-0.9-0.3-1.7-0.6-2.6
			l-0.1-0.3l0-0.1c0,0,0,0,0,0l0,0l-0.1-0.2l-0.3-0.6c-0.2-0.5-0.4-0.8-0.6-1.2c-0.8-1.6-1.8-3.1-2.9-4.6c-2.2-2.9-4.5-5.7-6.7-8.6
			c-1.1-1.4-2.1-2.9-3-4.3c-0.9-1.5-1.7-3-2.4-4.5c-1.4-3-2.2-6-2.6-8.9c-0.4-2.8-0.4-5.5-0.1-7.8c0.1-1.2,0.3-2.2,0.4-3.2
			c0.2-1,0.4-1.9,0.6-2.7c0.4-1.6,0.8-2.8,1.1-3.7c0.3-0.8,0.4-1.3,0.4-1.3s-0.1,0.5-0.3,1.3c-0.1,0.4-0.3,0.9-0.4,1.6
			c-0.1,0.6-0.3,1.3-0.4,2.1c-0.1,0.8-0.3,1.7-0.4,2.7c-0.1,1-0.2,2-0.2,3.2c-0.1,2.3,0,4.8,0.5,7.5c0.5,2.7,1.4,5.6,2.8,8.4
			c1.4,2.8,3.3,5.6,5.4,8.4c2.1,2.8,4.5,5.5,6.8,8.5c1.1,1.5,2.2,3.1,3.1,4.8c0.2,0.4,0.5,0.9,0.6,1.3l0.3,0.6l0.1,0.2l0,0.1l0,0.1
			l0.1,0.4c0.3,1,0.5,2,0.6,2.9c0.4,3.9,0,7.7-0.3,11.4c-0.4,3.7-0.8,7.3-0.9,10.8c-0.1,3.5-0.1,6.8,0.4,10c0.5,3.1,1.3,6,2.4,8.6
			c1.1,2.5,2.5,4.7,4,6.4c1.4,1.8,2.9,3.1,4.1,4.2c1.3,1.1,2.3,1.8,3,2.3C1295.1,393.3,1295.5,393.5,1295.5,393.5z"/>
	</g>
	<g>
		<path d="M975.7,414.6c0,0,0.3-0.3,0.8-0.8c0.3-0.3,0.6-0.5,1-0.9c0.2-0.2,0.4-0.3,0.7-0.5c0.2-0.2,0.5-0.3,0.8-0.5
			c0.5-0.3,1.2-0.7,1.8-1c0.7-0.3,1.4-0.6,2.2-0.8c0.8-0.2,1.6-0.5,2.4-0.5c0.8-0.2,1.7-0.2,2.6-0.3c0.9,0,1.7,0,2.6,0.1
			c0.8,0,1.7,0.3,2.5,0.4c0.8,0.2,1.5,0.4,2.2,0.7c0.7,0.3,1.3,0.5,1.9,0.8c0.3,0.1,0.6,0.3,0.8,0.4c0.2,0.2,0.5,0.3,0.7,0.5
			c0.4,0.3,0.8,0.5,1.1,0.8c0.6,0.5,0.9,0.8,0.9,0.8s-0.4-0.1-1.1-0.4c-0.3-0.1-0.7-0.3-1.2-0.4c-0.5-0.2-1-0.3-1.6-0.5
			c-0.6-0.2-1.2-0.3-1.9-0.5c-0.7-0.2-1.4-0.2-2.1-0.4c-0.7-0.1-1.5-0.2-2.3-0.2c-0.8-0.1-1.6,0-2.4,0c-0.8,0.1-1.6,0.1-2.4,0.2
			c-0.8,0.1-1.5,0.2-2.3,0.3c-0.7,0.2-1.4,0.3-2.1,0.5c-0.7,0.2-1.3,0.4-1.9,0.6c-0.6,0.2-1.1,0.4-1.5,0.6c-0.5,0.2-0.9,0.4-1.2,0.5
			C976.1,414.4,975.7,414.6,975.7,414.6z"/>
	</g>
	<g>
		<path d="M1063.5,353.7c0,0-0.3-0.2-0.7-0.6c-0.2-0.2-0.5-0.4-0.7-0.7c-0.3-0.3-0.6-0.6-0.9-1c-0.3-0.4-0.6-0.8-0.9-1.2
			c-0.3-0.5-0.6-0.9-0.9-1.5c-0.3-0.5-0.6-1.1-0.8-1.7c-0.2-0.6-0.5-1.2-0.7-1.7c-0.2-0.6-0.4-1.2-0.6-1.8c-0.2-0.6-0.3-1.1-0.5-1.7
			c-0.2-0.5-0.3-1.1-0.5-1.5c-0.2-0.5-0.3-0.9-0.5-1.4c-0.3-0.8-0.7-1.5-0.9-2c-0.2-0.5-0.4-0.8-0.4-0.8s0.3,0.2,0.7,0.5
			c0.2,0.2,0.5,0.4,0.7,0.7c0.3,0.3,0.6,0.6,0.9,1c0.3,0.4,0.6,0.8,0.9,1.3c0.3,0.5,0.6,1,0.8,1.5c0.5,1.1,0.9,2.3,1.3,3.4
			c0.2,0.6,0.4,1.1,0.6,1.7c0.2,0.6,0.4,1.1,0.6,1.6c0.2,0.5,0.4,1,0.6,1.5c0.2,0.5,0.4,0.9,0.6,1.3c0.4,0.8,0.7,1.5,0.9,2
			C1063.4,353.4,1063.5,353.7,1063.5,353.7z"/>
	</g>
	<g>
		<path d="M1063.1,359c0,0,0,0.2-0.1,0.6c-0.1,0.4-0.1,1-0.2,1.7c-0.1,1.5,0.1,3.6,0.3,6.1c0.3,2.5,0.7,5.5,0.9,8.7
			c0.3,3.2,0.5,6.6,0.3,10.1c-0.2,3.4-0.5,6.9-1.9,10.1c-0.3,0.8-0.9,1.6-1.4,2.2c-0.5,0.5-1.1,1.1-1.7,1.6c-1.2,1-2.4,1.7-3.5,2.4
			c-2.2,1.3-4,2.3-5.3,3.2c-0.6,0.4-1.1,0.8-1.4,1c-0.3,0.2-0.5,0.4-0.5,0.4s0.1-0.2,0.4-0.5c0.2-0.3,0.6-0.8,1.2-1.3
			c1.1-1.1,2.8-2.4,4.8-3.9c1-0.7,2.1-1.6,3.1-2.5c0.5-0.5,1-0.9,1.5-1.5c0.4-0.5,0.8-1.1,1.1-1.7c0.6-1.3,0.9-2.9,1.2-4.5
			c0.3-1.6,0.4-3.3,0.6-4.9c0.1-1.7,0.2-3.3,0.2-5c0-1.7,0-3.3-0.1-4.9c-0.1-3.2-0.3-6.1-0.4-8.7c-0.1-2.6,0-4.7,0.3-6.2
			c0.1-0.7,0.3-1.3,0.4-1.7C1063,359.2,1063.1,359,1063.1,359z"/>
	</g>
	<g>
		<path d="M1064.7,370.9c0.8,1.6,1.2,3.3,1.8,4.9c0.6,1.6,1.3,3.2,2.1,4.8c1.5,3.1,3.4,6,5.7,8.6c1.1,1.3,2.4,2.5,3.6,3.7
			c1.3,1.1,2.6,2.2,4.1,3.1c1.4,1,2.9,1.8,4.4,2.6c1.5,0.8,3.1,1.5,4.7,2.1c1.6,0.6,3.2,1.2,4.9,1.7l2.5,0.7l2.5,0.6
			c1.7,0.3,3.4,0.7,5.1,0.9c1.7,0.3,3.4,0.4,5.2,0.6c3.5,0.3,7,0.4,10.5,0.4l5.3,0l5.3-0.1l0,0.2l-1.5-0.2l1.5,0.1l0,0.2
			c-1.7,0.2-3.5,0.4-5.2,0.5c-1.8,0.2-3.5,0.3-5.3,0.4c-3.5,0.2-7.1,0.3-10.6,0.1c-1.8-0.1-3.5-0.2-5.3-0.4
			c-1.8-0.2-3.5-0.4-5.3-0.8l-2.6-0.6l-2.6-0.7c-1.7-0.5-3.4-1-5.1-1.7c-1.7-0.7-3.3-1.4-4.9-2.2c-0.8-0.4-1.6-0.9-2.3-1.3
			c-0.7-0.5-1.5-1-2.2-1.5c-1.5-1-2.8-2.2-4.2-3.4c-1.3-1.2-2.5-2.5-3.6-4c-1.1-1.4-2.1-2.9-3-4.4c-0.9-1.6-1.7-3.1-2.3-4.8
			c-0.7-1.6-1.2-3.3-1.7-5c-0.2-0.8-0.5-1.7-0.7-2.6C1065.1,372.6,1065,371.7,1064.7,370.9z"/>
	</g>
	<g>
		<path d="M1280,353.7c0,0-0.1,0.4-0.2,1.2c-0.1,0.8-0.2,1.9-0.3,3.3c-0.1,1.4,0,3.1,0,5.2c0,2-0.3,4.4-1.1,6.8
			c-0.2,0.6-0.5,1.2-0.7,1.8c-0.3,0.6-0.5,1.2-0.9,1.8c-0.6,1.2-1.3,2.4-2.1,3.6c-1.6,2.4-3.4,4.8-5.6,7.1c-2.1,2.3-4.5,4.5-6.9,6.6
			c-2.5,2.1-5.1,4.1-7.9,6c-1.4,0.9-2.8,1.8-4.2,2.7c-1.4,0.8-3,1.6-4.5,2.3c-3.1,1.3-6.2,2.2-9.2,2.8c-3,0.7-6,1.1-8.8,1.4
			c-2.8,0.3-5.5,0.5-8,0.6c-4.9,0.2-9.1,0-11.9-0.2c-1.4-0.1-2.6-0.2-3.3-0.3c-0.8-0.1-1.2-0.1-1.2-0.1s1.6,0.1,4.5,0.1
			c2.9,0,7-0.1,11.8-0.6c2.4-0.2,5.1-0.5,7.8-0.9c2.8-0.4,5.7-1,8.6-1.7c2.9-0.7,5.9-1.7,8.8-2.9c2.9-1.2,5.6-3,8.3-4.8
			c2.7-1.9,5.3-3.8,7.7-5.8c2.5-2,4.8-4.2,6.9-6.4c2.1-2.2,4-4.5,5.5-6.7c0.8-1.1,1.5-2.3,2.1-3.4c0.3-0.6,0.6-1.1,0.9-1.7
			c0.3-0.6,0.5-1.1,0.7-1.7c1-2.2,1.3-4.4,1.5-6.3c0.2-2,0.3-3.7,0.5-5.2c0.2-1.4,0.4-2.5,0.6-3.3C1279.9,354,1280,353.7,1280,353.7
			z"/>
	</g>
	<g>
		<path d="M1163.6,431.7c0,0-3.5,1.1-8.8,2.4c-2.6,0.7-5.7,1.5-9.1,2.2c-1.7,0.4-3.4,0.8-5.1,1.2c-1.8,0.4-3.5,0.8-5.3,1.2
			c-1.8,0.4-3.6,0.7-5.3,1.1c-1.8,0.4-3.5,0.7-5.2,1c-3.4,0.6-6.5,1.2-9.2,1.6c-5.4,0.9-9,1.3-9,1.3s3.5-1.1,8.8-2.5
			c2.6-0.7,5.7-1.5,9.1-2.2c1.7-0.4,3.4-0.8,5.1-1.2c1.8-0.4,3.5-0.8,5.3-1.2c1.8-0.4,3.6-0.7,5.3-1.1c1.8-0.4,3.5-0.7,5.2-1
			c3.4-0.6,6.5-1.2,9.2-1.6C1160,432.1,1163.6,431.7,1163.6,431.7z"/>
	</g>
	<g>
		<path d="M1185.4,429.2c0,0,0.9,0.1,2.5,0.1c0.8,0,1.8,0.2,2.9,0.3c1.1,0.1,2.4,0.3,3.7,0.6c2.7,0.5,5.8,1.2,9.2,1.9
			c0.8,0.2,1.7,0.3,2.6,0.5c0.9,0.2,1.7,0.3,2.6,0.4c1.8,0.3,3.6,0.4,5.4,0.6c1.8,0.1,3.6,0.3,5.4,0.2c1.8,0.1,3.5,0,5.3,0
			c1.7,0,3.4-0.2,4.9-0.2c1.6-0.1,3-0.2,4.4-0.3c1.4-0.1,2.6-0.2,3.7-0.3c1.1-0.1,2.1-0.2,2.9-0.3c1.6-0.2,2.5-0.2,2.5-0.2
			s-0.9,0.2-2.5,0.4c-0.8,0.1-1.7,0.3-2.8,0.5c-1.1,0.2-2.3,0.3-3.7,0.5c-1.4,0.2-2.8,0.4-4.4,0.5c-1.6,0.1-3.2,0.3-4.9,0.4
			c-1.7,0.1-3.5,0.1-5.3,0.1c-1.8,0-3.6-0.1-5.5-0.2c-1.8-0.2-3.7-0.4-5.4-0.7c-0.9-0.1-1.8-0.3-2.6-0.5c-0.9-0.2-1.7-0.3-2.6-0.5
			c-1.7-0.3-3.3-0.8-4.8-1.1c-1.5-0.4-3-0.7-4.3-1c-1.3-0.3-2.6-0.6-3.7-0.7c-1.1-0.2-2-0.4-2.8-0.5
			C1186.3,429.4,1185.4,429.2,1185.4,429.2z"/>
	</g>
	<g>
		<path d="M1112.5,442.5c0,0,0.2,0.3,0.6,1c0.4,0.6,1,1.5,1.7,2.4c0.4,0.5,0.8,1,1.2,1.5c0.5,0.5,0.9,1.1,1.5,1.6
			c0.5,0.6,1.1,1.1,1.7,1.6c0.6,0.5,1.2,1.1,1.8,1.6c0.6,0.5,1.3,1,1.9,1.5c0.7,0.5,1.3,1,1.9,1.4c1.3,0.9,2.5,1.7,3.5,2.4
			c1,0.7,1.9,1.3,2.5,1.7c0.6,0.4,0.9,0.7,0.9,0.7s-0.4-0.1-1.1-0.3c-0.7-0.2-1.7-0.6-2.9-1.1c-0.6-0.2-1.2-0.5-1.9-0.8
			c-0.7-0.3-1.3-0.7-2-1.1c-1.4-0.8-2.8-1.7-4.1-2.8c-0.7-0.5-1.3-1.1-1.9-1.7c-0.3-0.3-0.6-0.6-0.9-0.9c-0.3-0.3-0.6-0.6-0.8-0.9
			c-0.5-0.6-0.9-1.3-1.4-1.9c-0.4-0.6-0.7-1.2-1-1.8c-0.6-1.1-0.9-2.2-1.1-2.9C1112.6,442.9,1112.5,442.5,1112.5,442.5z"/>
	</g>
	<g>
		<path d="M1067.3,378.9c0,0-0.4-1-1.1-2.9c-0.2-0.5-0.4-1-0.6-1.5c-0.2-0.6-0.4-1.2-0.6-1.8c-0.2-0.7-0.4-1.4-0.6-2.1
			c-0.2-0.7-0.4-1.5-0.6-2.3c-0.2-0.8-0.4-1.7-0.6-2.6c-0.1-0.9-0.3-1.8-0.5-2.8c-0.4-1.9-0.5-3.9-0.8-6c-0.1-1-0.1-2.1-0.2-3.2
			c0-1.1-0.2-2.2-0.1-3.3c0-1.1,0-2.2,0-3.3c0-1.1,0.1-2.2,0.1-3.4c0.1-2.2,0.4-4.5,0.6-6.7c0.2-1.1,0.3-2.2,0.5-3.3
			c0.2-1.1,0.4-2.1,0.6-3.2c0.2-1,0.4-2,0.7-3c0.3-1,0.6-1.9,0.8-2.9c0.5-1.9,1.2-3.6,1.8-5.1c0.7-1.5,1.3-3,2-4.2
			c0.7-1.2,1.2-2.3,1.8-3.1c1.1-1.6,1.8-2.5,1.8-2.5s-0.5,1-1.4,2.7c-0.5,0.9-0.9,2-1.4,3.2c-0.3,0.6-0.5,1.3-0.8,2
			c-0.3,0.7-0.5,1.5-0.8,2.2c-0.2,0.8-0.5,1.6-0.7,2.5c-0.2,0.9-0.5,1.7-0.7,2.7c-0.2,0.9-0.4,1.9-0.7,2.8c-0.2,1-0.4,2-0.6,3
			c-0.4,2-0.6,4.2-0.9,6.3c-0.2,2.2-0.5,4.4-0.5,6.6c-0.1,1.1-0.2,2.2-0.2,3.3c0,1.1,0,2.2,0,3.3c0,1.1,0,2.2,0,3.2
			c0,1.1,0,2.1,0.1,3.1c0.2,2.1,0.2,4.1,0.5,5.9c0.1,0.9,0.2,1.9,0.3,2.8c0.1,0.9,0.3,1.7,0.4,2.6c0.1,0.8,0.2,1.6,0.4,2.4
			c0.1,0.7,0.3,1.4,0.4,2.1c0.1,0.7,0.3,1.3,0.4,1.9c0.1,0.6,0.3,1.1,0.4,1.6C1067.1,377.8,1067.3,378.9,1067.3,378.9z"/>
	</g>
	<g>
		<path d="M1276.6,330.2c0,0-0.5-0.2-1.3-0.7c-0.8-0.5-2-1.1-3.3-2c-1.3-0.9-2.9-2-4.4-3.2c-1.6-1.2-3.2-2.6-4.8-4.1
			c-1.6-1.5-3.1-3-4.4-4.5c-0.7-0.7-1.3-1.5-1.9-2.2c-0.6-0.7-1.1-1.4-1.6-2.1c-0.5-0.7-0.8-1.3-1.2-1.9c-0.3-0.6-0.5-1.1-0.7-1.5
			c-0.2-0.4-0.2-0.8-0.3-1.1c-0.1-0.2-0.1-0.4-0.1-0.4s0.3,0.5,0.8,1.2c0.3,0.4,0.6,0.8,1,1.3c0.4,0.5,0.9,1,1.4,1.6
			c0.6,0.6,1.1,1.2,1.8,1.8c0.6,0.6,1.3,1.3,2,2c0.7,0.7,1.5,1.4,2.2,2.1c0.8,0.7,1.5,1.4,2.3,2.1c3.1,2.9,6.2,5.7,8.6,7.8
			C1275.1,328.8,1276.6,330.2,1276.6,330.2z"/>
	</g>
	<g>
		<path d="M1277.3,327.5c0,0-0.2,0.1-0.6,0.2c-0.4,0.1-0.9,0.2-1.6,0.2c-0.7,0.1-1.5,0-2.3,0c-0.4-0.1-0.9-0.1-1.3-0.2
			c-0.4-0.1-0.9-0.2-1.3-0.4c-0.4-0.2-0.8-0.3-1.2-0.5c-0.4-0.2-0.8-0.4-1.2-0.6c-0.7-0.4-1.4-0.9-1.9-1.4c-0.5-0.4-0.9-0.9-1.1-1.2
			c-0.2-0.3-0.4-0.5-0.4-0.5s0.2,0.1,0.5,0.3c0.3,0.2,0.8,0.5,1.3,0.8c0.3,0.2,0.6,0.3,0.9,0.5c0.3,0.2,0.7,0.3,1,0.5
			c0.7,0.3,1.5,0.7,2.3,0.9c0.8,0.3,1.6,0.5,2.4,0.7c0.4,0.1,0.8,0.2,1.1,0.2c0.4,0.1,0.7,0.1,1,0.1c0.6,0.1,1.2,0.1,1.6,0.1
			C1277.1,327.5,1277.3,327.5,1277.3,327.5z"/>
	</g>
	<g>
		<path d="M1060.2,313.7c0,0,0.2,0.5,0.5,1.5c0.2,1,0.6,2.3,0.9,4c0.3,1.7,0.6,3.6,0.8,5.7c0.2,2.1,0.4,4.3,0.7,6.5
			c0.2,2.2,0.4,4.4,0.6,6.5c0.2,2.1,0.4,4,0.6,5.7c0.2,1.7,0.4,3,0.6,4c0.2,1,0.2,1.5,0.2,1.5s-0.2-0.5-0.4-1.5
			c-0.1-0.5-0.3-1-0.4-1.7c-0.2-0.7-0.3-1.4-0.5-2.2c-0.3-1.6-0.6-3.6-0.9-5.7c-0.3-2.1-0.5-4.3-0.7-6.5c-0.2-2.2-0.4-4.4-0.5-6.5
			c-0.2-2.1-0.3-4-0.5-5.7c-0.1-0.8-0.2-1.6-0.2-2.3c-0.1-0.7-0.2-1.3-0.2-1.7C1060.3,314.2,1060.2,313.7,1060.2,313.7z"/>
	</g>
	<g>
		<path d="M1147.3,405.6c0.7-0.3,1.3-0.7,1.9-1.1l0.9-0.6l0.9-0.6c0.6-0.4,1.1-0.8,1.7-1.3l0.8-0.7l0.8-0.7c0.5-0.5,1-1,1.4-1.5
			c0.5-0.5,0.9-1.1,1.3-1.6l0.6-0.9l0.6-0.9c0.4-0.6,0.7-1.2,1-1.8l0.7-1.5l1,1.4c0.4,0.6,0.8,1.1,1.3,1.6c0.5,0.5,0.9,1,1.4,1.5
			c1,1,2.1,1.9,3.2,2.8c0.6,0.4,1.1,0.9,1.7,1.3c0.6,0.4,1.2,0.8,1.8,1.2c0.6,0.4,1.2,0.8,1.8,1.2l1.9,1.1c-0.7-0.2-1.4-0.4-2.1-0.6
			c-0.7-0.2-1.4-0.5-2.1-0.8c-0.7-0.3-1.3-0.6-2-1c-0.7-0.3-1.3-0.7-1.9-1.1c-0.6-0.4-1.2-0.8-1.8-1.3c-0.6-0.5-1.2-0.9-1.7-1.4
			c-1.1-1-2.1-2.1-3-3.4l1.7-0.1c-0.3,0.7-0.7,1.3-1.1,2c-0.4,0.6-0.8,1.3-1.3,1.9c-0.5,0.6-1,1.1-1.5,1.7l-0.8,0.8l-0.9,0.7
			c-0.6,0.5-1.2,0.9-1.8,1.3c-0.6,0.4-1.3,0.8-2,1.1c-0.7,0.3-1.4,0.6-2.1,0.8l-1.1,0.3L1147.3,405.6z"/>
	</g>
	<path class="st25" d="M1364.6,355.3c3.5,9.4,8.6,18.1,12.3,27.5c6.3,16,7.7,47.2,6.5,40.6c-1.2-6.7-1.4-22.2-2.9-28.8
		c-2-8.3-2.1-17.1-5.3-25.1c-1.5-3.9-3.8-7.6-5.4-11.5c-2.2-5.3-5.1-22.4-4.2-16.7c0.3,2.1-4.3-30.9-14.8-43
		C1356.6,316.9,1357.8,337,1364.6,355.3z"/>
</g>
<g id="Слой_4">
	<g id="XMLID_15_">
		<path class="st1" d="M1263,449.3c-10.4-9.6-51.3-21.5-51.3-21.5s-1.6,4.6-2.8,8.3c1-2.5,1.8-6,2.8-8.3
			c-11.5-2.2-12.1-6.6-18.8,3.8c4.1-9.1-9.9-1.8-15.4,7.3c-3.6,5.9-7.1,12.4-10.9,18.3c-6.7,10.6-8.5,22.6-8.1,35.3
			c9.9,2.3,11.1-10.7,14-16.9c3.4-7.4,11.1-13,13.7-21c-3.4,5.3-8.3,13.3-4.3,18c2.6,3.1,15.6,5.3,19.2,3.4
			c-7.2-7.1-5.3-6.3-3.3-14.9c1.1-4.8,1.5-10.3,3.2-14.7c-0.8,5.9-7.7,17.1-6.6,22.5c1.4,6.9,14.2,8.6,20.3,9.1
			c-0.1-4.2-3.4-6.2-7.6-6.9c0.3-6.1,6-13.5,7.8-19.9c-6.1,10.8-11.6,19.6,2.4,24.9c13.6,5.1,17.2,0.3,14.1-12.5
			c-4.6,1.3-8.6,4.4-13.2,5.5c7.4-1.6,9.7-2.1,9.4-7.5c8.4,3.6,10.9,6.9,20.6,4.8C1255.3,464.9,1262.3,457.4,1263,449.3"/>
		<g>
			<path d="M1263.5,448.8c-7.8-7-19.1-10.6-28.8-14.1c-7.5-2.7-15.1-5.3-22.8-7.5c-0.4-0.1-0.8,0.1-0.9,0.5
				c-0.9,2.8-1.9,5.5-2.8,8.3c-0.3,0.9,1.1,1.3,1.4,0.4c1-2.7,1.7-5.6,2.8-8.3c0.1-0.4-0.2-0.8-0.5-0.9c-3.6-0.8-8.3-3.3-12.1-2.8
				c-3.6,0.4-5.8,4.3-7.5,7c0.5,0.2,0.9,0.4,1.4,0.6c1.1-2.8,0.9-5.6-2.7-5c-5.5,1-10.8,6.8-13.7,11.1c-2.9,4.4-5.3,9-8,13.5
				c-2.5,4.2-5.2,8.2-7.1,12.8c-3.7,8.9-4.5,18.6-4.3,28.1c0,0.3,0.2,0.7,0.6,0.7c7.5,1.4,10.6-4.9,12.7-11.1
				c1.9-5.5,4.1-9.9,7.8-14.5c3.2-4,6.3-7.9,8.1-12.8c0.3-0.8-0.9-1.3-1.4-0.6c-3,4.8-9.5,14.4-3.6,19.5c4.2,3.5,14.2,5.1,19.3,3
				c0.5-0.2,0.8-0.8,0.3-1.3c-1.7-1.7-4.1-3.6-4.7-5.9c-0.5-1.9,0.4-3.8,0.9-5.6c1.5-5.7,1.9-11.7,3.8-17.4c-0.5-0.1-1-0.3-1.4-0.4
				c-0.9,4.9-3.3,9.3-5,13.9c-1.2,3.2-2.6,7.1-1.1,10.5c3.2,6.8,14.1,7.6,20.5,8.2c0.4,0,0.8-0.4,0.8-0.8c-0.2-1.9-0.7-3.5-2.1-4.9
				c-1.4-1.5-4.3-1.7-5-3.3c-1.1-2.7,2.4-7.6,3.7-10.1c1.3-2.7,2.6-5.4,3.5-8.2c0.3-0.8-1-1.3-1.4-0.6c-2.7,4.8-7.1,10.8-6.5,16.7
				c0.6,5.5,6,8.2,10.7,9.8c3.7,1.3,9.4,2.9,12.6-0.2c3.4-3.4,1.9-9.6,1-13.7c-0.1-0.4-0.5-0.6-0.9-0.5c-4.6,1.5-8.6,4.1-13.2,5.5
				c-0.9,0.3-0.5,1.7,0.4,1.4c5.3-1.2,10.1-1.9,9.9-8.2c-0.4,0.2-0.8,0.4-1.1,0.6c7.9,3.5,14.3,7.4,23.1,4.3
				c7.4-2.6,12.6-9.7,13.6-17.3c0.1-1-1.4-0.9-1.5,0c-1.1,8.4-7.6,15.3-16,16.7c-7.1,1.2-12.2-2.2-18.5-4.9c-0.5-0.2-1.2,0-1.1,0.6
				c0.2,5.4-4.5,5.8-8.8,6.7c0.1,0.5,0.3,1,0.4,1.4c2.7-0.8,5-1.9,7.5-3.1c1.1-0.5,3.9-2.5,5.1-1.6c0.6,0.5,0.6,3.8,0.7,4.5
				c0.4,6.1-3.1,8.5-8.9,7.3c-5.5-1.1-13.7-4-13.5-10.8c0.1-5.2,3.8-10.3,6.3-14.6c-0.5-0.2-0.9-0.4-1.4-0.6
				c-2.2,6.9-7.1,12.8-7.8,20.1c0,0.3,0.3,0.7,0.6,0.7c1.5,0.3,2.7,0.6,4,1.5c1.2,0.4,1.9,1.1,2.1,2.3c1.2,1.3,1.1,1.8-0.2,1.4
				c-1.5,0.4-4.3-0.6-5.8-0.9c-3.9-0.8-9.3-2.1-11.3-5.9c-1.9-3.6,0.6-8.8,2-12.2c1.5-3.7,3.3-7.4,4-11.4c0.2-0.9-1.1-1.3-1.4-0.4
				c-1.4,4.3-1.9,8.7-2.8,13.1c-0.5,2.7-1.6,5.3-2,8c-0.6,4.1,2.5,6.6,5.2,9.3c0.1-0.4,0.2-0.8,0.3-1.3c-4.4,1.8-10.9,0.3-15.2-1.3
				c-8.8-3.5-2.2-13.7,1.1-19c-0.5-0.2-0.9-0.4-1.4-0.6c-3.3,9.2-11.8,15.1-15,24.4c-1.2,3.6-2.1,7.8-4.7,10.7c-1.4,1.5-5,4-6.5,1.2
				c-1-1.9,0.1-7.2,0.3-9.3c0.6-6.5,2.1-12.8,4.9-18.7c2.6-5.5,6.2-10.6,9.2-15.8c2.7-4.7,5.2-9.5,9.2-13.3c1.4-1.3,12-8.8,9.3-2.2
				c-0.3,0.8,0.9,1.3,1.4,0.6c2.8-4.3,4.9-7.1,10.2-5.6c1,0.3,5.8,1.1,6.3,1.8c0.9,1.3-1.5,6.3-2,7.6c0.5,0.1,1,0.3,1.4,0.4
				c0.7-2,1.4-4,2.1-6.1c0.5-1.5,1.1-1.8-0.1-1.7c0.7-0.1,1.9,0.6,2.6,0.8c4.8,1.5,9.5,3,14.3,4.6c11.3,3.9,24.9,7.8,34,15.8
				C1263.2,450.5,1264.2,449.4,1263.5,448.8L1263.5,448.8z"/>
		</g>
	</g>
	<path class="st2" d="M1230.5,446.2c-1.2-0.3-2.4-0.6-3.6-0.4c-1.6,0.4-2.7,1.7-3.7,3c-3.7,5-6.3,10.8-7.6,16.9
		c2.6,1.4,5.9,0.2,8.3-1.6s4.6-3.9,7.5-4.7c3.3-0.9,6.8,0.2,10,1.3c3.2,1.2,6.5,2.5,9.9,2c8.5-1.2,5.5-7.2,1.5-10.4
		C1248.1,448.6,1236.3,447.8,1230.5,446.2z"/>
</g>
<g id="Слой_5">
	<g>
		<path class="st26" d="M1306.8,558.2c-0.6,0.8-1.9,1.7-2.6,2.5c3.5,0.8,4,3.1,4.8,3.3c0,0.8-0.3,1.6-0.9,2.2
			c0.7,0.3,1.2-1.8,0.7,0.3c0.9,0.2,1.3,2.5,2.1,2.8c-0.4,0.7-0.9,1.5-1.3,2.2c0.7,0.5,1.5,0.8,2.3,1c-0.1,0.9-0.6,1.8-1.3,2.5
			c1.4,0.3,2.7,0.9,3.9,1.7c-0.6,0.7-1.2,1.5-1.8,2.2c25.2-4,50.8-5.7,76.3-4.9c8.4,0.2,16.8,0.8,25.2,1.3c17.5,1.2,35,2.6,52.4,5.1
			c-0.6-0.8-1.2-1.6-1.8-2.3c1.1-0.6,2.2-1.2,2.7-2.3c0.5-1.1,0-2.7-1.2-2.8c1-0.1,2-0.6,2.5-1.4c-10.3-3.3-18.6-4.1-31.8-5.4
			c8.8,1.4,17.7,2.7,26.5,4.1c1.9,0.3,3.8,0.6,5.6,0.2c-0.6-1.1-1.9-1.9-3.2-2c1.8-0.3,3.5-1.3,4.6-2.7c-1.1-0.7-2.4-1.2-3.6-1.4
			c2.7-1,1.4-3.8,4.1-4.8c-6.6-0.7-2.1,0.5-8.7-0.2c7.1,0.1,10.9-1.7,8-2.5c2.6-0.1-0.1-2.3-2.6-2.7c1.3-1,0.8,1.4,2.3,0.9
			c0.2-2.9-0.9-8.1-3.6-9.1c-13.3-5-27.8-5.6-42-6.5c-34.2-2.3-69-6.6-102.3,1.4c-5.3,1.3-10.8,3.1-14.6,7.1c-1.3,1.4-4,4.2-4,6.3
			c0,2.9,2.2,1,1.8,1.4C1305.9,556.1,1306.1,557.8,1306.8,558.2z"/>
		<path class="st20" d="M1306.8,558.2c-0.8,0.9-1.8,1.6-2.6,2.5l0,0c1,0.2,1.9,0.6,2.7,1.2c0.4,0.3,0.8,0.7,1.1,1
			c0.3,0.4,0.6,0.8,1,1c0,0,0,0,0,0c0,0.8-0.3,1.6-0.9,2.2l0-0.1c0.2,0.1,0.3,0,0.4-0.1c0.1-0.1,0.2-0.3,0.3-0.4l0-0.1
			c0,0,0-0.1,0.1,0c0,0.1,0,0.1,0,0.2l0,0.3l-0.1,0.5l0-0.1c0.3,0.1,0.5,0.4,0.7,0.6c0.2,0.3,0.3,0.5,0.4,0.8
			c0.1,0.3,0.3,0.5,0.4,0.8c0.2,0.2,0.3,0.5,0.6,0.6c0,0,0.1,0,0,0.1l0,0l-1.3,2.2l0-0.1c0.7,0.5,1.5,0.8,2.3,0.9
			c0,0,0.1,0.1,0.1,0.1c-0.1,1-0.6,1.9-1.4,2.5l0-0.2c1.4,0.3,2.8,0.9,3.9,1.7c0.1,0,0.1,0.1,0,0.2l0,0l-1.8,2.2l-0.1-0.2
			c3.2-0.5,6.4-1,9.6-1.4c3.2-0.4,6.4-0.8,9.6-1.2c3.2-0.4,6.4-0.7,9.6-1c3.2-0.3,6.4-0.5,9.6-0.7c12.9-0.8,25.7-1.1,38.6-0.7
			l19.3,1c3.2,0.2,6.4,0.3,9.6,0.6l9.6,0.7c12.8,1,25.7,2.2,38.4,4l-0.4,0.7l-1.8-2.3c-0.1-0.2-0.1-0.4,0.1-0.6c0,0,0,0,0.1,0
			c1-0.5,2-1.1,2.5-2c0,0,0-0.1,0.1-0.2c0-0.1,0-0.1,0-0.2c0-0.1,0-0.2,0-0.3c0-0.2,0-0.5-0.1-0.7c-0.1-0.2-0.2-0.4-0.4-0.6
			c-0.2-0.1-0.3-0.2-0.5-0.2c-0.2,0-0.4-0.2-0.4-0.5c0-0.2,0.2-0.4,0.4-0.4c0.9-0.1,1.7-0.5,2.2-1.3l0.2,0.7
			c-2.6-0.8-5.1-1.5-7.8-2.1c-2.6-0.6-5.3-1.1-7.9-1.4c-5.3-0.8-10.7-1.3-16-1.8l0.1-0.9l16.1,2.4l8,1.2c1.3,0.2,2.7,0.4,4,0.6
			c1.3,0.2,2.6,0.2,3.9,0l-0.3,0.7c-0.5-1-1.6-1.7-2.8-1.8c-0.3,0-0.5-0.2-0.4-0.5c0-0.2,0.2-0.4,0.4-0.4c1.7-0.2,3.3-1.2,4.3-2.5
			l0.1,0.7c-1.1-0.7-2.2-1.1-3.5-1.3c-0.3,0-0.4-0.3-0.4-0.5c0-0.2,0.1-0.3,0.3-0.3l0,0l0.3-0.1c0.1,0,0.2-0.1,0.3-0.2
			c0.2-0.1,0.4-0.3,0.5-0.5c0.3-0.4,0.5-0.8,0.6-1.3c0.2-0.5,0.4-1.1,0.8-1.6c0.2-0.3,0.4-0.5,0.7-0.7c0.1-0.1,0.3-0.2,0.4-0.2
			l0.4-0.2l0.1,0.9c-0.7-0.1-1.4-0.1-2.2-0.2c-0.4,0-0.7,0-1.1,0c-0.4,0-0.6,0-1,0.1c-0.4,0.1-0.8,0.1-1.2,0.1c-0.4,0-0.8,0-1.1,0
			c-0.7,0-1.5-0.1-2.2-0.2c-0.2,0-0.4-0.2-0.4-0.5c0-0.2,0.2-0.4,0.4-0.4c1.8,0,3.5-0.1,5.3-0.3c0.9-0.1,1.7-0.3,2.5-0.6
			c0.2-0.1,0.4-0.2,0.5-0.3c0.2-0.1,0.3-0.2,0.3-0.2c0,0,0,0.1,0,0.1c0,0-0.1-0.1-0.1-0.1c-0.1-0.1-0.3-0.1-0.5-0.2
			c-0.2-0.1-0.3-0.3-0.3-0.5c0.1-0.2,0.2-0.3,0.4-0.3l0,0l0.3,0c0.1,0,0.2,0,0.3-0.1c0,0,0,0,0.1,0c0,0,0,0,0,0c0,0,0,0,0,0
			c0,0,0,0,0,0c0,0,0-0.1-0.1-0.2c0-0.1-0.1-0.1-0.2-0.2c-0.2-0.1-0.3-0.3-0.5-0.4c-0.7-0.5-1.6-0.8-2.5-1l0,0
			c-0.2,0-0.4-0.3-0.3-0.5c0-0.1,0.1-0.2,0.2-0.3c0.1-0.1,0.2-0.2,0.4-0.3c0.1-0.1,0.4-0.1,0.7,0c0.1,0.1,0.2,0.1,0.3,0.2
			c0.1,0.1,0.1,0.1,0.2,0.2c0.1,0.1,0.1,0.2,0.2,0.3c0.1,0.2,0.2,0.3,0.3,0.4c0,0,0,0,0.1,0c0,0,0.1,0,0.1,0c0.1,0,0.2,0,0.2,0
			l-0.3,0.4c0.1-1.8-0.2-3.7-0.8-5.4c-0.3-0.9-0.7-1.7-1.3-2.3c-0.3-0.3-0.6-0.6-1-0.8c-0.3-0.2-0.9-0.3-1.3-0.5
			c-3.6-1.3-7.2-2.2-11-3c-7.4-1.5-15-2.2-22.6-2.7c-7.6-0.5-15.2-1-22.8-1.6l-11.4-0.8c-3.8-0.3-7.6-0.5-11.4-0.7
			c-3.8-0.2-7.6-0.4-11.4-0.5c-3.8-0.1-7.6-0.2-11.4-0.1c-1.9,0-3.8,0-5.7,0.1c-1.9,0.1-3.8,0.1-5.7,0.2c-3.8,0.2-7.6,0.5-11.4,1
			l-5.7,0.7l-5.6,1c-1.9,0.3-3.7,0.8-5.6,1.2c-1.9,0.4-3.7,0.9-5.5,1.4c-3.6,1.1-7.1,2.8-9.9,5.4c-1.4,1.3-2.7,2.7-3.7,4.4
			c-0.5,0.8-0.9,1.7-0.8,2.7c0,0.5,0.1,1,0.5,1.3c0.2,0.1,0.5,0.1,0.7,0.1c0.1,0,0.2-0.1,0.3-0.1l0.2-0.1l0.1,0c0,0-0.1,0-0.1,0
			l-0.2,0v0c1,0.4,0.6,0.9,0.8,1.3c0.1,0.2,0.3,0.5,0.4,0.7C1306.3,557.8,1306.6,558.1,1306.8,558.2z M1306.8,558.2
			c-0.2-0.1-0.3-0.4-0.5-0.6c-0.1-0.2-0.2-0.5-0.3-0.7c-0.2-0.5-0.3-1-0.7-1.3c0,0,0,0,0,0c0,0,0.1-0.1,0,0l-0.1,0l-0.2,0.1
			c-0.1,0-0.2,0.1-0.3,0.1c-0.2,0.1-0.5,0.1-0.7-0.1c-0.4-0.3-0.5-0.8-0.5-1.3c-0.1-1,0.3-1.9,0.8-2.7c1-1.6,2.3-3.1,3.6-4.4
			c2.8-2.7,6.3-4.4,9.9-5.5c1.8-0.6,3.7-1.1,5.5-1.5c1.9-0.4,3.7-0.9,5.6-1.2l5.6-1l5.7-0.8c3.8-0.4,7.6-0.8,11.4-1
			c1.9-0.2,3.8-0.2,5.7-0.3c1.9-0.1,3.8-0.1,5.7-0.1c3.8-0.1,7.6,0,11.4,0.1c3.8,0.1,7.6,0.3,11.4,0.4c3.8,0.2,7.6,0.4,11.4,0.7
			l11.4,0.8c7.6,0.6,15.2,1.1,22.8,1.6c7.6,0.5,15.2,1.1,22.7,2.7c3.7,0.8,7.5,1.7,11.1,3c0.5,0.2,0.9,0.3,1.4,0.5
			c0.5,0.2,0.9,0.6,1.2,1c0.7,0.8,1.1,1.7,1.5,2.6c0.7,1.9,1,3.8,0.9,5.8l0,0c0,0.2-0.1,0.3-0.3,0.3c-0.2,0-0.3,0.1-0.5,0.1
			c-0.2,0-0.4,0-0.6-0.1c-0.2-0.1-0.3-0.2-0.4-0.3c-0.1-0.1-0.2-0.3-0.2-0.4c-0.1-0.1-0.1-0.2-0.2-0.3c0,0,0-0.1-0.1-0.1
			c0,0,0,0,0,0c0,0,0.1,0,0,0c0,0-0.1,0.1-0.2,0.1l-0.2-0.7c1,0.2,1.9,0.6,2.8,1.1c0.2,0.1,0.4,0.3,0.6,0.5c0.1,0.1,0.2,0.2,0.3,0.3
			c0.1,0.1,0.2,0.3,0.2,0.5c0.1,0.2,0.1,0.5-0.1,0.7c-0.1,0.1-0.2,0.2-0.2,0.2c-0.1,0-0.2,0.1-0.2,0.1c-0.1,0-0.3,0.1-0.4,0.1
			l-0.4,0l0.1-0.8c0.2,0.1,0.5,0.1,0.7,0.3c0.1,0.1,0.3,0.2,0.4,0.3c0.1,0.2,0.2,0.4,0.2,0.7c-0.2,0.5-0.4,0.6-0.6,0.7
			c-0.2,0.1-0.4,0.2-0.7,0.3c-0.9,0.3-1.8,0.5-2.7,0.7c-1.8,0.3-3.6,0.4-5.4,0.4l0.1-0.9c0.7,0.1,1.4,0.1,2.2,0.2c0.4,0,0.7,0,1.1,0
			c0.4,0,0.6,0,1-0.1c0.4-0.1,0.8-0.1,1.2-0.2c0.4,0,0.8,0,1.1,0c0.7,0,1.5,0.1,2.2,0.2c0.2,0,0.4,0.2,0.4,0.5
			c0,0.2-0.1,0.3-0.3,0.4l0,0l-0.3,0.1c-0.1,0-0.2,0.1-0.3,0.2c-0.2,0.1-0.4,0.3-0.5,0.5c-0.3,0.4-0.5,0.8-0.6,1.3
			c-0.2,0.5-0.4,1.1-0.8,1.6c-0.2,0.3-0.4,0.5-0.7,0.7c-0.1,0.1-0.3,0.2-0.4,0.2l-0.4,0.2l-0.1-0.9c1.3,0.2,2.7,0.7,3.8,1.4
			c0.2,0.1,0.3,0.4,0.2,0.6l0,0c-1.2,1.5-3,2.6-4.9,2.9l0-0.9c1.5,0.1,2.8,1,3.5,2.3c0.1,0.2,0,0.5-0.2,0.7c0,0-0.1,0-0.1,0.1
			c-1.4,0.3-2.8,0.2-4.2,0c-1.4-0.2-2.7-0.4-4-0.6l-8-1.2l-16.1-2.5c-0.3,0-0.4-0.3-0.4-0.5c0-0.3,0.3-0.4,0.5-0.4
			c5.4,0.5,10.7,1,16.1,1.8c2.7,0.4,5.3,0.9,8,1.5c2.6,0.6,5.3,1.3,7.8,2.1c0.2,0.1,0.4,0.3,0.3,0.5c0,0-0.2,0.1-0.2,0.1
			c-0.6,0.9-2,1.6-3,1.6v-0.9c1,0,0.5,0.1,0.7,0.1c0.2,0.1,0.4,0.2,0.6,0.3c0.3,0.3,0.5,0.6,0.6,0.9c0.1,0.3,0.2,0.7,0.2,1
			c0,0.2,0,0.3-0.1,0.5c0,0.1,0,0.2-0.1,0.3c0,0.1,0,0.1-0.1,0.2c-0.3,0.6-0.8,1.1-1.3,1.5c-0.5,0.4-1,0.7-1.6,0.9l0.1-0.6l1.8,2.3
			c0.1,0.2,0.1,0.4-0.1,0.6c-0.1,0.1-0.2,0.1-0.3,0.1c-12.7-1.8-25.5-3.1-38.4-4.1l-9.6-0.7c-3.2-0.2-6.4-0.4-9.6-0.6l-19.3-1
			c-12.8-0.4-25.7-0.2-38.6,0.6c-3.2,0.2-6.4,0.4-9.6,0.7c-3.2,0.3-6.4,0.6-9.6,0.9c-3.2,0.3-6.4,0.7-9.6,1.1
			c-3.2,0.4-6.4,0.9-9.6,1.4c-0.1,0-0.1,0-0.1-0.1c0,0,0-0.1,0-0.1l1.8-2.2l0,0.2c-1.1-0.8-2.5-1.4-3.8-1.7c-0.1,0-0.1-0.1-0.1-0.1
			c0,0,0,0,0-0.1c0.7-0.6,1.2-1.5,1.3-2.4l0.1,0.1c-0.8-0.2-1.6-0.5-2.3-1c0,0,0-0.1,0-0.1l1.3-2.2l0,0.1c-0.3-0.1-0.5-0.4-0.7-0.6
			c-0.2-0.3-0.3-0.5-0.4-0.8c-0.1-0.3-0.3-0.5-0.4-0.8c-0.2-0.2-0.3-0.5-0.6-0.6c0,0,0,0,0-0.1l0.1-0.5l0.1-0.3c0,0,0-0.1,0-0.1
			c0.1,0,0,0,0,0l0,0.1c-0.1,0.1-0.2,0.3-0.3,0.4c-0.1,0.1-0.3,0.2-0.5,0.1c0,0,0,0,0-0.1c0,0,0,0,0,0c0.6-0.5,0.9-1.3,0.9-2.1l0,0
			c-0.5-0.2-0.7-0.7-1.1-1.1c-0.3-0.4-0.7-0.7-1.1-1c-0.8-0.6-1.7-1-2.7-1.3c0,0,0,0,0,0l0,0C1304.9,559.8,1306,559.1,1306.8,558.2z
			"/>
	</g>
	<g>
		<path class="st20" d="M1342.3,555.6c0,0,1.2-0.4,3.4-1.1c1.1-0.4,2.4-0.7,3.9-1.1c1.5-0.4,3.3-0.8,5.2-1.1c1.9-0.4,4-0.7,6.2-1
			c2.2-0.3,4.5-0.6,7-0.8c2.4-0.2,4.9-0.4,7.5-0.5c2.5-0.1,5.1-0.2,7.7-0.2c2.6,0,5.2,0,7.7,0.1c2.5,0,5,0.2,7.5,0.3
			c2.4,0.1,4.8,0.3,7,0.5c2.2,0.2,4.3,0.4,6.2,0.6c1.9,0.2,3.7,0.4,5.3,0.6c1.6,0.2,2.9,0.4,4,0.5c2.2,0.3,3.5,0.5,3.5,0.5
			s-5.2-0.2-12.9-0.5c-1.9-0.1-4-0.1-6.2-0.2c-2.2-0.1-4.5-0.1-7-0.2c-2.4-0.1-4.9-0.1-7.4-0.1c-2.5-0.1-5.1,0-7.7,0
			c-2.6,0-5.1,0-7.7,0.2c-1.3,0-2.5,0.1-3.8,0.1c-1.2,0.1-2.5,0.1-3.7,0.2c-2.4,0.1-4.7,0.3-6.9,0.5c-1.1,0.1-2.2,0.2-3.2,0.3
			c-1,0.1-2,0.2-3,0.3c-1.9,0.3-3.7,0.5-5.2,0.7c-1.5,0.3-2.9,0.4-4,0.7C1343.6,555.4,1342.3,555.6,1342.3,555.6z"/>
	</g>
	<g>
		<path class="st20" d="M1357.1,563.6c0,0,1.2-0.2,3.4-0.4c2.2-0.3,5.3-0.7,9-1.2c3.7-0.5,8-1.1,12.7-1.6c2.3-0.2,4.7-0.5,7.2-0.7
			c1.2-0.1,2.5-0.2,3.7-0.3c1.2-0.1,2.5-0.1,3.7-0.2c1.3-0.1,2.5-0.1,3.8-0.1c1.2,0,2.5-0.1,3.7,0c2.5,0,4.9,0.1,7.2,0.2
			c2.3,0.1,4.6,0.3,6.8,0.5c2.1,0.2,4.2,0.5,6,0.8c1.9,0.3,3.5,0.6,5,0.9c1.5,0.3,2.8,0.6,3.9,0.9c2.1,0.5,3.3,0.8,3.3,0.8
			s-1.2-0.2-3.4-0.6c-1.1-0.2-2.4-0.5-3.9-0.7c-1.5-0.2-3.2-0.5-5.1-0.7c-1.9-0.2-3.9-0.5-6-0.6c-2.1-0.1-4.4-0.3-6.7-0.4
			c-2.3-0.1-4.7-0.1-7.2-0.1c-1.2,0-2.5,0-3.7,0.1c-1.2,0-2.5,0.1-3.7,0.1c-1.2,0.1-2.5,0.1-3.7,0.2c-1.2,0.1-2.5,0.2-3.7,0.2
			c-2.4,0.2-4.9,0.4-7.2,0.6c-4.7,0.5-9,0.9-12.7,1.3C1362.1,563.3,1357.1,563.6,1357.1,563.6z"/>
	</g>
	<g>
		<defs>
			<path id="SVGID_5_" d="M1350.7,454.5l-49.1,97.7c0,0,58.3-8.3,84-8.3c25.7,0,84,5.9,84,5.9s-0.9-31.4-3.2-50.9
				c-2.4-20.6-9.7-44.4-9.7-44.4H1350.7z"/>
		</defs>
		<use xlink:href="#SVGID_5_"  style="overflow:visible;fill:#E6E6E6;"/>
		<clipPath id="SVGID_6_">
			<use xlink:href="#SVGID_5_"  style="overflow:visible;"/>
		</clipPath>
		<path class="st27" d="M1337,536c-1,0.1-5.2,0-0.3,0c6.1,0,12.1-0.4,18.2-0.7c23.5-1.3,46.8-4,70.2-6.3"/>
		<path class="st27" d="M1360,511.5c-3.4,0,14.2,0,16.2,0c20.9,0,41.9,0,62.8,0"/>
		<path class="st27" d="M1356,520c23,0.5,46-2.7,69-2"/>
		<path class="st27" d="M1366,496c23,0,46.1-1.7,69-1"/>
		<path class="st27" d="M1366,482c13.6,0.4,27.3-1,41-1"/>
		<path class="st27" d="M1371,470c24.1,6.4,54.2,0.2,79,2"/>
		<use xlink:href="#SVGID_5_"  style="overflow:visible;fill:none;stroke:#120C0C;stroke-miterlimit:10;"/>
	</g>
	<path class="st19" d="M1425.6,554.9"/>
	<g>
		<path class="st20" d="M1468,551.1c0,0-1.3,0.2-3.1,0.3c-0.9,0-2,0.1-3.1,0.1c-1.1,0-2.3,0-3.5,0c-1.2,0-2.4-0.1-3.5-0.2
			c-1.1-0.1-2.2-0.1-3.1-0.2c-1.8-0.2-3.1-0.4-3.1-0.4s1.2-0.4,3-0.7c0.9-0.2,2-0.3,3.1-0.4c0.6,0,1.2-0.1,1.8-0.1
			c0.6,0,1.2,0,1.8,0c1.2,0,2.5,0.1,3.6,0.3c1.1,0.1,2.2,0.3,3.1,0.5C1466.8,550.6,1468,551.1,1468,551.1z"/>
	</g>
	<g>
		<path class="st20" d="M1466.4,554.2c0,0-0.3,0-0.8,0.1c-0.5,0.1-1.2,0.1-2,0.2c-0.8,0-1.8,0.1-2.8,0.1c-1,0-2.1,0.1-3.2,0
			c-1.1,0-2.2,0-3.2,0c-1,0-2,0-2.8-0.1c-0.8,0-1.5-0.1-2-0.2c-0.5-0.1-0.8-0.1-0.8-0.1s1.1-0.5,2.7-0.9c0.8-0.2,1.8-0.4,2.9-0.5
			c0.5-0.1,1.1-0.1,1.6-0.2c0.6,0,1.1,0,1.7-0.1c1.1,0,2.3,0.1,3.3,0.2c1.1,0.1,2,0.3,2.9,0.5
			C1465.3,553.7,1466.4,554.2,1466.4,554.2z"/>
	</g>
	<g>
		<path class="st20" d="M1463.2,576c0,0-0.3,0-0.7,0c-0.4,0-1,0-1.8,0c-0.7,0-1.6,0-2.4-0.1c-0.9,0-1.8-0.1-2.8-0.1
			c-0.9-0.1-1.9-0.1-2.8-0.2c-0.9-0.1-1.7-0.1-2.4-0.2c-0.7-0.1-1.3-0.2-1.7-0.2c-0.4-0.1-0.7-0.1-0.7-0.1s0.9-0.5,2.4-0.8
			c0.7-0.2,1.6-0.3,2.5-0.4c0.5,0,0.9-0.1,1.4-0.1c0.5,0,1,0,1.5,0c0.5,0,1,0.1,1.5,0.1c0.5,0.1,0.9,0.2,1.4,0.2
			c0.9,0.2,1.7,0.4,2.4,0.7C1462.3,575.5,1463.2,576,1463.2,576z"/>
	</g>
	<g>
		<path class="st20" d="M1332.3,571.1c0,0,1.7-0.3,4.7-0.9c1.5-0.3,3.4-0.5,5.5-0.8c2.1-0.3,4.5-0.5,7.1-0.8
			c2.6-0.2,5.5-0.5,8.5-0.6c1.5-0.1,3-0.1,4.6-0.2c1.6,0,3.2-0.1,4.8-0.1c1.6-0.1,3.3,0,5-0.1c1.7,0,3.4,0,5.1,0
			c1.7,0,3.5,0.1,5.2,0.1c1.7,0.1,3.5,0.1,5.2,0.2c3.5,0.1,7,0.4,10.4,0.6c3.4,0.2,6.8,0.5,10.1,0.8c3.3,0.3,6.4,0.6,9.4,1
			c3,0.3,5.8,0.7,8.4,1.1c2.6,0.3,5,0.7,7.1,1.1c2.1,0.3,3.9,0.6,5.4,0.9c3,0.5,4.7,0.8,4.7,0.8s-1.7-0.2-4.8-0.5
			c-1.5-0.2-3.4-0.4-5.5-0.5c-2.1-0.2-4.5-0.4-7.1-0.6c-2.6-0.2-5.4-0.5-8.4-0.7c-3-0.2-6.1-0.5-9.4-0.7c-3.3-0.3-6.6-0.4-10.1-0.6
			c-3.4-0.2-6.9-0.4-10.4-0.5c-1.7-0.1-3.5-0.1-5.2-0.2c-1.7,0-3.5-0.1-5.2-0.1c-3.4-0.1-6.8-0.1-10.1-0.1c-1.6,0-3.2,0-4.8,0
			c-1.6,0-3.1,0-4.6,0.1c-3,0-5.8,0.2-8.4,0.3c-2.6,0.2-5,0.3-7.1,0.4c-2.1,0.2-4,0.3-5.5,0.4C1334,570.9,1332.3,571.1,1332.3,571.1
			z"/>
	</g>
</g>
<g id="Слой_8">
	<path class="st24" d="M1087,135.6c1.6-1.1,2.4-3,3.3-4.7c5.5-9.7,17.1-15.6,28.2-14.4c-6.6-1.7-13.9-3.1-20,0
		c-2.1,1.1-3.9,2.6-5.6,4.2c-2.3,2-4.6,7.7-13.3,11.5C1076.3,133.6,1083.4,138.2,1087,135.6z"/>
	<path class="st24" d="M1043.6,127.8c-1.3,0.2-9.2,1.4-9.1,2.7c0,0.5,0.4,5.1,0.9,5.9c0.1,0.2,3-2.3,3.2-2.4
		c8.7-3.4,16.9-0.9,25.4,0.6C1060.3,129.7,1051,126.7,1043.6,127.8z"/>
	<path class="st28" d="M1097,131c-2.6,2.9-2.6,2.9-3.7,4.4c-0.8,1-2.2,2.5-2.4,3.9c0,0-0.1,0-0.2,0.1c0,0,0.1,0,0.1,0.1c0,0,0,0,0,0
		c4,1.9,10.9,0.8,15.2,0.2c4.2-0.6,10.1-4.5,12.4-8.5C1119.8,128.9,1102.5,124.9,1097,131z"/>
	<g>
		<path class="st7" d="M1121,129.7c0,0,0-0.3,0.2-0.7c0.2-0.4,0.5-0.9,0.8-1.3c0.4-0.4,0.7-0.7,1.1-1c0.3-0.2,0.6-0.4,0.6-0.4
			s0,0.3-0.1,0.7c-0.1,0.4-0.4,0.9-0.8,1.3c-0.4,0.4-0.8,0.7-1.1,0.9C1121.3,129.5,1121,129.7,1121,129.7z"/>
	</g>
	<g>
		<path class="st7" d="M1067.3,147c0,0,0.1,0.3-0.1,0.6c-0.1,0.4-0.4,0.8-0.8,1.1c-0.4,0.3-0.9,0.4-1.2,0.4c-0.4,0-0.6-0.1-0.6-0.1
			s0.2-0.2,0.4-0.4c0.2-0.2,0.5-0.5,0.8-0.7c0.3-0.2,0.6-0.4,0.9-0.6C1067.1,147.1,1067.3,147,1067.3,147z"/>
	</g>
	<g>
		<path class="st7" d="M1088.3,141c0,0,0.3-0.2,0.7-0.3c0.5-0.1,1.1-0.2,1.7-0.1c0.6,0.1,1.1,0.2,1.6,0.4c0.4,0.2,0.7,0.3,0.7,0.3
			s-0.3,0.2-0.8,0.2c-0.5,0.1-1.1,0.1-1.6,0c-0.6-0.1-1.1-0.2-1.5-0.3C1088.6,141.1,1088.3,141,1088.3,141z"/>
	</g>
</g>
<g id="Слой_12">
	<path class="st29" d="M1105.5,139.6c-0.3,0.1-0.7,0.2-1,0.3c-0.3,0.1-0.9,0.1-1.2,0l0,0c0.3,0,0.6,0,0.9-0.1
		C1104.6,139.7,1105.1,139.6,1105.5,139.6z"/>
	<path class="st29" d="M1107,129c-0.1,0-0.2,0-0.3,0.1c-0.1,0-0.2,0-0.3,0.1C1106.5,129,1106.7,129,1107,129z"/>
</g>
<g id="Слой_7">
	<g>
		<defs>
			<path id="SVGID_7_" d="M1173.6,133c0-46-20.5-89.5-44.7-109.3c-5.9-4.9-9.1-6.2-14.4-6.2c-3.7,0-12,2.5-20.8,9
				c-25.2,18.7-69.8,90.3-110.4,41.8c4,72,59.4,50.4,71.2,46.6c12.4-4,39.9-19.1,52.1-23.1c16.4-5.3,14.6,13.3,23.8,22.8
				c8.3,8.6,9.3,19.1,20.8,28.6c-0.6-15.7-4.5-14-5.7-24.9c-2.9-25.8,10.5-20.3,10.5-20.3s6.4,6.9,7.4,22.9
				c0.4,6.9-2.9,13.1-4.9,18.9c-3.4,10,7.2,23.6,16.6,29.2C1171.9,157.7,1173.6,142.8,1173.6,133z"/>
		</defs>
		<use xlink:href="#SVGID_7_"  style="overflow:visible;fill:#100A0A;"/>
		<clipPath id="SVGID_8_">
			<use xlink:href="#SVGID_7_"  style="overflow:visible;"/>
		</clipPath>
		<path class="st30" d="M1038.7,79.7c49.7-22,49.9-54,88.2-43.3c16.3,6,39.3,50.2,46.1,56.6c0.2-25.4-9-59.8-35.1-70.8
			c-17.1-7.2-33-19.4-50.2-13.2c-28.7,10.4-48.9,57.8-71.8,74.7C1028.3,85,1036.5,80.6,1038.7,79.7z"/>
		<path class="st31" d="M1029,107.1c2.8,0.6,5.6,0.9,8,1C1034.3,107.6,1031.6,107.2,1029,107.1z"/>
		<path class="st31" d="M1008,76.2c44.1-0.7-11,3.4-8.2-2.5c3.6,2.5,12.6,5.6,0,0c-8.6-3.9-14.5-24.3-26.1-18.6
			c-12.7,6.3-6.6,23.5-2.8,32.9c3.7,9.1,12.7,18.5,23.3,25.8L961,101c9,5.7,17.7,12.7,26.9,18.1c3.6,0.3,7.3,0.6,10.9,0.7
			c3.6,0.1-12,3.7-8.5,3.6c1.8-0.1,25.2,0.1,27,0c0.1,0,5.6,3.3,6.7,3.3c0.9,0,0.8,0.5,0,0c-1.9-1.1-0.1,0,0,0
			c2.1-0.4-8.7-2.8-6.7-3.3C997.5,114.3,996.8,76.4,1008,76.2z"/>
	</g>
	<path class="st24" d="M1101.8,139.7c-4.4-0.3-6.4-7.5-2.2-9.9c1.6-0.9,2.6-2,5.7-2c2.4,0,5.1,7.2,4.2,9.6
		C1108.6,139.6,1103,140.2,1101.8,139.7z"/>
	<path class="st32" d="M1102.8,129c-0.2,0.6-1.9,4.9,0,4.3c1.3-0.4,0.6-3.2-0.1-3.8"/>
	<g>
		<path class="st7" d="M1089.8,139.2c0,0,0-0.1,0-0.2c0-0.1,0.1-0.3,0.1-0.5c0.1-0.4,0.4-1,0.7-1.7c0.3-0.7,0.8-1.4,1.3-2.2
			c0.2-0.4,0.5-0.8,0.8-1.2c0.3-0.4,0.5-0.8,0.7-1.2c0.5-0.8,1-1.7,1.5-2.5c0.5-0.8,1.1-1.4,1.7-2c0.6-0.5,1.1-0.8,1.6-1
			c0.4-0.2,0.7-0.1,0.7-0.2c0,0-0.2,0.1-0.6,0.3c-0.4,0.2-0.8,0.6-1.2,1.2c-0.9,1.1-1.8,2.8-2.8,4.5c-0.2,0.4-0.5,0.9-0.8,1.3
			c-0.3,0.4-0.6,0.8-0.8,1.2c-0.6,0.7-1.1,1.4-1.5,2c-0.4,0.6-0.8,1.1-1,1.4C1090,138.9,1089.8,139.2,1089.8,139.2z"/>
	</g>
	<path class="st33" d="M1119.2,130c-0.9-1.2-4.3-3.2-5.7-3.7"/>
	<path class="st33" d="M1064,134.5c2.5,1.6,3.3,6,4.2,9.2c1.1,4,2.2,7.7,2.3,11.8c0.1,3.9-0.1,7.4,0.8,11.2c0.5,2.3,0.9,4.8,1,7.3
		c0.1,2.3-0.5,4.5,1.9,5.4c2,0.7,4.8,0.6,6.4-0.9c1.2-1,1.4-2.1,2.9-2.9c2.2-1.2,5.3-1.7,7.1-3.6c0.9-1,3-3.2,2.3-4.8
		c-0.3-0.8-1.8-1.4-2.6-1.7c0,0,0-0.4,0-0.4c0.8-0.3,1.6-0.1,2.3-0.4"/>
	<g>
		<path class="st7" d="M1102.3,214c0,0,0.2,0.4,0.3,0.9c0.2,0.5,0.4,1.1,0.8,1.5c0.2,0.2,0.5,0.5,0.7,0.7c0.2,0.2,0.4,0.5,0.6,0.6
			c0.3,0.4,0.6,0.6,0.7,0.6c0,0-0.1,0.1-0.3,0.1c-0.2,0-0.4,0-0.7-0.1c-0.6-0.2-1.2-0.6-1.7-1.2c-0.2-0.2-0.3-0.3-0.4-0.5
			c-0.1-0.2-0.2-0.4-0.2-0.6c-0.1-0.4-0.1-0.7,0-1C1102.2,214.4,1102.3,214,1102.3,214z"/>
	</g>
	<g>
		<path class="st7" d="M1069,116l0.3-0.2l0,0l0,0c0.1,0.1,0.1,0.2,0.1,0.4c0,0.1-0.1,0.3-0.1,0.4c-0.1,0.2-0.2,0.4-0.2,0.6
			c-0.1,0.5-0.2,0.9-0.3,1.4c-0.1,0.4-0.2,0.9-0.1,1.3c0,0.2,0.1,0.4,0.3,0.6c0.2,0.2,0.3,0.4,0.4,0.6c-0.1-0.2-0.2-0.4-0.4-0.5
			c-0.2-0.1-0.4-0.4-0.4-0.6c-0.1-0.5,0-1,0.1-1.4l0.3-1.4c0-0.2,0.2-0.5,0.3-0.7c0.1-0.2,0.2-0.4,0.1-0.6l0,0L1069,116z"/>
	</g>
	<g>
		<path class="st7" d="M1070.3,123.3c0,0,0.2,0.6,0.2,1.6c0,1,0,2.2,0.1,3.4c0,0.3,0.1,0.6,0.1,0.9c0.1,0.3,0.1,0.6,0.2,0.8
			c0.2,0.5,0.4,1,0.6,1.4c0.1,0.2,0.2,0.4,0.3,0.6c0.1,0.2,0.2,0.3,0.3,0.4c0.2,0.2,0.2,0.4,0.2,0.4s-0.1-0.1-0.4-0.2
			c-0.1-0.1-0.3-0.2-0.4-0.3c-0.2-0.1-0.3-0.3-0.5-0.5c-0.3-0.4-0.7-0.9-0.9-1.5c-0.3-0.6-0.4-1.3-0.5-1.9c-0.1-1.4,0.1-2.7,0.3-3.6
			C1070.2,124,1070.3,123.3,1070.3,123.3z"/>
	</g>
	<g>
		<path class="st7" d="M1116.3,98.7c0,0,0.1,0.2,0,0.6c0,0.3-0.3,0.7-0.3,1.1c0,0.4,0.2,0.8,0.3,1.1c0.1,0.3,0,0.6,0,0.6
			s0-0.2-0.1-0.5c-0.1-0.3-0.4-0.7-0.4-1.2c0-0.5,0.3-0.9,0.4-1.2C1116.3,98.9,1116.3,98.7,1116.3,98.7z"/>
	</g>
	<g>
		<path class="st7" d="M1116,104c0,0,0,0.5,0.2,1.2c0.1,0.7,0.4,1.6,0.7,2.5c0.1,0.4,0.3,0.9,0.5,1.3c0.2,0.4,0.4,0.7,0.7,0.9
			c0.5,0.5,0.9,0.8,0.9,0.8s-0.1-0.1-0.3-0.2c-0.2-0.1-0.4-0.3-0.7-0.5c-0.3-0.2-0.6-0.5-0.8-0.9c-0.2-0.4-0.4-0.9-0.5-1.3
			c-0.3-0.9-0.5-1.8-0.6-2.6C1116,104.5,1116,104,1116,104z"/>
	</g>
	<path class="st28" d="M1067.3,140.6c-0.1-0.1-0.3-0.2-0.4-0.3c-2.5-1-2.6-2-5.3-2.5c-3.4-0.6-10.1,1.3-12.9,3.9
		c-1.3,1.2-0.2-0.5-2.3,2.9c-1.1,3.6,5.3,4.8,10.3,4.5c7.2-0.5,10.3-2.5,11.3-4.5C1067.7,143.4,1067.5,142,1067.3,140.6z"/>
	<path class="st24" d="M1056,148.1c-3.9-0.3-5.6-6.2-1.8-8.8c1.5-1,4.7-1.5,6.2-0.3c1.8,1.4,3.3,4.9,2.4,7.1
		C1062,148.1,1057,148.5,1056,148.1z"/>
	<path class="st32" d="M1059.8,139.5c-0.2,0.6-1.6,4.9,0,4.3c1.1-0.4,0.5-3.2-0.1-3.8"/>
	<g>
		<g>
			<path class="st7" d="M1047.1,145c2.3-3.7,5.6-5.1,9.5-6.1c0.9-0.2,0.5-1.6-0.4-1.4c-0.1,0-0.2,0-0.2,0c-1,0.2-0.5,1.6,0.4,1.4
				c3.8-0.5,8.2,1.6,10.9,4.1c0.7,0.7,1.8-0.4,1.1-1.1c-3.1-3-8-5.1-12.3-4.5c0.1,0.5,0.3,1,0.4,1.4c0.1,0,0.2,0,0.2,0
				c-0.1-0.5-0.3-1-0.4-1.4c-4.4,1.1-7.8,2.7-10.4,6.8C1045.2,145.1,1046.5,145.9,1047.1,145L1047.1,145z"/>
		</g>
	</g>
	<g>
		<path class="st7" d="M1153.5,105.5c0,0,0,0.1-0.1,0.3c-0.1,0.2-0.4,0.4-0.6,0.6c-0.2,0.2-0.3,0.7-0.3,1.2
			c-0.1,0.5-0.3,1.1-0.6,1.6c-0.3,0.6-0.5,1.1-0.5,1.8c0,0.7,0.1,1.4,0.1,2.1c0.2,1.5,0.5,3.1,0.5,4.9c0,0.9-0.2,1.7-0.1,2.4
			c0,0.2,0.1,0.3,0.1,0.5c0,0.1,0.1,0.1,0.1,0.1l0,0l0,0c0,0,0,0,0,0l0,0l0.1,0.1c0,0,0,0,0.1,0.1c0.2,0.2,0.6,0.3,1,0.4
			c0.7,0.2,1.5,0.5,2.1,0.9c0.7,0.3,1.3,0.8,1.6,1.5c0.3,0.6,0.4,1.2,0.4,1.7c0,0.5-0.1,1-0.3,1.3c-0.2,0.4-0.5,0.4-0.7,0.5
			c-0.2,0.1-0.3,0.2-0.3,0.2s0.1-0.1,0.2-0.2c0.1-0.1,0.4-0.3,0.5-0.6c0.1-0.3,0.2-0.8,0.1-1.2c0-0.5-0.2-1-0.5-1.5
			c-0.3-0.5-0.8-0.8-1.4-1.1c-0.6-0.3-1.3-0.5-2.1-0.7c-0.4-0.1-0.8-0.2-1.2-0.5c-0.1,0-0.1-0.1-0.2-0.1l-0.1,0l0,0l0,0l0,0
			c-0.1-0.1-0.2-0.2-0.2-0.4c-0.1-0.2-0.2-0.5-0.2-0.7c-0.1-0.9,0-1.8,0-2.5c0-1.6-0.3-3.2-0.4-4.7c-0.1-0.8-0.1-1.6,0-2.3
			c0.1-0.8,0.4-1.4,0.7-2c0.3-0.5,0.6-1,0.7-1.5c0.1-0.5,0.2-1,0.6-1.2c0.3-0.2,0.6-0.3,0.7-0.5
			C1153.5,105.6,1153.5,105.5,1153.5,105.5z"/>
	</g>
	<g>
		<path class="st7" d="M1153.5,117c0,0,0-0.3,0.1-0.6c0.1-0.3,0.4-0.7,0.7-1c0.3-0.3,0.7-0.5,1.1-0.5c0.2,0,0.3,0,0.5,0
			c0.1,0,0.2,0.1,0.2,0.1c0,0-0.2,0.2-0.3,0.4c-0.2,0.2-0.4,0.5-0.7,0.8c-0.3,0.3-0.6,0.5-0.9,0.6
			C1153.8,116.9,1153.5,117,1153.5,117z"/>
	</g>
	<path class="st34" d="M1079.7,179.7c10.2,0.8,28.7-15.2,10.7-14.7c2.6,2.2,6,4.4-5.6,10C1082.3,176.2,1081.4,179.1,1079.7,179.7"/>
	<path class="st35" d="M1080.5,189c0,0,1,2.4,9.3,0.5c15.7-3.6,26.2-15,26.2-15s-0.2,4.3-2,10.5c-5,17-23.9,18.1-28.1,10.3
		C1084,191.9,1080.5,189,1080.5,189z"/>
	<g>
		<path class="st7" d="M1097,208.5c0,0,0.2,0,0.4-0.1c0.2-0.1,0.6-0.2,1-0.4c0.8-0.4,2-0.8,3.2-1.1c0.6-0.2,1.2-0.3,1.8-0.4
			c0.6-0.1,1.1-0.1,1.6-0.1c0.5,0,0.9,0,1.1,0.1c0.3,0.1,0.4,0.1,0.4,0.1s-0.2,0-0.4,0.1c-0.3,0.1-0.6,0.2-1.1,0.3
			c-0.9,0.3-2,0.6-3.2,0.9c-1.2,0.3-2.4,0.6-3.3,0.7c-0.5,0.1-0.9,0.1-1.1,0.1C1097.1,208.6,1097,208.5,1097,208.5z"/>
	</g>
	<g>
		<path class="st7" d="M1115,172c0,0,0.7,0,1.8,0.1c1.1,0.1,2.6,0.3,4,1l0.5,0.3l0.5,0.4c0.2,0.1,0.3,0.3,0.4,0.4
			c0.1,0.1,0.3,0.3,0.4,0.5c0.2,0.3,0.4,0.7,0.5,1c0.1,0.3,0.1,0.7,0.2,0.9c0,0.3,0,0.6,0,0.8c0,0.2-0.1,0.4-0.1,0.6
			c-0.1,0.3-0.1,0.5-0.1,0.5s0-0.2-0.1-0.5c0-0.2,0-0.4-0.1-0.6c0-0.2-0.1-0.4-0.2-0.7c-0.1-0.2-0.2-0.5-0.3-0.8
			c-0.1-0.3-0.3-0.5-0.5-0.7c-0.2-0.2-0.4-0.4-0.7-0.6l-0.4-0.3l-0.4-0.2c-0.3-0.2-0.6-0.3-0.9-0.4c-0.3-0.1-0.6-0.3-1-0.4
			c-0.6-0.2-1.2-0.4-1.8-0.6C1115.7,172.3,1115,172,1115,172z"/>
	</g>
	<g>
		<path class="st7" d="M1090.4,165c0,0,0.3-0.1,0.8-0.2c0.5-0.1,1.2-0.2,2.1-0.3c0.9-0.1,1.9-0.1,3,0c0.5,0,1.1,0.1,1.7,0.2
			c0.6,0.1,1.1,0.2,1.7,0.3c0.6,0.1,1.1,0.3,1.7,0.4c0.6,0.1,1.1,0.4,1.6,0.6c1,0.4,1.9,0.9,2.7,1.3c0.4,0.2,0.7,0.5,1,0.7
			c0.3,0.2,0.5,0.4,0.7,0.6c0.4,0.3,0.6,0.5,0.6,0.5s-0.3-0.1-0.7-0.4c-0.4-0.2-1.1-0.6-1.9-0.9c-0.8-0.3-1.7-0.7-2.7-1
			c-0.5-0.2-1-0.3-1.6-0.5c-0.5-0.2-1.1-0.3-1.6-0.4c-1.1-0.2-2.2-0.4-3.3-0.5c-1.1-0.1-2.1-0.2-2.9-0.3c-0.9-0.1-1.6-0.1-2.1-0.1
			C1090.7,165,1090.4,165,1090.4,165z"/>
	</g>
	<g>
		<path d="M1109.7,219.5c0,0-1.9-0.1-5.1,0c-1.6,0.1-3.6,0.1-5.8,0.4c-0.1,0-0.1,0-0.2,0c0,0,0,0,0,0c0,0,0-0.2,0-0.2c0,0,0,0,0,0
			l0.1,0c0.1,0,0.3,0,0.4,0c0.3,0,0.6,0,0.9,0c0.6,0,1.2,0,1.9,0c1.3-0.1,2.6-0.1,4-0.2c2.8-0.2,5.8-0.4,8.9-0.9
			c3.2-0.5,6.5-1.1,9.8-2.1c3.3-1,6.7-2.3,9.9-4c3.2-1.7,6.2-4,8.6-6.7c2.5-2.7,4.3-5.9,6.1-9.1c1.7-3.2,3.2-6.5,4.5-9.7
			c1.3-3.2,2.3-6.4,3.2-9.5c0.9-3.1,1.7-6,2.6-8.6c0.8-2.6,0.9-5.2,0.7-7.5c-0.2-2.3-0.7-4.2-1.2-5.7c-0.6-1.5-1.2-2.6-1.8-3.3
			c-0.3-0.3-0.6-0.5-0.7-0.7c-0.2-0.1-0.3-0.2-0.3-0.2s0.1,0.1,0.3,0.2c0.2,0.1,0.5,0.3,0.8,0.6c0.6,0.6,1.3,1.7,1.9,3.3
			c0.6,1.5,1.1,3.5,1.3,5.7c0.2,2.3,0.2,4.9-0.6,7.6c-0.8,2.7-1.4,5.6-2.2,8.7c-0.8,3.1-1.8,6.3-3.1,9.6c-1.2,3.3-2.7,6.6-4.5,9.9
			c-0.9,1.6-1.8,3.2-2.8,4.8c-1,1.6-2.2,3.1-3.4,4.5c-2.6,2.8-5.6,5.1-8.9,6.8c-3.3,1.8-6.7,3-10.1,4c-3.4,0.9-6.7,1.6-9.9,2
			c-3.2,0.4-6.2,0.7-9,0.8c-1.4,0.1-2.7,0.1-4,0.1c-0.6,0-1.3,0-1.9,0c-0.3,0-0.6,0-0.9,0c-0.1,0-0.3,0-0.4,0c0,0-0.1,0-0.1,0
			c0,0,0,0-0.1,0c-0.1,0-0.1-0.2,0-0.2c0.1,0,0.1,0,0.1-0.1c0.1,0,0.2,0,0.2,0c2.3-0.2,4.3-0.2,5.9-0.3
			C1107.8,219.3,1109.7,219.5,1109.7,219.5z"/>
	</g>
</g>
<g id="Слой_15" class="st36">
</g>
<g id="Слой_13">
	<line class="st37" x1="1162" y1="468.5" x2="1165" y2="468.5"/>
	<path class="st37" d="M1165,464c0.4,0.3,2.9,0.7,4.5,0.5"/>
	<line class="st37" x1="1171" y1="456.5" x2="1174" y2="456.5"/>
	<path class="st37" d="M1173,451c1.3,0.3,2.7,0.7,4,1c1.5,0.4,3.5-3,5-3"/>
	<path class="st37" d="M1159.5,486.5c-0.4-2.2,1.6-5.3,3.9-3.4c1.8,1.5,0.3,6.8-0.4,8.4"/>
	<g>
		<path d="M1182,472c0,0,0.1-0.1,0.2-0.2c0.2-0.1,0.4-0.2,0.8-0.4c0.7-0.3,1.6-0.6,2.8-0.9c1.2-0.3,2.6-0.6,4-1
			c0.8-0.2,1.5-0.4,2.2-0.6c0.7-0.2,1.6-0.4,2.4-0.5c1.6-0.2,3.3-0.2,4.8-0.3c1.5,0,2.9,0,4.1-0.1c1.2-0.1,2.2-0.2,2.9-0.3
			c0.4-0.1,0.6-0.1,0.8-0.2c0.2,0,0.3-0.1,0.3-0.1s-0.1,0-0.3,0.1c-0.2,0.1-0.4,0.2-0.8,0.3c-0.7,0.2-1.7,0.5-2.9,0.7
			c-1.2,0.2-2.6,0.3-4.2,0.4c-1.5,0.1-3.1,0.2-4.7,0.4c-0.8,0.1-1.5,0.2-2.3,0.4c-0.7,0.2-1.6,0.4-2.3,0.5c-1.5,0.3-2.9,0.5-4.1,0.7
			c-1.2,0.2-2.2,0.3-2.9,0.5c-0.3,0.1-0.6,0.2-0.8,0.2C1182.1,471.9,1182,472,1182,472z"/>
	</g>
	<g>
		<path d="M1220.5,469.5c-0.1-0.3-0.3-0.6-0.6-0.8c-0.2-0.2-0.5-0.4-0.8-0.6c-0.6-0.4-1.2-0.7-1.8-1l0.4-0.7
			c1.3,0.7,2.3,1.5,3.4,2.3l1.4,1l-1.7-0.1c-1-0.1-2.1-0.1-3.1,0.1c-0.5,0.1-1,0.2-1.4,0.5c-0.2,0.1-0.4,0.3-0.7,0.4
			c-0.2,0.2-0.4,0.3-0.6,0.5c0.1-0.2,0.3-0.5,0.4-0.7c0.2-0.2,0.4-0.4,0.6-0.6c0.4-0.4,1-0.6,1.5-0.8c1.1-0.4,2.2-0.4,3.3-0.4
			L1220.5,469.5c-1.1-0.8-2.1-1.8-3.2-2.4l0.4-0.7c0.6,0.4,1.2,0.8,1.7,1.3c0.3,0.3,0.5,0.5,0.7,0.8
			C1220.3,468.8,1220.5,469.1,1220.5,469.5z"/>
	</g>
	<path class="st37" d="M1234.5,461c1-1.1,1.4-2.3,0.9-4c-0.8,1.5-0.4,3.7,1.1,5c0.9-1,2.4-2.5,2.9-3.5c0,0.6,0.1,1.3,0.2,1.9
		c1.5-0.3,2.6-0.1,3.8-1.2c-0.3,0.8-0.1,2.4-0.3,3.3c1.1-0.6,2.8-0.9,3.8-1.9c-0.2,0.6-0.2,1.4-0.4,1.9c1.7-0.5,3.6-1.4,5.4-1.9"/>
	<path class="st38" d="M958.1,569.6c5.8,1,15.1,4.2,22.5,4.5"/>
	<path class="st38" d="M992.6,563.6c7.2-4.9,14.6-9.7,18-18"/>
	<path class="st38" d="M1106.6,512.6c7.5,1.1,20.6,8,30,12"/>
	<path class="st38" d="M1034.6,571.1c18.2-1.9,35.8-8.6,54-10.5"/>
	<path class="st38" d="M1076.6,578.6c-4.3,1.8-8.9,2.9-13.5,3C1068.1,580.6,1071.6,579.6,1076.6,578.6z"/>
	<path class="st39" d="M1082.6,589.1c9.3-0.1,24.5,2.7,33.4,0.4h6"/>
	<path class="st38" d="M1142.6,598.1c6.8-1.8,13.9-2.2,21-3"/>
	<path class="st38" d="M1351.1,587.6c29.4-12.3,58.1-2.5,99,0"/>
	<path class="st38" d="M1490.6,484.1c-6.3,2-12.8,1.6-19.5,1.5C1476.7,486,1485.2,485.2,1490.6,484.1z"/>
	<path class="st33" d="M1486.1,499.1"/>
	<path class="st38" d="M1249.1,577.1c4.9-5.1,11.3-8.2,18-10.5"/>
	<path class="st38" d="M1279.1,575.6c-6.9,5.3-15.7,7.5-22.5,12C1260.9,585.6,1274.5,576.6,1279.1,575.6z"/>
	<path class="st38" d="M1270.1,569.6c-2.2,0.5-3.9,0.9-6,1.5C1269.1,569.1,1265.1,571.6,1270.1,569.6z"/>
	<path class="st38" d="M1048.1,487.1c5-0.6,9.9-1.5,14.6-3.1c-10.8,3-21.8,7.8-32.2,11.8c15.1-0.2,32.2-8.9,47.4-11.9
		c-11.1,3.2-23.6,7-33.9,11.9c16.5-0.8,42.9-10.1,55.2-14.7"/>
	<path class="st40" d="M793.4,533.8c39.3,8.8,78.8,16.7,118.4,23.7"/>
</g>
<g id="Слой_16">
	<g>
		<g>
			<path class="st41" d="M1144,354.9c-0.8-0.4-2-0.9-3.6-1.5c-1.6-0.6-3.1-1.1-4.4-1.4c-3.9-1.1-7.2-1.5-10.4-1.6
				c-3.2-0.1-6.1,0.1-9,0.7c-2.8,0.6-5.5,1.6-8,3.1c-2.5,1.5-4.5,3.4-5.9,5.9c-1.3,2.4-1.9,5-1.6,7.7c0.3,2.7,1.5,5.4,3.5,7.9
				c2,2.5,4.8,4.5,8.4,6c3.2,1.3,6.8,2.1,10.9,2.4c4.1,0.2,8.4-0.1,12.8-0.9c-1.4,3.5-2.2,5.3-3.7,8.8c-8.7,0.5-16.8-0.6-23.9-3.8
				c-5.7-2.5-10.2-6.2-13.6-10.7c-3.4-4.5-5.2-9.4-5.6-14.1c-0.4-4.7,0.6-8.7,2.9-11.9c3.1-4.4,7.5-6.5,12.5-7.7
				c5-1.2,10.2-1.4,15.7-1.3c5.5,0.1,10.7,0.4,17,2.1c1.2,0.3,2.7,0.8,4.5,1.5c1.8,0.7,3.2,1.2,4.3,1.6
				C1145.7,350.7,1145.2,352.1,1144,354.9z"/>
			<path class="st41" d="M1191.1,359.9c0.6,2.9,0.4,5.7-1,8.5c-1.3,2.8-3.6,5.3-6.9,7.3c-3.3,2-7.2,3.3-11.7,3.7
				c-3.9,0.3-5.8,0.4-9.7,0.3c-1.6,8.1-2.5,12.1-4.5,20.1c-5.3-0.3-8-0.6-13.3-1.6c5.5-16,10-32.4,13.3-49c5.2,0.4,7.9,0.4,13.1-0.1
				c2.2-0.2,4.4-0.2,6.6-0.1c2.2,0.2,4.2,0.6,6,1.3c1.8,0.7,3.5,1.8,4.9,3.3C1189.5,355.3,1190.5,357.3,1191.1,359.9z M1180.7,362.6
				c-0.2-1.5-0.8-2.8-1.9-3.9c-1-1-2.4-1.7-4-2.2c-1.7-0.4-3.6-0.5-5.9-0.4c-1.2,0.1-1.9,0.1-3.1,0.1c-0.9,6.6-1.4,9.9-2.6,16.5
				c2.4,0,3.6,0,6.1-0.2c2.6-0.2,4.9-0.8,6.7-1.7c1.8-1,3.1-2.2,3.9-3.6S1181,364.3,1180.7,362.6z"/>
			<path class="st41" d="M1251.2,375.9c-4.2,4.5-6.4,6.1-10.8,8.6c-3.9-3.9-5.7-6.3-9.2-11.2c-8,3.8-12.3,4.2-20.9,5.6
				c-1.6,5.9-2.4,8.7-4.5,14.4c-5.5,0.9-8.3,1.7-13.8,3.1c7.7-18.3,14.3-36.7,16.1-56.6c3.7-1.3,5.5-2.1,8.9-4.1
				C1227.7,348.9,1237.1,366,1251.2,375.9z M1227.5,367.7c-5.1-8.1-7.4-12.4-12.3-20.1c-0.1,0-0.1,0.1-0.2,0.1
				c-0.5,9.9-1.3,15.2-3.1,24.7C1218.3,371,1221.5,370.4,1227.5,367.7z"/>
		</g>
	</g>
</g>
</svg>
