<svg id="White" xmlns="http://www.w3.org/2000/svg" viewBox="0 0 509.18 187.66"><defs><style>.cls-1{fill:#fc6;}.cls-2{opacity:0.2;}.cls-3{fill:#09f;}</style></defs><title>logo</title><g id="_Группа_" data-name="&lt;Группа&gt;"><g id="Text"><g id="_Группа_2" data-name="&lt;Группа&gt;"><path id="_Составной_контур_" data-name="&lt;Составной контур&gt;" d="M177.48,201.92l10.65-43.34L184,158v-7.53h15.15l13.5,53.67h.07l3.77.28v7.91H199.38V204.8l2.51-.28a2.23,2.23,0,0,0,1.52-.74,2.74,2.74,0,0,0,.07-2L202.09,196H186.61l-2,8.19,4,.28v7.91H173.31V204.8l2.18-.28Q176.89,204.33,177.48,201.92Zm16.87-41-6.15,26.51h12.31l-6-26.51Z" transform="translate(-16.63 -29.77)"/><path id="_Составной_контур_2" data-name="&lt;Составной контур&gt;" d="M218.9,212.33V204.8l2.18-.28q1.92-.28,1.92-2.6V158.66l-3.77-.28v-7.91h18.06q7.67,0,11.78,4t4.1,13.11A20.73,20.73,0,0,1,250.82,178a15.52,15.52,0,0,1-5.59,6q2.38,1.21,3.77,5.67l4.76,14.6,3.77.19v7.91H241.19V204.8l1.92-.28a1.6,1.6,0,0,0,1.52-1.67,4,4,0,0,0-.26-1.3l-3.11-9.3a9,9,0,0,0-1.62-3.3,3.28,3.28,0,0,0-2.55-1h-6v16.18l4.3.28v7.91Zm12.17-33.21h5.76q8.14,0,8.14-10.23,0-5.86-2.15-7.63t-6.91-1.77h-4.83Z" transform="translate(-16.63 -29.77)"/><path id="_Составной_контур_3" data-name="&lt;Составной контур&gt;" d="M274.14,204q7.94,0,7.94-8.93a7.59,7.59,0,0,0-3.51-6.88,22,22,0,0,0-4.8-2.42,31.27,31.27,0,0,1-4.9-2.28,19.41,19.41,0,0,1-3.94-3.21q-3.9-4.09-3.9-12.6t4.2-13.39a13.79,13.79,0,0,1,11-4.88,22.57,22.57,0,0,1,12.6,3.81v14l-6.75.65v-5.39a5.85,5.85,0,0,0-.26-2q-.73-1.77-4.66-1.77t-5.82,2q-1.89,2-1.89,6a8.75,8.75,0,0,0,1.59,5.21,7.8,7.8,0,0,0,3.14,2.46q2.08,1,4.43,2a27.24,27.24,0,0,1,4.17,2.23,21.85,21.85,0,0,1,3.8,3.35q4,4.19,4,12.93t-4.47,13.77a15,15,0,0,1-11.78,5,23.43,23.43,0,0,1-13.13-3.81V195l6.75-.65v5.67a5.81,5.81,0,0,0,.26,2,2.94,2.94,0,0,0,1.62,1.26A11.12,11.12,0,0,0,274.14,204Z" transform="translate(-16.63 -29.77)"/><path id="_Составной_контур_4" data-name="&lt;Составной контур&gt;" d="M326.41,212.33H295V204.8l2.18-.28q1.92-.28,1.92-2.6V158.66l-3.77-.28v-7.91h30.3v15.44l-6.75.65v-3.72a5.36,5.36,0,0,0-.33-2.23q-.33-.65-1.59-.65h-9.79v15.91h15.28v9.49H307.16v17.39h10.65q1.19,0,1.52-.7a5.72,5.72,0,0,0,.33-2.28v-4.65l6.75.65Z" transform="translate(-16.63 -29.77)"/><path id="_Составной_контур_5" data-name="&lt;Составной контур&gt;" d="M331.17,212.33V204.8l2.38-.28q1.72-.18,1.72-2.6V158.66l-3.77-.28v-7.91h11.91l18.72,42.69h.13V158.66l-4.37-.28v-7.91H374V158l-2.38.28q-1.59.19-1.59,2.88v51.16h-7.74L343.22,169h-.13v35.16l4.3.28v7.91Z" transform="translate(-16.63 -29.77)"/><path id="_Составной_контур_6" data-name="&lt;Составной контур&gt;" d="M378.21,201.92l10.65-43.34L384.7,158v-7.53h15.15l13.5,53.67h.07l3.77.28v7.91H400.11V204.8l2.51-.28a2.23,2.23,0,0,0,1.52-.74,2.74,2.74,0,0,0,.07-2L402.83,196H387.34l-2,8.19,4,.28v7.91H374V204.8l2.18-.28Q377.62,204.33,378.21,201.92Zm16.87-41-6.15,26.51h12.31l-6-26.51Z" transform="translate(-16.63 -29.77)"/><path id="_Составной_контур_7" data-name="&lt;Составной контур&gt;" d="M429.42,161.36v30.88q0,6.51,2.22,9.16a7.81,7.81,0,0,0,6.35,2.65,7.72,7.72,0,0,0,6.42-2.88q2.28-2.88,2.28-8.46v-34l-3.84-.28v-7.91h15.68V158l-2.18.28q-1.92.28-1.92,2.79v33.21q0,9-4.5,14.14t-12.44,5.12q-7.94,0-12-5t-4.07-15.77V158.66l-3.84-.28v-7.91h16V158l-2.18.28a2.34,2.34,0,0,0-1.52.79A4,4,0,0,0,429.42,161.36Z" transform="translate(-16.63 -29.77)"/><path id="_Составной_контур_8" data-name="&lt;Составной контур&gt;" d="M493.27,212.33H461.84V204.8l2.18-.28q1.92-.28,1.92-2.6V158.66l-3.77-.28v-7.91h15.95V158l-2.18.28q-1.92.28-1.92,3v41.48h11a1.19,1.19,0,0,0,1.22-.7,6.28,6.28,0,0,0,.3-2.28v-6.51l6.75.65Z" transform="translate(-16.63 -29.77)"/><path id="_Составной_контур_9" data-name="&lt;Составной контур&gt;" d="M504.38,201.92V159.69h-5.16q-1.52,0-1.52,2.88v4.37l-6.75-.65V150.48h34.6v15.81l-6.75.65v-4.37a5.35,5.35,0,0,0-.33-2.23q-.33-.65-1.59-.65h-4.5v44.46l5.23.28v7.91H499V204.8l3.51-.28Q504.38,204.24,504.38,201.92Z" transform="translate(-16.63 -29.77)"/></g><g id="_Группа_3" data-name="&lt;Группа&gt;"><path id="_Составной_контур_10" data-name="&lt;Составной контур&gt;" d="M200.73,122.42q-.81,7-9.35,7a15.87,15.87,0,0,1-8-2v-8.3l4.84-.33v3.75a2.18,2.18,0,0,0,.19,1,1.93,1.93,0,0,0,1,.64,7.44,7.44,0,0,0,2.49.31,2.85,2.85,0,0,0,2.44-1,5.6,5.6,0,0,0,.76-3.3V101.44l-3.7-.19v-4h12.43v3.84l-1.57.14a1.34,1.34,0,0,0-1.38,1.47v14.76A46.92,46.92,0,0,1,200.73,122.42Z" transform="translate(-16.63 -29.77)"/><path id="_Составной_контур_11" data-name="&lt;Составной контур&gt;" d="M206.85,123.46l7.64-22.11-3-.29V97.22h10.87L232,124.6h0l2.7.14v4H222.56v-3.84l1.8-.14a1.89,1.89,0,0,0,1.09-.38q.28-.29,0-1l-1-2.94H213.4L212,124.6l2.85.14v4h-11v-3.84l1.57-.14A1.69,1.69,0,0,0,206.85,123.46Zm12.1-20.93-4.41,13.52h8.83l-4.27-13.52Z" transform="translate(-16.63 -29.77)"/><path id="_Составной_контур_12" data-name="&lt;Составной контур&gt;" d="M246.47,124.5q5.69,0,5.69-4.56a3.72,3.72,0,0,0-2.52-3.51,18.83,18.83,0,0,0-3.44-1.23A27.54,27.54,0,0,1,242.7,114a14.14,14.14,0,0,1-2.82-1.64q-2.8-2.09-2.8-6.43a8.39,8.39,0,0,1,3-6.83A12,12,0,0,1,248,96.65a21.14,21.14,0,0,1,9,1.95v7.12l-4.84.33v-2.75a2.2,2.2,0,0,0-.19-1q-.52-.9-3.35-.9a7.06,7.06,0,0,0-4.18,1,3.58,3.58,0,0,0-1.35,3.08,3.64,3.64,0,0,0,1.14,2.66,5.69,5.69,0,0,0,2.25,1.26q1.49.5,3.18,1a23.11,23.11,0,0,1,3,1.14,15.3,15.3,0,0,1,2.73,1.71q2.89,2.14,2.89,6.6a8.51,8.51,0,0,1-3.2,7,13.12,13.12,0,0,1-8.45,2.56,22,22,0,0,1-9.42-1.95v-7.5l4.84-.33v2.89a2.18,2.18,0,0,0,.19,1,2.11,2.11,0,0,0,1.16.64A11,11,0,0,0,246.47,124.5Z" transform="translate(-16.63 -29.77)"/><path id="_Составной_контур_13" data-name="&lt;Составной контур&gt;" d="M276.2,96.65a12.48,12.48,0,0,1,9.42,4q3.8,4,3.8,12.17t-3.77,12.39a13,13,0,0,1-10.2,4.2q-6.43,0-10.08-4.18t-3.65-12.15A21.08,21.08,0,0,1,263,105.4a12.61,12.61,0,0,1,3.37-5.1A14.59,14.59,0,0,1,276.2,96.65Zm-8.56,16.18q0,11.77,8.16,11.77a6.24,6.24,0,0,0,6.12-3.61,17.06,17.06,0,0,0,1.61-7.78,19.78,19.78,0,0,0-1.42-7.59,6.61,6.61,0,0,0-2.44-3,7.52,7.52,0,0,0-4.25-1.09,6.43,6.43,0,0,0-4.48,1.71,8.88,8.88,0,0,0-2.59,4.13A19.35,19.35,0,0,0,267.64,112.83Z" transform="translate(-16.63 -29.77)"/><path id="_Составной_контур_14" data-name="&lt;Составной контур&gt;" d="M292.83,128.77v-3.84l1.71-.14a1.19,1.19,0,0,0,1.23-1.33V101.39l-2.7-.14v-4h8.54L315,119h.1V101.39l-3.13-.14v-4h11.58v3.84l-1.71.14q-1.14.1-1.14,1.47v26.1h-5.55l-13.71-22.11h-.1V124.6l3.08.14v4Z" transform="translate(-16.63 -29.77)"/></g><line id="_Контур_" data-name="&lt;Контур&gt;" x1="327.61" y1="82.81" x2="506.18" y2="82.81"/><rect id="_Контур_2" data-name="&lt;Контур&gt;" x="324.61" y="79.81" width="184.57" height="6"/></g><g id="Character"><g id="_Группа_4" data-name="&lt;Группа&gt;"><g id="_Группа_5" data-name="&lt;Группа&gt;"><g id="_Группа_6" data-name="&lt;Группа&gt;"><path id="_Контур_3" data-name="&lt;Контур&gt;" d="M147.45,126.24a31.3,31.3,0,0,0-4.87-13.8A82.33,82.33,0,0,0,129.81,102a120.54,120.54,0,0,1,6,37.93c0,1.29,0,2.57-.07,3.84,2.54,8.08,2.83,17.32,2.69,25.6,5.44-9.54,8.91-19.19,9.38-30.56A79.75,79.75,0,0,0,147.45,126.24Z" transform="translate(-16.63 -29.77)"/></g><path id="_Контур_4" data-name="&lt;Контур&gt;" d="M107.58,180.18l23.71,26.34a15.3,15.3,0,0,0,11.37,5.07h1.81a3.66,3.66,0,0,0,3.44-4.91l-19.27-52.82Z" transform="translate(-16.63 -29.77)"/><g id="_Группа_7" data-name="&lt;Группа&gt;"><path id="_Контур_5" data-name="&lt;Контур&gt;" class="cls-1" d="M124.89,32.45q.19-.49.36-1a14,14,0,0,1-3.75,3.9,28.2,28.2,0,0,1-15.1,4.55,59.65,59.65,0,0,1-11.8-1.34c-3-.58-13.38-5.06-15.95-5.71-6.11-1.53-9,10.81-9.8,15-1.42,7.12-.92,14.47-.27,21.64.94,10.45,5.36,20.48,11,29.21,2.35,3.62,6,7.24,10.6,5,4.15-2,8.27-4.14,12.22-6.55,2.27-1.39,4.42-3,6.69-4.38,1.56-.95,3.33-1.55,4.76-2.79.71-.62.37.15-.28-.81-.87-1.28-1.36-3.18-2.35-3.85-2.3-1.53,4.88-6.05,4.56-8.63-.18-1.5-1.24-3-1.14-4.5.13-1.92,2.51-2.31,1.08-4.53-1.25-2-2.75-2.52-3.37-5-1.24-5,.5-10.51,2.15-15.17a14.79,14.79,0,0,1,4.38-6.78A18.65,18.65,0,0,0,124.89,32.45Z" transform="translate(-16.63 -29.77)"/><path id="_Контур_6" data-name="&lt;Контур&gt;" class="cls-2" d="M107.25,41.4a36.66,36.66,0,0,1-21-5.82c-2.79-1.8-5.69-5-9.36-3.79s-5.22,5-6.84,8a38.76,38.76,0,0,0-3.74,12.54c-1.42,9.68.22,19.48,3.57,28.61,3,8.19,4.44,14,12.2,18.92-1.75-1.1,0,1.85-.89,0C75.51,88.38,73,73.05,77,60.52c.56-1.74,1.41-3.87,3.1-4.78-.35,2,3.37,7.86,3.37,7.86s2.57-6.22,3.11-7.81C91.14,42.45,112.16,41.23,107.25,41.4Z" transform="translate(-16.63 -29.77)"/><path id="_Контур_7" data-name="&lt;Контур&gt;" d="M119.74,35.58a25.14,25.14,0,0,1-13.08,4.07,36.66,36.66,0,0,1-21-5.82C82.91,32,80,28.8,76.34,30s-5.22,5-6.84,8a38.76,38.76,0,0,0-3.74,12.54c-1.42,9.68.22,19.48,3.57,28.61,3,8.19,7.35,19.46,15.11,24.37-1.75-1.1-2.91-3.59-3.81-5.4-5.71-11.56-8.23-26.89-4.22-39.43C77,57,77.83,54.9,79.52,54c-.35,2,3.37,7.86,3.37,7.86S85.46,55.62,86,54c4.55-13.34,22.07-4.25,31.09-10.55a20.61,20.61,0,0,0,8.18-12.56A30.38,30.38,0,0,1,119.74,35.58Z" transform="translate(-16.63 -29.77)"/><circle id="_Контур_8" data-name="&lt;Контур&gt;" cx="85.89" cy="33.44" r="1.68"/><path id="_Контур_9" data-name="&lt;Контур&gt;" d="M112.39,84.2A21.44,21.44,0,0,0,114.12,82a9.08,9.08,0,0,0,1.82-6.75c-.26-1.57-1.08-1.93-.52-3.65a10,10,0,0,1,2-3.16c-.8-1-2.09-1.51-2.92-2.54-2.19-2.7-1.92-7.4-1.41-10.59.69-4.33,1.91-8.69,4.43-12.26-1.61-.29-2,1-2.49,2.29-1.83,4.54-4.33,10.73-3.45,16a9.55,9.55,0,0,0,1.9,4.51c.84,1,2.53,1.87,1.86,3.45-.47,1.1-1.9,1.35-2.14,2.5-.3,1.46,1,2.74.4,4.29a3.46,3.46,0,0,0-.18.86c-3.07,2.18-9-1.27-10.91-3.6.94,3,3.95,5,6.8,6a8.85,8.85,0,0,0,3.79.6,2.13,2.13,0,0,1-.25.47,27.74,27.74,0,0,1-3.79,3.3,15.36,15.36,0,0,1-3,1.56l-.84.17-.13,0,.09,0c-10.39,1.85-24.5-6.6-24.5-6.6,18.14,13.47,29.21,7.5,29.21,7.5l.06-.15.09,0a9.2,9.2,0,0,0,1.24-.89c1.42,1.7,1.33,4.17.7,6.33a17.36,17.36,0,0,1,7.21.08C114.5,90,112.79,88.27,112.39,84.2Z" transform="translate(-16.63 -29.77)"/><path id="_Контур_10" data-name="&lt;Контур&gt;" d="M93.35,57.36s7.62,5.28,9.74,5.28,4.3-2.64,4.3-2.64Z" transform="translate(-16.63 -29.77)"/></g><path id="_Контур_11" data-name="&lt;Контур&gt;" d="M145.68,119A40.44,40.44,0,0,0,140,106.73c-4.92-7-13.08-12.78-23-16.22-5.81-2-9.74.26-14.7,3.22S92.88,99.9,88,102.64c-6.25,3.48-13.08,7.1-17,13.34-9.13,14.68-5,39.37,7.81,50.82-.68-.61,1.41-12.68,1.58-14.44.23-2.42.19-11.8,3.23-12.65s4.85,7.61,5.45,9.58c2.18,7.23-.92,16.32-4.06,22.85-2.51,5.24-5.29,10.68-9,15.15-1.53,1.82-4.47,2.9-5.73,4.51-2.12,2.73-.67,7.9-.46,11,.15,2.13-.62,6.89,1.05,8.44,2.32,2.15,6.92-.5,8.47-2.14a274.18,274.18,0,0,1,21.88-20.25l16.76-14.31C120.32,172.49,150.54,128.35,145.68,119Z" transform="translate(-16.63 -29.77)"/><path id="_Контур_12" data-name="&lt;Контур&gt;" class="cls-3" d="M143.18,119.72a38,38,0,0,0-5.27-11.5c-3.24-4.66-7.68-9.14-12.93-11.68-6-2.89-11.15-1.87-17.09.3-12.14,4.42-24.3,10.65-33.47,19.9-2.94,3-3.58,7.47-4.05,11.48A66.41,66.41,0,0,0,70,138.7c.4,9.47,3.28,17.5,7.81,25.44-.18-10.65.49-23.21,7.62-31.15a46.39,46.39,0,0,1,.63,42.06c-3.23,6.64-7.88,11-12.79,16.28-2.5,2.7-1.73,4.76-1.57,8,.13,2.62,0,5.26,0,7.88a1.73,1.73,0,0,0,2.81,1.34l41.91-36C122.11,167.68,144.86,125.74,143.18,119.72Z" transform="translate(-16.63 -29.77)"/><g id="_Группа_8" data-name="&lt;Группа&gt;"><path id="_Контур_13" data-name="&lt;Контур&gt;" class="cls-3" d="M28.06,62.19a61.49,61.49,0,0,1,2.7-18.07,46.51,46.51,0,0,1,5-12.32,46.68,46.68,0,0,0,19.35,83.61,47.41,47.41,0,0,0,4.7.6A61.48,61.48,0,0,1,28.06,62.19Z" transform="translate(-16.63 -29.77)"/><path id="_Контур_14" data-name="&lt;Контур&gt;" d="M65.24,107.31A59.09,59.09,0,0,1,19.83,86.09a46.62,46.62,0,0,0,75.35,18.26c3.13-2.88,5.8-5.7,9.86-7.36-3.37-1.65-6.48.17-9.26,1.85a58.92,58.92,0,0,1-30.54,8.47Z" transform="translate(-16.63 -29.77)"/></g></g></g><ellipse id="_Контур_15" data-name="&lt;Контур&gt;" cx="93.01" cy="183.12" rx="45.82" ry="4.54"/><g id="_Группа_9" data-name="&lt;Группа&gt;"><path id="_Контур_16" data-name="&lt;Контур&gt;" class="cls-1" d="M140.54,120.89a37.21,37.21,0,0,0-4.91-11.09c-3-4.5-7.16-8.81-12.05-11.26a16.87,16.87,0,0,0-2.51-1c-9.23,4.35-21.34,11.85-29.83,23.84a4.28,4.28,0,0,0-.76,2.47v11a4.18,4.18,0,0,0,3.93,4.24l36.88,1.67a4,4,0,0,0,2.77-.95C138.19,131,141.17,123.19,140.54,120.89Z" transform="translate(-16.63 -29.77)"/><g id="_Группа_10" data-name="&lt;Группа&gt;"><path id="_Составной_контур_15" data-name="&lt;Составной контур&gt;" d="M114.77,125.43a1.87,1.87,0,0,1,.06,1.23,17.73,17.73,0,0,1-.51,4.72,8.8,8.8,0,0,1-1.74,4.13,2.41,2.41,0,0,1-.3.24q-1.32.72-3.06,1.56a6,6,0,0,1-6-.29,10,10,0,0,1-3.76-5,15.18,15.18,0,0,1-.91-7.93,7,7,0,0,1,6.09-6.88,5.86,5.86,0,0,1,3-.12c.62.23,1.47,1.14,2.56,2.75a3,3,0,0,1,.47,1.3c.09.62,0,1-.33,1.22a19.16,19.16,0,0,1-2.29,1.19c-1.17.52-1.85.72-2,.59a.38.38,0,0,1-.14-.15,1.13,1.13,0,0,1,0-.62,1.09,1.09,0,0,0,0-.61,11.06,11.06,0,0,0-.64-1.61c-.33-.67-.66-1.06-1-1.17a8.14,8.14,0,0,0-.84,4.6,14.66,14.66,0,0,0,1.32,4.88,13,13,0,0,0,2.05,3.29c.77.87,1.41,1.26,1.89,1.17.22-.06.54-.83,1-2.29a12.44,12.44,0,0,0,.59-3,8.35,8.35,0,0,0-.15-.91,1.19,1.19,0,0,1,.14-.81,5.72,5.72,0,0,1,2.39-1.13C114,125.31,114.69,125.2,114.77,125.43Z" transform="translate(-16.63 -29.77)"/><path id="_Составной_контур_16" data-name="&lt;Составной контур&gt;" d="M117.57,108.64a3.25,3.25,0,0,1,3.54,1.28,9.33,9.33,0,0,1,1.39,4.46c.3,2.5-.05,4.26-1.09,5.16a1.48,1.48,0,0,1-.88.31l-1.14.09,2.16,3.27a2.13,2.13,0,0,0,.5.51c.31.24.52.4.62.5a1.69,1.69,0,0,1,.29.81,1.2,1.2,0,0,1-.21,1.07,5.79,5.79,0,0,1-2,1,4.59,4.59,0,0,1-2.35.49c-.25-.08-.44-.39-.55-.91a2.8,2.8,0,0,0-.27-.84l-6.94-11.53a1,1,0,0,0-.36-.26.72.72,0,0,1-.35-.29,1,1,0,0,1,.28-1.28,8.33,8.33,0,0,1,.93-.39,7,7,0,0,0,1.24-.59,6.38,6.38,0,0,0,1.31-1.26,6.46,6.46,0,0,1,1.09-1.12,2.75,2.75,0,0,1,.47-.26,2.7,2.7,0,0,1,1.17-.18A5.11,5.11,0,0,0,117.57,108.64Zm-.69,2.18a3.76,3.76,0,0,0-.93,1.25,5.3,5.3,0,0,0-.62,1.76L118,117.9a5.13,5.13,0,0,0,.55-3.65,6.93,6.93,0,0,0-1-3.16Q117.22,110.58,116.88,110.83Z" transform="translate(-16.63 -29.77)"/><path id="_Составной_контур_17" data-name="&lt;Составной контур&gt;" d="M136.46,110.53l.53.67a1,1,0,0,1,.26.5.64.64,0,0,1-.19.27,4.85,4.85,0,0,1-1.4.85,3,3,0,0,1-1.58.41,3.25,3.25,0,0,1-1.05-.7,16,16,0,0,0-1.84-1.33,15.7,15.7,0,0,0-1.36,1.92,9.61,9.61,0,0,0-1,2c.21.62.47,1.41.76,2.38.1.19.18.38.26.56a.89.89,0,0,1,0,.64.42.42,0,0,1-.12.18,5.46,5.46,0,0,1-1.74.87c-.9.33-1.4.45-1.5.38a3.52,3.52,0,0,1-.58-1.56c-.32-1.27-.52-2-.62-2.28a1.14,1.14,0,0,1-.9-.39,1.34,1.34,0,0,1-.12-.2c-.08-.15.1-.69.53-1.6l-2.89-8a2.43,2.43,0,0,0-.45-.58c-.21-.22-.29-.38-.26-.5s.13-.19.33-.33a12.36,12.36,0,0,1,2.32-1.14,5.72,5.72,0,0,1,2-.57,50.27,50.27,0,0,0,4.41,3.66A30.77,30.77,0,0,0,136.46,110.53Zm-7.72-1c-.64-.48-1.06-.8-1.24-1a21.46,21.46,0,0,1-1.84-1.7c.17.59.44,1.4.84,2.43a13.39,13.39,0,0,0,.88,2A20,20,0,0,1,128.74,109.5Z" transform="translate(-16.63 -29.77)"/></g></g></g></g></svg>