<?xml version="1.0" encoding="utf-8"?>
<!-- Generator: Adobe Illustrator 21.0.2, SVG Export Plug-In . SVG Version: 6.00 Build 0)  -->
<svg version="1.1" id="Layer_1" xmlns="http://www.w3.org/2000/svg" xmlns:xlink="http://www.w3.org/1999/xlink" x="0px" y="0px"
	 viewBox="0 0 679.8 377.9" style="enable-background:new 0 0 679.8 377.9;" xml:space="preserve">
<style type="text/css">
	.st0{fill:#F1F2F2;}
	.st1{fill:#D9DADB;}
	.st2{fill:#E6E7E8;}
	.st3{fill:#FF876C;}
	.st4{fill:#EF705B;}
	.st5{fill:#E5644E;}
	.st6{fill:#393E49;}
	.st7{fill:#FFFFFF;}
	.st8{fill:#3E434F;}
	.st9{fill:#383D48;}
	.st10{fill:#FAFAFA;}
	.st11{fill:#333236;}
	.st12{fill:#2C2B2F;}
	.st13{fill:#535B66;}
	.st14{fill:#4F5661;}
	.st15{fill:#D1D3D3;}
	.st16{fill:#83CF8F;}
	.st17{opacity:0.6;}
	.st18{opacity:0.3;}
	.st19{fill:none;}
	.st20{fill:#A7A9AC;}
	.st21{opacity:0.6;fill:#FF876C;}
	.st22{fill:#E6E7E9;}
	.st23{opacity:0.5;fill:#4E5761;}
	.st24{opacity:0.6;fill:#83CF8F;}
	.st25{opacity:0.1;}
	.st26{fill:#BCBEC0;}
	.st27{fill:#2B303A;}
	.st28{fill:#2F343E;}
	.st29{fill:#363B46;}
	.st30{opacity:0.4;fill:#FFFFFF;}
	.st31{fill:#343943;}
	.st32{fill:#484F59;}
	.st33{fill:#262A33;}
	.st34{fill:#232730;}
	.st35{opacity:5.000000e-02;}
</style>
<g>
	<g>
		
			<rect x="23.6" y="308.3" transform="matrix(0.972 -0.2351 0.2351 0.972 -71.9754 34.9838)" class="st0" width="174.2" height="22.1"/>
		<g>
			<g>
				
					<rect x="31" y="327.1" transform="matrix(0.972 -0.2349 0.2349 0.972 -77.2811 16.8951)" class="st1" width="2.6" height="11.5"/>
			</g>
			<g>
				
					<rect x="60.9" y="319.9" transform="matrix(0.9719 -0.2355 0.2355 0.9719 -74.9449 23.8078)" class="st1" width="2.6" height="11.5"/>
			</g>
			<g>
				
					<rect x="76.2" y="316.2" transform="matrix(0.972 -0.235 0.235 0.972 -73.4691 27.2271)" class="st1" width="2.6" height="11.5"/>
			</g>
			<g>
				
					<rect x="91.8" y="312.4" transform="matrix(0.972 -0.235 0.235 0.972 -72.1618 30.7883)" class="st1" width="2.6" height="11.5"/>
			</g>
			<g>
				
					<rect x="107" y="308.7" transform="matrix(0.9719 -0.2352 0.2352 0.9719 -71.0187 34.3188)" class="st1" width="2.6" height="12.2"/>
			</g>
			<g>
				
					<rect x="121.3" y="305.3" transform="matrix(0.972 -0.235 0.235 0.972 -69.7254 37.5263)" class="st1" width="2.6" height="12.2"/>
			</g>
			<g>
				
					<rect x="137.1" y="301.5" transform="matrix(0.9721 -0.2347 0.2347 0.9721 -68.3147 41.0779)" class="st1" width="2.6" height="12.2"/>
			</g>
			<g>
				
					<rect x="45.9" y="323.5" transform="matrix(0.9719 -0.2352 0.2352 0.9719 -76.1241 20.3463)" class="st1" width="2.6" height="11.5"/>
			</g>
			<g>
				<polygon class="st1" points="41.2,330.7 39.8,325.1 37.3,325.7 38.6,331.3 				"/>
			</g>
			<g>
				
					<rect x="52.9" y="321.7" transform="matrix(0.9719 -0.2353 0.2353 0.9719 -74.8665 21.8671)" class="st1" width="2.6" height="5.8"/>
			</g>
			<g>
				<polygon class="st1" points="70.8,323.5 69.5,317.9 66.9,318.6 68.3,324.2 				"/>
			</g>
			<g>
				
					<rect x="83.1" y="314.4" transform="matrix(0.9719 -0.2353 0.2353 0.9719 -72.2855 28.7709)" class="st1" width="2.6" height="5.8"/>
			</g>
			<g>
				<polygon class="st1" points="101.3,316.2 99.9,310.6 97.4,311.2 98.8,316.8 				"/>
			</g>
			<g>
				
					<rect x="113.2" y="307.1" transform="matrix(0.9721 -0.2347 0.2347 0.9721 -69.5723 35.5421)" class="st1" width="2.6" height="5.8"/>
			</g>
			<g>
				
					<rect x="128.8" y="303.4" transform="matrix(0.972 -0.2348 0.2348 0.972 -68.2721 39.1063)" class="st1" width="2.6" height="5.8"/>
			</g>
		</g>
		<g>
			<g>
				
					<rect x="147.9" y="298.8" transform="matrix(0.972 -0.2349 0.2349 0.972 -67.3706 43.5554)" class="st1" width="2.6" height="11.5"/>
			</g>
			<g>
				
					<rect x="177.8" y="291.6" transform="matrix(0.972 -0.235 0.235 0.972 -64.8758 50.4185)" class="st1" width="2.6" height="11.5"/>
			</g>
			<g>
				
					<rect x="162.8" y="295.2" transform="matrix(0.9719 -0.2353 0.2353 0.9719 -66.2281 47.0756)" class="st1" width="2.6" height="11.5"/>
			</g>
			<g>
				
					<rect x="154.8" y="297.1" transform="matrix(0.972 -0.2349 0.2349 0.972 -66.0882 45.0556)" class="st1" width="2.6" height="5.8"/>
			</g>
			<g>
				
					<rect x="169.8" y="293.5" transform="matrix(0.9719 -0.2354 0.2354 0.9719 -64.9421 48.5857)" class="st1" width="2.6" height="5.8"/>
			</g>
			<g>
				
					<rect x="184.5" y="289.9" transform="matrix(0.9719 -0.2353 0.2353 0.9719 -63.6776 51.9279)" class="st1" width="2.6" height="5.8"/>
			</g>
		</g>
		
			<rect x="26" y="328" transform="matrix(0.9722 -0.2341 0.2341 0.9722 -73.8917 35.6104)" class="st2" width="174.1" height="2.1"/>
	</g>
	<g>
		<g>
			<g>
				
					<rect x="474.4" y="105.4" transform="matrix(0.252 -0.9677 0.9677 0.252 286.9998 584.4493)" class="st3" width="94.3" height="2.2"/>
				
					<rect x="476.6" y="106" transform="matrix(0.252 -0.9677 0.9677 0.252 288.1206 587.0242)" class="st4" width="94.3" height="2.3"/>
				<polygon class="st5" points="539,62.4 536.8,61.8 513,153.1 515.2,153.6 				"/>
			</g>
			<g>
				<path class="st6" d="M539.6,51.6l0.4-6.9l-3,6.2C537.8,51.6,538.7,51.9,539.6,51.6z"/>
				<path class="st7" d="M537,51l-4.7,9.7l6.6,1.7l0.7-10.7C538.7,51.9,537.8,51.6,537,51z"/>
			</g>
			
				<rect x="510.3" y="150.6" transform="matrix(0.2518 -0.9678 0.9678 0.2518 233.7053 610.324)" class="st7" width="2.6" height="6.8"/>
			
				<rect x="505.3" y="156.5" transform="matrix(0.2524 -0.9676 0.9676 0.2524 226.5965 613.0819)" class="st8" width="9.6" height="6.8"/>
		</g>
		
			<rect x="503" y="158.3" transform="matrix(0.2525 -0.9676 0.9676 0.2525 225.4066 610.3925)" class="st6" width="9.6" height="2.1"/>
		<rect x="508" y="152.4" transform="matrix(0.25 -0.9682 0.9682 0.25 233.4109 608.1809)" class="st0" width="2.6" height="2.1"/>
	</g>
	<g>
		<g>
			<g>
				
					<rect x="491.6" y="110.3" transform="matrix(0.72 -0.694 0.694 0.72 73.5087 405.0517)" class="st8" width="94.3" height="2.2"/>
				
					<rect x="493.2" y="111.9" transform="matrix(0.72 -0.694 0.694 0.72 72.8297 406.6332)" class="st9" width="94.3" height="2.3"/>
				
					<rect x="494.7" y="113.6" transform="matrix(0.7194 -0.6946 0.6946 0.7194 72.3727 408.5733)" class="st9" width="94.3" height="2.2"/>
			</g>
			<g>
				<path class="st6" d="M582.8,74l4-5.7l-5.8,3.8C581.2,73,581.8,73.7,582.8,74z"/>
				<path class="st7" d="M580.9,72.1l-9,5.8l4.7,4.9l6.2-8.8C581.8,73.7,581.2,73,580.9,72.1z"/>
			</g>
			
				<rect x="504.1" y="143.3" transform="matrix(0.7199 -0.694 0.694 0.7199 39.7416 391.8604)" class="st7" width="2.6" height="6.8"/>
			
				<rect x="496.3" y="147.5" transform="matrix(0.7201 -0.6938 0.6938 0.7201 35.5182 389.8728)" class="st8" width="9.6" height="6.8"/>
		</g>
		
			<rect x="494.6" y="148.2" transform="matrix(0.7204 -0.6936 0.6936 0.7204 36.1661 388.1222)" class="st6" width="9.6" height="2.1"/>
		
			<rect x="502.5" y="144" transform="matrix(0.7189 -0.6951 0.6951 0.7189 40.8294 390.9426)" class="st0" width="2.6" height="2.1"/>
	</g>
	<g>
		<path class="st10" d="M112.4,329.3l0-9.6c1.6,0,3.1-0.8,3.8-2.3c1-2,0.1-4.5-1.9-5.5c-2-1-4.5-0.1-5.5,1.9
			c-0.7,1.5-0.5,3.2,0.6,4.4l-7.5,6c-0.1,0.1-0.2,0.3-0.1,0.5c0,0,0.1,0.1,0.1,0.1c0.1,0.1,0.2,0,0.3,0l7.8-6.2c0,0,0,0,0,0
			c0,0,0,0,0,0c0,0,0-0.1,0-0.1c0,0,0-0.1,0-0.1c0,0,0-0.1,0-0.1c0,0,0-0.1,0-0.1c0,0,0,0,0,0c0,0,0,0,0,0c-1.1-1-1.3-2.6-0.7-4
			c0.8-1.7,2.9-2.4,4.6-1.6c1.7,0.8,2.4,2.9,1.6,4.6c-0.6,1.3-2,2.1-3.5,1.9c0,0,0,0,0,0c0,0,0,0,0,0c0,0-0.1,0-0.1,0
			c0,0-0.1,0-0.1,0c0,0,0,0.1-0.1,0.1c0,0-0.1,0.1-0.1,0.1c0,0,0,0,0,0c0,0,0,0,0,0l0,10c0,0.1,0.1,0.2,0.2,0.3c0,0,0.1,0,0.1,0
			C112.3,329.6,112.4,329.5,112.4,329.3z"/>
		<g>
			<path class="st11" d="M115.5,329.6l-3.3-1.6c-0.4-0.2-0.9,0-1.2,0.4l-0.6,1.3l-1.4-0.7l0.6-1.3c0.2-0.4,0-0.9-0.4-1.2l-3.3-1.6
				c-0.4-0.2-0.9,0-1.2,0.4l-0.6,1.3l-1.4-0.7l0.6-1.3c0.2-0.4,0-0.9-0.4-1.2l-3.3-1.6c-0.4-0.2-0.9,0-1.2,0.4l-0.6,1.3l-3.4,7.1
				l17.5,8.4l3.4-7.1l0.6-1.3C116.1,330.4,116,329.9,115.5,329.6z"/>
			
				<rect x="101.8" y="326.2" transform="matrix(0.4327 -0.9015 0.9015 0.4327 -244.4852 283.189)" class="st12" width="1.9" height="19.4"/>
		</g>
		<g>
			<g>
				<path class="st12" d="M100.3,330.8c-0.1-0.1-0.2-0.2-0.1-0.4l1.5-3.2c0.1-0.1,0.2-0.2,0.4-0.1c0.1,0.1,0.2,0.2,0.1,0.4l-1.5,3.2
					C100.6,330.8,100.5,330.8,100.3,330.8z"/>
			</g>
			<g>
				<path class="st12" d="M106.5,334.3c-0.1-0.1-0.2-0.2-0.1-0.4l1.8-3.7c0.1-0.1,0.2-0.2,0.4-0.1c0.1,0.1,0.2,0.2,0.1,0.4l-1.8,3.7
					C106.8,334.4,106.7,334.4,106.5,334.3z"/>
			</g>
		</g>
	</g>
	<g>
		<path class="st10" d="M171.2,317.5l-8-5.4c0.9-1.3,1-3,0.2-4.4c-1.1-1.9-3.7-2.6-5.6-1.5c-2,1.1-2.6,3.7-1.5,5.6
			c0.8,1.4,2.4,2.2,4,2l0.8,9.6c0,0.2,0.2,0.3,0.4,0.3c0,0,0.1,0,0.1,0c0.1-0.1,0.2-0.2,0.2-0.3l-0.8-9.9c0,0,0,0,0,0c0,0,0,0,0,0
			c0,0,0-0.1-0.1-0.1c0,0,0-0.1-0.1-0.1c0,0-0.1,0-0.1,0c0,0-0.1,0-0.1,0c0,0,0,0,0,0c0,0,0,0,0,0c-1.5,0.3-2.9-0.4-3.7-1.6
			c-1-1.6-0.4-3.8,1.2-4.7c1.6-1,3.8-0.4,4.7,1.2c0.7,1.3,0.6,2.9-0.4,4c0,0,0,0,0,0c0,0,0,0,0,0c0,0,0,0.1,0,0.1c0,0,0,0.1,0,0.1
			c0,0,0,0.1,0.1,0.1c0,0,0,0.1,0.1,0.1c0,0,0,0,0,0c0,0,0,0,0,0l8.3,5.6c0.1,0.1,0.2,0.1,0.3,0c0,0,0.1-0.1,0.1-0.1
			C171.4,317.8,171.3,317.6,171.2,317.5z"/>
		<g>
			<path class="st11" d="M173.2,315.1l-3.2,1.9c-0.4,0.2-0.5,0.8-0.3,1.2l0.7,1.3l-1.4,0.8l-0.7-1.3c-0.2-0.4-0.8-0.6-1.2-0.3
				l-3.2,1.9c-0.4,0.2-0.5,0.8-0.3,1.2l0.7,1.3l-1.4,0.8l-0.7-1.3c-0.2-0.4-0.8-0.6-1.2-0.3L158,324c-0.4,0.2-0.5,0.8-0.3,1.2
				l0.7,1.3l4,6.8l16.7-9.8l-4-6.8l-0.7-1.3C174.2,315,173.6,314.8,173.2,315.1z"/>
			
				<rect x="161.5" y="328.2" transform="matrix(0.8631 -0.5051 0.5051 0.8631 -142.7821 131.5406)" class="st12" width="19.4" height="1.9"/>
		</g>
		<g>
			<g>
				<path class="st12" d="M165.6,328.3c-0.1,0.1-0.3,0-0.4-0.1l-1.8-3.1c-0.1-0.1,0-0.3,0.1-0.4c0.1-0.1,0.3,0,0.4,0.1l1.8,3.1
					C165.8,328.1,165.8,328.2,165.6,328.3z"/>
			</g>
			<g>
				<path class="st12" d="M172.1,325.2c-0.1,0.1-0.3,0-0.4-0.1l-2.1-3.5c-0.1-0.1,0-0.3,0.1-0.4c0.1-0.1,0.3,0,0.4,0.1l2.1,3.5
					C172.2,324.9,172.2,325.1,172.1,325.2z"/>
			</g>
		</g>
	</g>
	<g>
		<path class="st10" d="M140.8,330.3l-3.8-8.9c1.5-0.6,2.5-2,2.6-3.6c0.1-2.3-1.6-4.2-3.9-4.3c-2.3-0.1-4.2,1.6-4.3,3.9
			c-0.1,1.6,0.8,3.1,2.2,3.9l-4.6,8.4c-0.1,0.2,0,0.4,0.1,0.4c0,0,0.1,0,0.1,0c0.1,0,0.2-0.1,0.3-0.2l4.8-8.7c0,0,0,0,0,0
			c0,0,0,0,0,0c0,0,0-0.1,0-0.1s0-0.1,0-0.1c0,0-0.1-0.1-0.1-0.1c0,0,0-0.1-0.1-0.1c0,0,0,0,0,0c0,0,0,0,0,0
			c-1.4-0.5-2.2-1.9-2.2-3.4c0.1-1.9,1.7-3.4,3.6-3.3c1.9,0.1,3.4,1.7,3.3,3.6c-0.1,1.5-1.1,2.7-2.5,3.1c0,0,0,0,0,0c0,0,0,0,0,0
			c0,0,0,0.1-0.1,0.1c0,0-0.1,0.1-0.1,0.1c0,0,0,0.1,0,0.1c0,0,0,0.1,0,0.1c0,0,0,0,0,0c0,0,0,0,0,0l3.9,9.2c0,0.1,0.2,0.2,0.3,0.2
			c0,0,0.1,0,0.1,0C140.8,330.6,140.9,330.5,140.8,330.3z"/>
		<g>
			<path class="st11" d="M143.8,329.4l-3.7-0.2c-0.5,0-0.9,0.3-0.9,0.8l-0.1,1.5l-1.6-0.1l0.1-1.5c0-0.5-0.3-0.9-0.8-0.9l-3.7-0.2
				c-0.5,0-0.9,0.3-0.9,0.8l-0.1,1.5l-1.6-0.1l0.1-1.5c0-0.5-0.3-0.9-0.8-0.9l-3.7-0.2c-0.5,0-0.9,0.3-0.9,0.8l-0.1,1.5l-0.4,7.8
				l19.3,1l0.4-7.8l0.1-1.5C144.6,329.8,144.3,329.4,143.8,329.4z"/>
			
				<rect x="133.5" y="330.4" transform="matrix(5.196472e-02 -0.9986 0.9986 5.196472e-02 -212.1664 456.6235)" class="st12" width="1.9" height="19.4"/>
		</g>
		<g>
			<g>
				<path class="st12" d="M130.2,336.3c-0.2,0-0.3-0.1-0.3-0.3l0.2-3.6c0-0.2,0.1-0.3,0.3-0.3c0.2,0,0.3,0.1,0.3,0.3l-0.2,3.6
					C130.5,336.2,130.4,336.3,130.2,336.3z"/>
			</g>
			<g>
				<path class="st12" d="M137.3,337.2c-0.2,0-0.3-0.1-0.3-0.3l0.2-4.1c0-0.2,0.1-0.3,0.3-0.3c0.2,0,0.3,0.1,0.3,0.3l-0.2,4.1
					C137.6,337.1,137.4,337.2,137.3,337.2z"/>
			</g>
		</g>
	</g>
	<g>
		<g>
			<path class="st0" d="M561.5,146.2c1.8-2.5,2-5.4,0.5-6.4l-8.5-6.1c-1.5-1.1-4.2,0-5.9,2.5l-2.8,3.9l14,10L561.5,146.2z"/>
			<path class="st13" d="M544.4,170.2l14.4-20.1l-14-10l-14.4,20.1c0,0-0.1,0.1-0.1,0.1l14,10C544.3,170.3,544.3,170.2,544.4,170.2z
				"/>
		</g>
		
			<rect x="548.9" y="137.9" transform="matrix(0.5816 -0.8135 0.8135 0.5816 111.1974 509.2542)" class="st14" width="3.6" height="17.2"/>
	</g>
	<g>
		<g>
			<g>
				<polygon class="st10" points="593.3,226.9 423.8,209 411.7,324.2 613.2,345.5 623,253.3 				"/>
				<polygon class="st0" points="590.9,249.9 623,253.3 593.3,226.9 				"/>
			</g>
			<g>
				<g>
					<path class="st15" d="M440,223.8l-7.2-0.8c-0.4,0-0.7-0.4-0.6-0.8c0-0.4,0.4-0.7,0.8-0.6l7.2,0.8c0.4,0,0.7,0.4,0.6,0.8
						C440.7,223.6,440.3,223.8,440,223.8z"/>
				</g>
				<g>
					<path class="st15" d="M452,225.1l-8.1-0.9c-0.4,0-0.7-0.4-0.6-0.8c0-0.4,0.4-0.7,0.8-0.6l8.1,0.9c0.4,0,0.7,0.4,0.6,0.8
						C452.7,224.8,452.4,225.1,452,225.1z"/>
				</g>
				<g>
					<path class="st15" d="M459.7,231.6l-27.5-2.9c-0.4,0-0.7-0.4-0.6-0.8c0-0.4,0.4-0.7,0.8-0.6l27.5,2.9c0.4,0,0.7,0.4,0.6,0.8
						C460.4,231.3,460.1,231.6,459.7,231.6z"/>
				</g>
				<g>
					<path class="st15" d="M445.3,236.1l-13.7-1.4c-0.4,0-0.7-0.4-0.6-0.8c0-0.4,0.4-0.7,0.8-0.6l13.7,1.5c0.4,0,0.7,0.4,0.6,0.8
						C446,235.9,445.7,236.2,445.3,236.1z"/>
				</g>
				<g>
					<path class="st15" d="M453.6,237l-4.1-0.4c-0.4,0-0.7-0.4-0.6-0.8c0-0.4,0.4-0.7,0.8-0.6l4.1,0.4c0.4,0,0.7,0.4,0.6,0.8
						C454.3,236.8,454,237.1,453.6,237z"/>
				</g>
			</g>
			<g>
				<g>
					<path class="st15" d="M565.4,258.8l-23.1-2.4c-0.4,0-0.7-0.4-0.6-0.7c0-0.3,0.4-0.6,0.8-0.5l23.1,2.4c0.4,0,0.7,0.3,0.6,0.7
						C566.2,258.6,565.8,258.8,565.4,258.8z"/>
				</g>
				<g>
					<path class="st15" d="M599.5,262.4l-30.4-3.2c-0.4,0-0.7-0.3-0.6-0.7c0-0.3,0.4-0.6,0.8-0.5l30.4,3.2c0.4,0,0.7,0.3,0.6,0.7
						C600.3,262.2,599.9,262.4,599.5,262.4z"/>
				</g>
				<g>
					<path class="st15" d="M579.6,267.5l-43.9-4.6c-0.4,0-0.7-0.3-0.6-0.7c0-0.3,0.4-0.6,0.8-0.5l43.9,4.6c0.4,0,0.7,0.3,0.6,0.7
						C580.4,267.3,580,267.5,579.6,267.5z"/>
				</g>
				<g>
					<path class="st15" d="M604,270l-20.3-2.1c-0.4,0-0.7-0.3-0.6-0.7c0-0.3,0.4-0.6,0.8-0.5l20.3,2.1c0.4,0,0.7,0.3,0.6,0.7
						C604.7,269.8,604.3,270.1,604,270z"/>
				</g>
				<g>
					<path class="st15" d="M551.4,272.5l-16.5-1.7c-0.4,0-0.7-0.3-0.6-0.7c0-0.3,0.4-0.6,0.8-0.5l16.5,1.7c0.4,0,0.7,0.3,0.6,0.7
						C552.1,272.3,551.8,272.6,551.4,272.5z"/>
				</g>
				<g>
					<path class="st15" d="M587,276.3l-31-3.3c-0.4,0-0.7-0.3-0.6-0.7c0-0.3,0.4-0.6,0.8-0.5l31,3.3c0.4,0,0.7,0.3,0.6,0.7
						C587.8,276.1,587.4,276.3,587,276.3z"/>
				</g>
				<g>
					<path class="st15" d="M596.8,277.3l-5.9-0.6c-0.4,0-0.7-0.3-0.6-0.7c0-0.3,0.4-0.6,0.8-0.5l5.9,0.6c0.4,0,0.7,0.3,0.6,0.7
						C597.5,277.1,597.2,277.4,596.8,277.3z"/>
				</g>
			</g>
			<g>
				<g>
					<path class="st15" d="M447.5,280.3l-11.8-1.3c-0.5-0.1-0.8-0.5-0.8-1c0-0.5,0.5-0.8,1-0.8l11.8,1.3c0.5,0,0.8,0.5,0.8,1
						C448.5,280,448,280.3,447.5,280.3z"/>
				</g>
				<g>
					<path class="st15" d="M506.4,286.5l-53.7-5.7c-0.5,0-0.8-0.5-0.8-1c0-0.5,0.5-0.8,1-0.8l53.7,5.7c0.5,0,0.8,0.5,0.8,1
						C507.3,286.2,506.8,286.5,506.4,286.5z"/>
				</g>
				<g>
					<path class="st15" d="M436,289.8l-8.6-0.9c-0.5-0.1-0.8-0.5-0.8-1c0.1-0.5,0.5-0.8,1-0.8l8.6,0.9c0.5,0,0.8,0.5,0.8,1
						C436.9,289.5,436.5,289.9,436,289.8z"/>
				</g>
				<g>
					<path class="st15" d="M475.2,294l-34.7-3.7c-0.5,0-0.8-0.5-0.8-1c0-0.5,0.5-0.8,1-0.8l34.7,3.7c0.5,0.1,0.8,0.5,0.8,1
						C476.1,293.7,475.7,294,475.2,294z"/>
				</g>
				<g>
					<path class="st15" d="M510.7,297.7l-29.1-3.1c-0.5-0.1-0.8-0.5-0.8-1c0.1-0.5,0.5-0.8,1-0.8l29.1,3.1c0.5,0.1,0.8,0.5,0.8,1
						C511.6,297.4,511.2,297.8,510.7,297.7z"/>
				</g>
				<g>
					<path class="st15" d="M493.3,308.1l-67.2-7.1c-0.5,0-0.8-0.5-0.8-1c0-0.5,0.5-0.8,1-0.8l67.2,7.1c0.5,0,0.8,0.5,0.8,1
						C494.2,307.8,493.8,308.1,493.3,308.1z"/>
				</g>
				<g>
					<path class="st15" d="M509.4,309.8l-10.9-1.1c-0.5-0.1-0.8-0.5-0.8-1c0.1-0.5,0.5-0.8,1-0.8l10.9,1.2c0.5,0,0.8,0.5,0.8,1
						C510.3,309.5,509.9,309.8,509.4,309.8z"/>
				</g>
				<g>
					<path class="st15" d="M439.9,315.1l-15.2-1.6c-0.5,0-0.8-0.5-0.8-1c0-0.5,0.5-0.8,1-0.8l15.2,1.6c0.5,0.1,0.8,0.5,0.8,1
						C440.8,314.8,440.4,315.2,439.9,315.1z"/>
				</g>
				<g>
					<path class="st15" d="M508.1,322.3l-63-6.7c-0.5,0-0.8-0.5-0.8-1c0-0.5,0.5-0.8,1-0.8l63,6.7c0.5,0,0.8,0.5,0.8,1
						C509,322,508.6,322.4,508.1,322.3z"/>
				</g>
			</g>
			<g>
				<path class="st16" d="M527,318.8c-0.2,0-0.4-0.1-0.5-0.3c-0.3-0.3-0.2-0.8,0.1-1l14.9-12.3c0.2-0.2,0.6-0.2,0.9-0.1l17.7,10.7
					l10.4-10.6c0.2-0.2,0.6-0.3,0.8-0.2l9.6,4.5l23.8-8.8c0.4-0.1,0.8,0.1,0.9,0.4c0.1,0.4-0.1,0.8-0.4,0.9l-24.1,8.9
					c-0.2,0.1-0.4,0.1-0.6,0l-9.4-4.4l-10.5,10.7c-0.2,0.2-0.6,0.3-0.9,0.1L542,306.6l-14.5,12C527.3,318.7,527.1,318.8,527,318.8z"
					/>
			</g>
			<g class="st17">
				<path class="st3" d="M526.3,306.6c-0.2-0.1-0.3-0.2-0.4-0.4c-0.2-0.4,0-0.8,0.3-1l17.3-8.6c0.3-0.1,0.6-0.1,0.8,0.1l14.8,14.4
					l12.5-8c0.3-0.2,0.6-0.2,0.9,0l8.4,6.6l25.1-3.2c0.4-0.1,0.8,0.2,0.8,0.6c0.1,0.4-0.2,0.8-0.6,0.8l-25.4,3.2
					c-0.2,0-0.4,0-0.5-0.2l-8.2-6.4l-12.6,8.1c-0.3,0.2-0.7,0.1-0.9-0.1l-14.9-14.4l-16.8,8.4C526.6,306.7,526.4,306.7,526.3,306.6z
					"/>
			</g>
			<g class="st18">
				
					<rect x="581.8" y="309.7" transform="matrix(0.1051 -0.9945 0.9945 0.1051 209.2189 865.0219)" class="st19" width="6.9" height="13.2"/>
				
					<rect x="567.9" y="308.2" transform="matrix(0.1053 -0.9944 0.9944 0.1053 198.1746 849.8677)" class="st19" width="6.9" height="13.2"/>
				
					<rect x="582.6" y="302.1" transform="matrix(0.1048 -0.9945 0.9945 0.1048 217.6409 859.1)" class="st19" width="6.9" height="13.2"/>
				
					<rect x="567.1" y="315.8" transform="matrix(0.1051 -0.9945 0.9945 0.1051 189.9727 855.9301)" class="st19" width="6.9" height="13.2"/>
				
					<rect x="584.2" y="286.9" transform="matrix(0.1051 -0.9945 0.9945 0.1051 234.0508 846.985)" class="st19" width="6.9" height="13.2"/>
				
					<rect x="583.4" y="294.5" transform="matrix(0.1049 -0.9945 0.9945 0.1049 225.91 853.0848)" class="st19" width="6.9" height="13.2"/>
				
					<rect x="556.5" y="283.9" transform="matrix(0.1052 -0.9945 0.9945 0.1052 212.1466 816.8015)" class="st19" width="6.9" height="13.2"/>
				
					<rect x="570.3" y="285.4" transform="matrix(0.105 -0.9945 0.9945 0.105 223.1643 831.9386)" class="st19" width="6.9" height="13.2"/>
				
					<rect x="553.3" y="314.3" transform="matrix(0.1053 -0.9944 0.9944 0.1053 178.9583 840.79)" class="st19" width="6.9" height="13.2"/>
				
					<rect x="555.7" y="291.5" transform="matrix(0.105 -0.9945 0.9945 0.105 203.9227 822.8478)" class="st19" width="6.9" height="13.2"/>
				
					<rect x="569.5" y="293" transform="matrix(0.1051 -0.9945 0.9945 0.1051 214.8664 837.9363)" class="st19" width="6.9" height="13.2"/>
				
					<rect x="598" y="288.3" transform="matrix(0.105 -0.9945 0.9945 0.105 245.0323 862.092)" class="st19" width="6.9" height="13.2"/>
				
					<rect x="568.7" y="300.6" transform="matrix(0.1048 -0.9945 0.9945 0.1048 206.6933 844.0157)" class="st19" width="6.9" height="13.2"/>
				
					<rect x="554.9" y="299.1" transform="matrix(0.1051 -0.9945 0.9945 0.1051 195.6335 828.849)" class="st19" width="6.9" height="13.2"/>
				
					<rect x="542.6" y="282.5" transform="matrix(0.1052 -0.9945 0.9945 0.1052 201.1977 801.7147)" class="st19" width="6.9" height="13.2"/>
				
					<rect x="540.2" y="305.3" transform="matrix(0.1049 -0.9945 0.9945 0.1049 176.515 819.8577)" class="st19" width="6.9" height="13.2"/>
				
					<rect x="541" y="297.7" transform="matrix(0.1048 -0.9945 0.9945 0.1048 184.8097 813.8498)" class="st19" width="6.9" height="13.2"/>
				
					<rect x="554.1" y="306.7" transform="matrix(0.105 -0.9945 0.9945 0.105 187.3587 834.8691)" class="st19" width="6.9" height="13.2"/>
				
					<rect x="595.6" y="311.1" transform="matrix(0.1053 -0.9944 0.9944 0.1053 220.0432 880.025)" class="st19" width="6.9" height="13.2"/>
				
					<rect x="596.4" y="303.5" transform="matrix(0.1049 -0.9945 0.9945 0.1049 228.5708 874.1735)" class="st19" width="6.9" height="13.2"/>
				
					<rect x="580.2" y="324.9" transform="matrix(0.1052 -0.9945 0.9945 0.1052 192.5996 876.9962)" class="st19" width="6.9" height="13.2"/>
				
					<rect x="581" y="317.3" transform="matrix(0.1051 -0.9945 0.9945 0.1051 200.9399 871.0306)" class="st19" width="6.9" height="13.2"/>
				
					<rect x="597.2" y="295.9" transform="matrix(0.105 -0.9945 0.9945 0.105 236.7419 868.0933)" class="st19" width="6.9" height="13.2"/>
				
					<rect x="594.8" y="318.7" transform="matrix(0.1052 -0.9945 0.9945 0.1052 211.8309 886.0768)" class="st19" width="6.9" height="13.2"/>
				
					<rect x="594" y="326.3" transform="matrix(0.1049 -0.9945 0.9945 0.1049 203.6939 892.1867)" class="st19" width="6.9" height="13.2"/>
				
					<rect x="541.8" y="290.1" transform="matrix(0.1051 -0.9945 0.9945 0.1051 192.9629 807.7524)" class="st19" width="6.9" height="13.2"/>
				
					<rect x="524.8" y="319" transform="matrix(0.105 -0.9945 0.9945 0.105 148.9183 816.7245)" class="st19" width="6.9" height="13.2"/>
				
					<rect x="528.8" y="281" transform="matrix(0.1051 -0.9945 0.9945 0.1051 190.2972 786.6602)" class="st19" width="6.9" height="13.2"/>
				
					<rect x="526.4" y="303.8" transform="matrix(0.1049 -0.9945 0.9945 0.1049 165.5452 804.7566)" class="st19" width="6.9" height="13.2"/>
				
					<rect x="527.2" y="296.2" transform="matrix(0.1051 -0.9945 0.9945 0.1051 173.7523 798.6855)" class="st19" width="6.9" height="13.2"/>
				
					<rect x="528" y="288.6" transform="matrix(0.1052 -0.9945 0.9945 0.1052 181.9976 792.6547)" class="st19" width="6.9" height="13.2"/>
				
					<rect x="525.6" y="311.4" transform="matrix(0.1051 -0.9945 0.9945 0.1051 157.1982 810.7153)" class="st19" width="6.9" height="13.2"/>
				
					<rect x="566.3" y="323.4" transform="matrix(0.1051 -0.9945 0.9945 0.1051 181.6853 861.9326)" class="st19" width="6.9" height="13.2"/>
				
					<rect x="552.5" y="322" transform="matrix(0.1051 -0.9945 0.9945 0.1051 170.7863 846.8768)" class="st19" width="6.9" height="13.2"/>
				
					<rect x="539.4" y="312.9" transform="matrix(0.1051 -0.9945 0.9945 0.1051 168.1126 825.7776)" class="st19" width="6.9" height="13.2"/>
				
					<rect x="538.6" y="320.5" transform="matrix(0.1053 -0.9944 0.9944 0.1053 159.7281 831.7068)" class="st19" width="6.9" height="13.2"/>
				<path class="st20" d="M525.4,282.7l-4.9,46.4l83.8,8.9l4.9-46.4L525.4,282.7z M607.7,299l-13.1-1.4l0.7-6.9l13.1,1.4L607.7,299z
					 M566.1,302.3l0.7-6.9l13.1,1.4l-0.7,6.9L566.1,302.3z M579.1,304.4l-0.7,6.9l-13.1-1.4l0.7-6.9L579.1,304.4z M565.3,302.2
					l-13.1-1.4l0.7-6.9l13.1,1.4L565.3,302.2z M565.3,303l-0.7,6.9l-13.1-1.4l0.7-6.9L565.3,303z M550.7,308.4l-13.1-1.4l0.7-6.9
					l13.1,1.4L550.7,308.4z M550.6,309.1l-0.7,6.9l-13.1-1.4l0.7-6.9L550.6,309.1z M551.3,309.2l13.1,1.4l-0.7,6.9l-13.1-1.4
					L551.3,309.2z M563.6,318.2l-0.7,6.9l-13.1-1.4l0.7-6.9L563.6,318.2z M564.4,318.3l13.1,1.4l-0.7,6.9l-13.1-1.4L564.4,318.3z
					 M564.5,317.5l0.7-6.9l13.1,1.4l-0.7,6.9L564.5,317.5z M579,312.1l13.1,1.4l-0.7,6.9l-13.1-1.4L579,312.1z M579.1,311.4l0.7-6.9
					l13.1,1.4l-0.7,6.9L579.1,311.4z M579.9,303.8l0.7-6.9l13.1,1.4l-0.7,6.9L579.9,303.8z M580.7,296.2l0.7-6.9l13.1,1.4l-0.7,6.9
					L580.7,296.2z M580,296.1l-13.1-1.4l0.7-6.9l13.1,1.4L580,296.1z M566.1,294.7l-13.1-1.4l0.7-6.9l13.1,1.4L566.1,294.7z
					 M552.3,293.2l-13.1-1.4l0.7-6.9l13.1,1.4L552.3,293.2z M552.2,293.9l-0.7,6.9l-13.1-1.4l0.7-6.9L552.2,293.9z M537.6,299.3
					l-13.1-1.4l0.7-6.9l13.1,1.4L537.6,299.3z M537.6,300.1l-0.7,6.9l-13.1-1.4l0.7-6.9L537.6,300.1z M536.8,307.7l-0.7,6.9
					l-13.1-1.4l0.7-6.9L536.8,307.7z M536,315.3l-0.7,6.9l-13.1-1.4l0.7-6.9L536,315.3z M536.7,315.4l13.1,1.4l-0.7,6.9l-13.1-1.4
					L536.7,315.4z M549,324.3l-0.7,6.9l-13.1-1.4l0.7-6.9L549,324.3z M549.7,324.4l13.1,1.4l-0.7,6.9l-13.1-1.4L549.7,324.4z
					 M563.6,325.9l13.1,1.4l-0.7,6.9l-13.1-1.4L563.6,325.9z M577.4,327.3l13.1,1.4l-0.7,6.9l-13.1-1.4L577.4,327.3z M577.5,326.6
					l0.7-6.9l13.1,1.4l-0.7,6.9L577.5,326.6z M592.1,321.2l13.1,1.4l-0.7,6.9l-13.1-1.4L592.1,321.2z M592.1,320.5l0.7-6.9L606,315
					l-0.7,6.9L592.1,320.5z M593,312.9l0.7-6.9l13.1,1.4l-0.7,6.9L593,312.9z M593.8,305.3l0.7-6.9l13.1,1.4l-0.7,6.9L593.8,305.3z
					 M539.2,284.9l-0.7,6.9l-13.1-1.4l0.7-6.9L539.2,284.9z M522,321.5l13.1,1.4l-0.7,6.9l-13.1-1.4L522,321.5z M590.5,335.7
					l0.7-6.9l13.1,1.4l-0.7,6.9L590.5,335.7z"/>
			</g>
			<path class="st0" d="M430.3,266.2c-0.2,1.6,1,3.1,2.6,3.3l85.1,9c1.6,0.2,3.1-1,3.3-2.6l2.3-21.6c0.2-1.6-1-3.1-2.6-3.3l-85.1-9
				c-1.6-0.2-3.1,1-3.3,2.6L430.3,266.2z"/>
			<g>
				<path class="st15" d="M509.7,231.6l-34.5-3.6c-0.4,0-0.6-0.4-0.6-0.7c0-0.4,0.4-0.6,0.7-0.6l34.5,3.6c0.4,0,0.6,0.4,0.6,0.7
					C510.4,231.4,510.1,231.7,509.7,231.6z"/>
				<g>
					<path class="st15" d="M477.7,236.5l-3.4-0.4c-0.4,0-0.6-0.4-0.6-0.7c0-0.4,0.4-0.6,0.7-0.6l3.4,0.4c0.4,0,0.6,0.4,0.6,0.7
						C478.3,236.2,478,236.5,477.7,236.5z"/>
				</g>
				<g>
					<path class="st15" d="M515.4,240.4l-33.5-3.5c-0.4,0-0.6-0.4-0.6-0.7c0-0.4,0.4-0.6,0.7-0.6l33.5,3.5c0.4,0,0.6,0.4,0.6,0.7
						C516,240.2,515.7,240.5,515.4,240.4z"/>
				</g>
				<g>
					<path class="st15" d="M537,242.7l-17.6-1.9c-0.4,0-0.6-0.4-0.6-0.7c0-0.4,0.4-0.6,0.7-0.6l17.6,1.9c0.4,0,0.6,0.4,0.6,0.7
						C537.7,242.5,537.4,242.8,537,242.7z"/>
				</g>
			</g>
		</g>
		<g>
			<g>
				<polygon class="st10" points="429.5,171.9 266.3,220.9 299.6,331.9 493.7,273.7 467.1,184.8 				"/>
				<polygon class="st0" points="436.2,194.1 467.1,184.8 429.5,171.9 				"/>
			</g>
			<g>
				<path class="st15" d="M354.2,206.6l-33.2,10c-0.3,0.1-0.7-0.1-0.8-0.4c-0.1-0.3,0.1-0.7,0.4-0.8l33.2-10
					c0.3-0.1,0.7,0.1,0.8,0.4C354.7,206.1,354.5,206.5,354.2,206.6z"/>
				<g>
					<path class="st15" d="M326.5,223.4l-3.2,1c-0.3,0.1-0.7-0.1-0.8-0.4c-0.1-0.3,0.1-0.7,0.4-0.8l3.2-1c0.3-0.1,0.7,0.1,0.8,0.4
						C327,223,326.8,223.3,326.5,223.4z"/>
				</g>
				<g>
					<path class="st15" d="M362.8,212.5l-32.2,9.7c-0.3,0.1-0.7-0.1-0.8-0.4c-0.1-0.3,0.1-0.7,0.4-0.8l32.2-9.7
						c0.3-0.1,0.7,0.1,0.8,0.4C363.3,212.1,363.1,212.4,362.8,212.5z"/>
				</g>
				<g>
					<path class="st15" d="M383.6,206.3l-17,5.1c-0.3,0.1-0.7-0.1-0.8-0.4c-0.1-0.3,0.1-0.7,0.4-0.8l17-5.1c0.3-0.1,0.7,0.1,0.8,0.4
						C384.2,205.8,384,206.2,383.6,206.3z"/>
				</g>
			</g>
			<g>
				<path class="st21" d="M307.7,238.1l4,8.2c7.8-3.8,17.2-0.6,21,7.2c1.9,3.9,2.1,8.2,0.8,12l8.6,2.9c2.1-6,1.8-12.8-1.2-18.9
					C334.9,237.1,320,232,307.7,238.1z"/>
				<path class="st22" d="M325.6,274.4c-7.8,3.8-17.2,0.6-21-7.1c-3.8-7.8-0.6-17.2,7.1-21l-4-8.2c-12.3,6.1-17.3,20.9-11.3,33.2
					c6.1,12.3,20.9,17.3,33.2,11.3c6.1-3,10.5-8.3,12.5-14.3l-8.6-2.9C332.2,269.2,329.5,272.5,325.6,274.4z"/>
			</g>
			<g>
				<path class="st22" d="M354.5,253.2l7.8-3.8c-3.6-7.4-0.6-16.4,6.8-20c3.7-1.8,7.8-2,11.4-0.7c3.6,1.2,6.8,3.8,8.6,7.6
					c3.7,7.4,0.6,16.4-6.8,20c-3.3,1.7-7,1.9-10.3,1.1l-2.8,8.2c5.5,1.6,11.5,1.2,17-1.5c11.7-5.8,16.5-20,10.8-31.7
					c-2.9-5.9-7.9-10-13.6-11.9c-5.7-1.9-12.2-1.7-18.1,1.2C353.6,227.3,348.7,241.5,354.5,253.2z"/>
				<path class="st23" d="M362.3,249.4l-7.8,3.8c3.1,6.2,8.5,10.5,14.7,12.3l2.8-8.2C367.9,256.2,364.3,253.4,362.3,249.4z"/>
			</g>
			<g>
				<g>
					<g>
						
							<rect x="428.1" y="264.2" transform="matrix(0.9561 -0.2931 0.2931 0.9561 -61.037 138.0942)" class="st2" width="4.4" height="17"/>
						
							<rect x="432.8" y="266.4" transform="matrix(0.956 -0.2934 0.2934 0.956 -60.9905 139.6404)" class="st24" width="4.3" height="13.5"/>
						
							<rect x="437.4" y="268.3" transform="matrix(0.9559 -0.2936 0.2936 0.9559 -60.9023 141.1273)" class="st0" width="4.4" height="10.2"/>
						
							<rect x="440.2" y="258.2" transform="matrix(0.956 -0.2934 0.2934 0.956 -59.1053 141.6119)" class="st23" width="4.4" height="19.2"/>
						
							<rect x="446" y="267.7" transform="matrix(0.956 -0.2933 0.2933 0.956 -60.0112 143.4136)" class="st2" width="4.4" height="8.2"/>
					</g>
					<g>
						
							<rect x="458.7" y="261.8" transform="matrix(0.9561 -0.293 0.293 0.9561 -57.9581 146.7466)" class="st2" width="4.3" height="10.2"/>
						
							<rect x="462" y="254.4" transform="matrix(0.9559 -0.2938 0.2938 0.9559 -56.6755 147.9776)" class="st21" width="4.4" height="16.4"/>
						
							<rect x="466.4" y="255.1" transform="matrix(0.956 -0.2934 0.2934 0.956 -56.3327 149.0358)" class="st0" width="4.4" height="14.4"/>
						
							<rect x="471" y="256.8" transform="matrix(0.9559 -0.2938 0.2938 0.9559 -56.2222 150.5988)" class="st23" width="4.4" height="11.4"/>
						
							<rect x="474.2" y="248.7" transform="matrix(0.9559 -0.2936 0.2936 0.9559 -54.7102 151.2444)" class="st2" width="4.4" height="18.4"/>
					</g>
				</g>
			</g>
			<g>
				<path class="st24" d="M278.6,227.3c0.3,1,1.3,1.5,2.3,1.2l16.6-5c1-0.3,1.5-1.3,1.2-2.3l0,0c-0.3-1-1.3-1.5-2.3-1.2l-16.6,5
					C278.8,225.3,278.3,226.4,278.6,227.3L278.6,227.3z"/>
				<path class="st15" d="M280.5,232.9c0.1,0.3,0.4,0.5,0.7,0.4l18.5-5.6c0.3-0.1,0.5-0.4,0.4-0.7l0,0c-0.1-0.3-0.4-0.5-0.7-0.4
					l-18.5,5.6C280.6,232.3,280.4,232.6,280.5,232.9L280.5,232.9z"/>
				<path class="st15" d="M282.2,236.5l8.7-2.6l9.8-2.9l8.7-2.6c0.3-0.1,0.6,0.1,0.7,0.4c0.1,0.3-0.1,0.6-0.4,0.7L301,232l-9.8,2.9
					l-8.7,2.6c-0.3,0.1-0.6-0.1-0.7-0.4C281.7,236.9,281.9,236.6,282.2,236.5z"/>
			</g>
			<g>
				<path class="st24" d="M402.8,219.5c0.3,1,1.3,1.5,2.3,1.2l16.6-5c1-0.3,1.5-1.3,1.2-2.3l0,0c-0.3-1-1.3-1.5-2.3-1.2l-16.6,5
					C403.1,217.5,402.5,218.5,402.8,219.5L402.8,219.5z"/>
				<path class="st15" d="M404.8,225.1c0.1,0.3,0.4,0.5,0.7,0.4l18.5-5.6c0.3-0.1,0.5-0.4,0.4-0.7l0,0c-0.1-0.3-0.4-0.5-0.7-0.4
					l-18.5,5.6C404.8,224.4,404.7,224.8,404.8,225.1L404.8,225.1z"/>
				<path class="st15" d="M406.4,228.6l8.7-2.6l9.8-2.9l8.7-2.6c0.3-0.1,0.6,0.1,0.7,0.4c0.1,0.3-0.1,0.6-0.4,0.7l-8.7,2.6l-9.8,2.9
					l-8.7,2.6c-0.3,0.1-0.6-0.1-0.7-0.4C406,229,406.1,228.7,406.4,228.6z"/>
			</g>
			<g>
				<g>
					<path class="st15" d="M459.8,237l5.4-1.6c0.3-0.1,0.6,0.1,0.7,0.4c0.1,0.3-0.1,0.6-0.4,0.7l-5.4,1.6c-0.3,0.1-0.6-0.1-0.7-0.4
						C459.3,237.4,459.5,237.1,459.8,237z"/>
				</g>
				<g>
					<path class="st15" d="M435.2,244.4l21.8-6.5c0.3-0.1,0.6,0.1,0.7,0.4c0.1,0.3-0.1,0.6-0.4,0.7l-21.8,6.5
						c-0.3,0.1-0.6-0.1-0.7-0.4C434.7,244.8,434.9,244.5,435.2,244.4z"/>
				</g>
				<g>
					<path class="st15" d="M412.9,251.1l18.3-5.5c0.3-0.1,0.6,0.1,0.7,0.4c0.1,0.3-0.1,0.6-0.4,0.7l-18.3,5.5
						c-0.3,0.1-0.6-0.1-0.7-0.4C412.5,251.5,412.6,251.1,412.9,251.1z"/>
				</g>
				<g>
					<g>
						<path class="st15" d="M420.7,240.5l42.2-12.7c0.3-0.1,0.6,0.1,0.7,0.4c0.1,0.3-0.1,0.6-0.4,0.7l-42.2,12.7
							c-0.3,0.1-0.6-0.1-0.7-0.4C420.3,240.9,420.4,240.5,420.7,240.5z"/>
					</g>
					<g>
						<path class="st15" d="M410.7,243.5l6.8-2c0.3-0.1,0.6,0.1,0.7,0.4c0.1,0.3-0.1,0.6-0.4,0.7l-6.8,2c-0.3,0.1-0.6-0.1-0.7-0.4
							C410.2,243.9,410.4,243.6,410.7,243.5z"/>
					</g>
					<g>
						<path class="st15" d="M451,222.8l9.5-2.9c0.3-0.1,0.6,0.1,0.7,0.4c0.1,0.3-0.1,0.6-0.4,0.7l-9.5,2.9c-0.3,0.1-0.6-0.1-0.7-0.4
							C450.6,223.2,450.7,222.9,451,222.8z"/>
					</g>
					<g>
						<path class="st15" d="M408.3,235.6l39.5-11.9c0.3-0.1,0.6,0.1,0.7,0.4c0.1,0.3-0.1,0.6-0.4,0.7l-39.5,11.9
							c-0.3,0.1-0.6-0.1-0.7-0.4C407.8,236,408,235.7,408.3,235.6z"/>
					</g>
				</g>
			</g>
			<g>
				<g>
					<path class="st15" d="M313.9,296.8l-6.8,2.1c-0.3,0.1-0.6-0.1-0.6-0.4c-0.1-0.3,0.1-0.6,0.3-0.6l6.8-2.1
						c0.3-0.1,0.6,0.1,0.7,0.4C314.3,296.5,314.2,296.8,313.9,296.8z"/>
				</g>
				<g>
					<path class="st15" d="M347.8,286.6l-31,9.3c-0.3,0.1-0.6-0.1-0.7-0.4c-0.1-0.3,0.1-0.6,0.4-0.6l31-9.3c0.3-0.1,0.6,0.1,0.7,0.4
						C348.3,286.3,348.1,286.6,347.8,286.6z"/>
				</g>
				<g>
					<path class="st15" d="M309.7,304.8l-5,1.5c-0.3,0.1-0.6-0.1-0.6-0.4c-0.1-0.3,0.1-0.6,0.3-0.6l5-1.5c0.3-0.1,0.6,0.1,0.6,0.3
						C310.1,304.4,310,304.7,309.7,304.8z"/>
				</g>
				<g>
					<path class="st15" d="M332.3,298l-20,6c-0.3,0.1-0.6-0.1-0.6-0.4c-0.1-0.3,0.1-0.6,0.3-0.6l20-6c0.3-0.1,0.6,0.1,0.7,0.4
						C332.8,297.6,332.6,297.9,332.3,298z"/>
				</g>
				<g>
					<path class="st15" d="M352.8,291.8l-16.8,5c-0.3,0.1-0.6-0.1-0.6-0.4c-0.1-0.3,0.1-0.6,0.3-0.6l16.8-5c0.3-0.1,0.6,0.1,0.6,0.4
						C353.3,291.5,353.1,291.8,352.8,291.8z"/>
				</g>
				<g>
					<path class="st15" d="M345.6,301.6l-38.8,11.7c-0.3,0.1-0.6-0.1-0.6-0.4c-0.1-0.3,0.1-0.6,0.3-0.6l38.8-11.7
						c0.3-0.1,0.6,0.1,0.6,0.3C346.1,301.2,345.9,301.5,345.6,301.6z"/>
				</g>
				<g>
					<path class="st15" d="M354.9,298.8l-6.3,1.9c-0.3,0.1-0.6-0.1-0.7-0.4c-0.1-0.3,0.1-0.6,0.4-0.6l6.3-1.9
						c0.3-0.1,0.6,0.1,0.6,0.3C355.4,298.4,355.2,298.7,354.9,298.8z"/>
				</g>
				<g>
					<path class="st15" d="M317.7,317.9l-8.8,2.6c-0.3,0.1-0.6-0.1-0.6-0.3c-0.1-0.3,0.1-0.6,0.3-0.7l8.8-2.6
						c0.3-0.1,0.6,0.1,0.7,0.3C318.2,317.5,318,317.8,317.7,317.9z"/>
				</g>
				<g>
					<path class="st15" d="M357.1,306.1L320.8,317c-0.3,0.1-0.6-0.1-0.6-0.3c-0.1-0.3,0.1-0.6,0.4-0.7l36.3-10.9
						c0.3-0.1,0.6,0.1,0.6,0.3C357.5,305.7,357.4,306,357.1,306.1z"/>
				</g>
			</g>
			<g>
				<g>
					<path class="st15" d="M374.4,278.7l-6.8,2.1c-0.3,0.1-0.6-0.1-0.6-0.3c-0.1-0.3,0.1-0.6,0.3-0.6l6.8-2.1
						c0.3-0.1,0.6,0.1,0.7,0.3C374.8,278.3,374.7,278.6,374.4,278.7z"/>
				</g>
				<g>
					<path class="st15" d="M408.3,268.5l-31,9.3c-0.3,0.1-0.6-0.1-0.7-0.4c-0.1-0.3,0.1-0.6,0.4-0.6l31-9.3c0.3-0.1,0.6,0.1,0.7,0.3
						C408.8,268.1,408.6,268.4,408.3,268.5z"/>
				</g>
				<g>
					<path class="st15" d="M370.2,286.6l-5,1.5c-0.3,0.1-0.6-0.1-0.6-0.3c-0.1-0.3,0.1-0.6,0.3-0.7l5-1.5c0.3-0.1,0.6,0.1,0.6,0.4
						C370.6,286.3,370.5,286.5,370.2,286.6z"/>
				</g>
				<g>
					<path class="st15" d="M392.8,279.8l-20,6c-0.3,0.1-0.6-0.1-0.6-0.4c-0.1-0.3,0.1-0.6,0.4-0.6l20-6c0.3-0.1,0.6,0.1,0.7,0.3
						C393.3,279.5,393.1,279.8,392.8,279.8z"/>
				</g>
				<g>
					<path class="st15" d="M413.3,273.7l-16.8,5c-0.3,0.1-0.6-0.1-0.7-0.3c-0.1-0.3,0.1-0.6,0.4-0.7l16.8-5c0.3-0.1,0.6,0.1,0.6,0.4
						C413.8,273.3,413.6,273.6,413.3,273.7z"/>
				</g>
				<g>
					<path class="st15" d="M406.1,283.4l-38.8,11.7c-0.3,0.1-0.6-0.1-0.6-0.4c-0.1-0.3,0.1-0.6,0.3-0.6l38.8-11.7
						c0.3-0.1,0.6,0.1,0.6,0.4C406.6,283.1,406.4,283.4,406.1,283.4z"/>
				</g>
				<g>
					<path class="st15" d="M415.4,280.6l-6.3,1.9c-0.3,0.1-0.6-0.1-0.7-0.4c-0.1-0.3,0.1-0.6,0.4-0.6l6.3-1.9
						c0.3-0.1,0.6,0.1,0.6,0.3C415.8,280.3,415.7,280.6,415.4,280.6z"/>
				</g>
				<g>
					<path class="st15" d="M378.2,299.7l-8.8,2.6c-0.3,0.1-0.6-0.1-0.6-0.4c-0.1-0.3,0.1-0.6,0.3-0.6l8.8-2.6
						c0.3-0.1,0.6,0.1,0.7,0.3C378.7,299.3,378.5,299.6,378.2,299.7z"/>
				</g>
				<g>
					<path class="st15" d="M417.6,287.9l-36.3,10.9c-0.3,0.1-0.6-0.1-0.7-0.4c-0.1-0.3,0.1-0.6,0.3-0.7l36.3-10.9
						c0.3-0.1,0.6,0.1,0.6,0.4C418,287.5,417.9,287.8,417.6,287.9z"/>
				</g>
			</g>
		</g>
		<g class="st25">
			<polygon class="st26" points="480.7,215 476,214.5 493.8,273.7 414.5,297.5 413.9,303 499.4,277.4 			"/>
		</g>
	</g>
	<g>
		<path class="st27" d="M302.8,305.7c-0.8,4.8,3.8,1.8,6.5,3.6c2.7,1.8,50,31.5,50,31.5l1.4-5.6
			C360.8,335.1,303.8,300.2,302.8,305.7z"/>
		<path class="st28" d="M321,310.7c-1.6,4.6-4.2-0.3-7.4,0c-3.2,0.2-59.1,3.1-59.1,3.1l1.5-5.6C256.1,308.2,322.9,305.5,321,310.7z"
			/>
		<g>
			<g>
				<g>
					<path class="st29" d="M297.7,304.1l-28.7-6.9c-6.1-1.5-12.3,2.3-13.8,8.4l-1.3,5.3c-1.5,6.1,2.3,12.3,8.4,13.8l28.7,6.9
						c6.1,1.5,12.3-2.3,13.8-8.4l1.3-5.3C307.6,311.8,303.8,305.6,297.7,304.1z M299.8,321.3c-1.1,4.6-6,7.3-10.9,6.1l-23-5.6
						c-4.9-1.2-8-5.8-6.9-10.4l1-4c1.1-4.6,6-7.3,10.9-6.1l23,5.6c4.9,1.2,8,5.8,6.9,10.4L299.8,321.3z"/>
					<path class="st30" d="M293.9,307l-23-5.6c-4.9-1.2-9.8,1.5-10.9,6.1l-1,4c-1.1,4.6,2,9.2,6.9,10.4l23,5.6
						c4.9,1.2,9.8-1.5,10.9-6.1l1-4C301.9,312.8,298.8,308.2,293.9,307z"/>
				</g>
				<g class="st25">
					<path class="st7" d="M274,302.2l-11.1,18.4c0.7,0.4,1.5,0.8,2.3,1.1l11.3-18.9L274,302.2z"/>
					<path class="st7" d="M277.2,302.9l-11.4,18.9c0,0,0,0,0,0l1.4,0.3l11.4-18.9L277.2,302.9z"/>
					<polygon class="st7" points="279.4,303.5 268,322.4 271.9,323.3 283.3,304.4 					"/>
				</g>
			</g>
			<g>
				<g>
					<path class="st29" d="M356.1,318.2l-28.7-6.9c-6.1-1.5-12.3,2.3-13.8,8.4l-1.3,5.3c-1.5,6.1,2.3,12.3,8.4,13.8l28.7,6.9
						c6.1,1.5,12.3-2.3,13.8-8.4l1.3-5.3C366,325.9,362.2,319.7,356.1,318.2z M358.3,335.4c-1.1,4.6-6,7.3-10.9,6.1l-23-5.6
						c-4.9-1.2-8-5.8-6.9-10.4l1-4c1.1-4.6,6-7.3,10.9-6.1l23,5.6c4.9,1.2,8,5.8,6.9,10.4L358.3,335.4z"/>
					<path class="st30" d="M352.3,321.1l-23-5.6c-4.9-1.2-9.8,1.5-10.9,6.1l-1,4c-1.1,4.6,2,9.2,6.9,10.4l23,5.6
						c4.9,1.2,9.8-1.5,10.9-6.1l1-4C360.3,326.9,357.2,322.3,352.3,321.1z"/>
				</g>
				<g class="st25">
					<path class="st7" d="M332.5,316.3l-11.1,18.4c0.7,0.4,1.5,0.8,2.3,1.1l11.4-18.9L332.5,316.3z"/>
					<path class="st7" d="M335.7,317.1L324.3,336c0,0,0,0,0,0l1.3,0.3l11.4-18.9L335.7,317.1z"/>
					<polygon class="st7" points="337.8,317.6 326.5,336.5 330.4,337.4 341.7,318.5 					"/>
				</g>
			</g>
			<g>
				<path class="st29" d="M317.9,323.4l-3.6-1.3c0,0,0.7-2.2-0.2-3.9c-0.5-1-1.6-1.7-3.3-2.1c-1.7-0.4-3-0.3-4.1,0.4
					c-1.7,1.1-2.2,3.3-2.2,3.3l-3.7-0.7c0-0.2,0.8-3.8,3.9-5.8c1.9-1.3,4.3-1.5,7-0.9c2.7,0.7,4.7,2,5.7,4
					C319.2,319.6,318,323,317.9,323.4z"/>
			</g>
		</g>
	</g>
	<g>
		<g>
			<path class="st31" d="M582.1,214.6c-0.4-1.2,0.1-2.4,1.1-2.8l40.1-15.2c1.1-0.4,2.3,0.2,2.7,1.4l4.4,11.5l-43.9,16.7L582.1,214.6
				z"/>
			<path class="st31" d="M655.8,276.5c0.4,1.2-0.1,2.4-1.1,2.8l-40.1,15.2c-1.1,0.4-2.3-0.2-2.7-1.4l-5.7-15l43.9-16.7L655.8,276.5z
				"/>
			
				<rect x="594.8" y="216" transform="matrix(0.935 -0.3547 0.3547 0.935 -46.2736 235.1386)" class="st32" width="46.9" height="55.5"/>
		</g>
		<path class="st33" d="M628.2,279.5c0.7,2,2.8,3,4.5,2.3c1.8-0.7,2.6-2.8,1.9-4.7c-0.7-1.9-2.8-3-4.5-2.3
			C628.3,275.5,627.4,277.6,628.2,279.5z"/>
		<path class="st33" d="M596.9,214.4c0.3,0.7,1,1.1,1.7,0.8l15.6-5.9c0.6-0.2,1-1,0.7-1.7l0,0c-0.3-0.7-1-1.1-1.7-0.9l-15.6,5.9
			C596.9,212.9,596.6,213.7,596.9,214.4L596.9,214.4z"/>
		<g>
			<path class="st34" d="M613.4,207.7l-15.6,5.9c-0.5,0.2-0.8,0.7-0.8,1.3c-0.1-0.1-0.2-0.3-0.2-0.4c-0.3-0.7,0-1.5,0.7-1.7
				l15.6-5.9c0.6-0.2,1.4,0.1,1.7,0.9c0.1,0.2,0.1,0.3,0.1,0.5C614.5,207.7,613.9,207.5,613.4,207.7z"/>
		</g>
		<g class="st35">
			<path class="st7" d="M586.9,226l43.5-16.5l19.7,51.9l-0.1,0C636.5,237.6,611.6,223.9,586.9,226z"/>
		</g>
	</g>
</g>
</svg>
